<ttFont>
<head>
    <!-- Most of this table will be recalculated by the compiler -->
    <tableVersion value="1.0"/>
    <fontRevision value="1.0"/>
    <checkSumAdjustment value="0xc9a96263"/>
    <magicNumber value="0x5f0f3cf5"/>
    <flags value="00000000 00001011"/>
    <unitsPerEm value="1000"/>
    <created value="Thu Jan 23 14:53:09 2025"/>
    <modified value="Thu Jan 23 14:53:09 2025"/>
    <xMin value="0"/>
    <yMin value="-121"/>
    <xMax value="1000"/>
    <yMax value="840"/>
    <macStyle value="00000000 00000000"/>
    <lowestRecPPEM value="8"/>
    <fontDirectionHint value="2"/>
    <indexToLocFormat value="0"/>
    <glyphDataFormat value="0"/>
  </head>
    <TTGlyph name="alarm" xMin="0" yMin="-16" xMax="856" yMax="717">
      <contour>
        <pt x="317" y="702" on="1"/>
        <pt x="325" y="691" on="0"/>
        <pt x="320" y="665" on="0"/>
        <pt x="310" y="658" on="1"/>
        <pt x="196" y="575" on="1"/>
        <pt x="185" y="567" on="0"/>
        <pt x="159" y="572" on="0"/>
        <pt x="144" y="593" on="0"/>
        <pt x="149" y="618" on="0"/>
        <pt x="159" y="625" on="1"/>
        <pt x="273" y="709" on="1"/>
        <pt x="284" y="717" on="0"/>
        <pt x="310" y="712" on="0"/>
      </contour>
      <contour>
        <pt x="500" y="631" on="1"/>
        <pt x="412" y="631" on="0"/>
        <pt x="337" y="587" on="1"/>
        <pt x="264" y="544" on="0"/>
        <pt x="221" y="471" on="1"/>
        <pt x="177" y="396" on="0"/>
        <pt x="177" y="220" on="0"/>
        <pt x="221" y="145" on="1"/>
        <pt x="264" y="72" on="0"/>
        <pt x="337" y="29" on="1"/>
        <pt x="412" y="-15" on="0"/>
        <pt x="588" y="-15" on="0"/>
        <pt x="663" y="29" on="1"/>
        <pt x="736" y="72" on="0"/>
        <pt x="779" y="145" on="1"/>
        <pt x="823" y="220" on="0"/>
        <pt x="823" y="396" on="0"/>
        <pt x="779" y="471" on="1"/>
        <pt x="736" y="544" on="0"/>
        <pt x="663" y="587" on="1"/>
        <pt x="588" y="631" on="0"/>
      </contour>
      <contour>
        <pt x="240" y="308" on="1"/>
        <pt x="240" y="379" on="0"/>
        <pt x="310" y="499" on="0"/>
        <pt x="429" y="569" on="0"/>
        <pt x="571" y="569" on="0"/>
        <pt x="690" y="499" on="0"/>
        <pt x="760" y="379" on="0"/>
        <pt x="760" y="238" on="0"/>
        <pt x="690" y="118" on="0"/>
        <pt x="571" y="48" on="0"/>
        <pt x="429" y="48" on="0"/>
        <pt x="310" y="118" on="0"/>
        <pt x="240" y="238" on="0"/>
      </contour>
      <contour>
        <pt x="531" y="444" on="1"/>
        <pt x="531" y="457" on="0"/>
        <pt x="513" y="475" on="0"/>
        <pt x="487" y="475" on="0"/>
        <pt x="469" y="457" on="0"/>
        <pt x="469" y="444" on="1"/>
        <pt x="469" y="308" on="1"/>
        <pt x="469" y="300" on="0"/>
        <pt x="477" y="286" on="0"/>
        <pt x="484" y="282" on="1"/>
        <pt x="588" y="219" on="1"/>
        <pt x="599" y="212" on="0"/>
        <pt x="624" y="219" on="0"/>
        <pt x="638" y="241" on="0"/>
        <pt x="631" y="266" on="0"/>
        <pt x="620" y="273" on="1"/>
        <pt x="531" y="326" on="1"/>
      </contour>
      <contour>
        <pt x="727" y="709" on="1"/>
        <pt x="716" y="717" on="0"/>
        <pt x="690" y="712" on="0"/>
        <pt x="675" y="691" on="0"/>
        <pt x="680" y="665" on="0"/>
        <pt x="690" y="658" on="1"/>
        <pt x="805" y="575" on="1"/>
        <pt x="816" y="567" on="0"/>
        <pt x="841" y="572" on="0"/>
        <pt x="856" y="593" on="0"/>
        <pt x="851" y="618" on="0"/>
        <pt x="841" y="625" on="1"/>
      </contour>
    </TTGlyph>
    <TTGlyph name="alertdiamond" xMin="0" yMin="-109" xMax="959" yMax="809">
      <contour>
        <pt x="463" y="727" on="1"/>
        <pt x="479" y="743" on="0"/>
        <pt x="522" y="743" on="0"/>
        <pt x="537" y="727" on="1"/>
        <pt x="877" y="387" on="1"/>
        <pt x="893" y="372" on="0"/>
        <pt x="893" y="329" on="0"/>
        <pt x="877" y="313" on="1"/>
        <pt x="537" y="-27" on="1"/>
        <pt x="522" y="-43" on="0"/>
        <pt x="479" y="-43" on="0"/>
        <pt x="463" y="-27" on="1"/>
        <pt x="123" y="313" on="1"/>
        <pt x="107" y="329" on="0"/>
        <pt x="107" y="372" on="0"/>
        <pt x="123" y="387" on="1"/>
      </contour>
      <contour>
        <pt x="581" y="772" on="1"/>
        <pt x="559" y="794" on="0"/>
        <pt x="500" y="809" on="0"/>
        <pt x="441" y="794" on="0"/>
        <pt x="419" y="772" on="1"/>
        <pt x="79" y="431" on="1"/>
        <pt x="57" y="409" on="0"/>
        <pt x="41" y="350" on="0"/>
        <pt x="57" y="291" on="0"/>
        <pt x="79" y="269" on="1"/>
        <pt x="419" y="-72" on="1"/>
        <pt x="441" y="-94" on="0"/>
        <pt x="500" y="-109" on="0"/>
        <pt x="559" y="-94" on="0"/>
        <pt x="581" y="-72" on="1"/>
        <pt x="922" y="269" on="1"/>
        <pt x="944" y="291" on="0"/>
        <pt x="959" y="350" on="0"/>
        <pt x="944" y="409" on="0"/>
        <pt x="922" y="431" on="1"/>
      </contour>
      <contour>
        <pt x="500" y="538" on="1"/>
        <pt x="513" y="538" on="0"/>
        <pt x="531" y="519" on="0"/>
        <pt x="531" y="506" on="1"/>
        <pt x="531" y="340" on="1"/>
        <pt x="531" y="327" on="0"/>
        <pt x="513" y="308" on="0"/>
        <pt x="487" y="308" on="0"/>
        <pt x="469" y="327" on="0"/>
        <pt x="469" y="340" on="1"/>
        <pt x="469" y="506" on="1"/>
        <pt x="469" y="519" on="0"/>
        <pt x="487" y="538" on="0"/>
      </contour>
      <contour>
        <pt x="547" y="209" on="1"/>
        <pt x="547" y="190" on="0"/>
        <pt x="519" y="163" on="0"/>
        <pt x="481" y="163" on="0"/>
        <pt x="453" y="190" on="0"/>
        <pt x="453" y="229" on="0"/>
        <pt x="481" y="256" on="0"/>
        <pt x="520" y="256" on="0"/>
        <pt x="547" y="229" on="0"/>
      </contour>
    </TTGlyph>
    <TTGlyph name="alerthexagon" xMin="0" yMin="-95" xMax="906" yMax="795">
      <contour>
        <pt x="474" y="726" on="1"/>
        <pt x="486" y="733" on="0"/>
        <pt x="514" y="733" on="0"/>
        <pt x="526" y="726" on="1"/>
        <pt x="818" y="556" on="1"/>
        <pt x="830" y="548" on="0"/>
        <pt x="844" y="524" on="0"/>
        <pt x="844" y="511" on="1"/>
        <pt x="844" y="190" on="1"/>
        <pt x="844" y="176" on="0"/>
        <pt x="830" y="152" on="0"/>
        <pt x="818" y="145" on="1"/>
        <pt x="526" y="-26" on="1"/>
        <pt x="514" y="-33" on="0"/>
        <pt x="486" y="-33" on="0"/>
        <pt x="474" y="-26" on="1"/>
        <pt x="182" y="145" on="1"/>
        <pt x="170" y="152" on="0"/>
        <pt x="156" y="176" on="0"/>
        <pt x="156" y="190" on="1"/>
        <pt x="156" y="511" on="1"/>
        <pt x="156" y="524" on="0"/>
        <pt x="170" y="548" on="0"/>
        <pt x="182" y="556" on="1"/>
      </contour>
      <contour>
        <pt x="558" y="780" on="1"/>
        <pt x="531" y="795" on="0"/>
        <pt x="469" y="795" on="0"/>
        <pt x="442" y="780" on="1"/>
        <pt x="151" y="609" on="1"/>
        <pt x="124" y="594" on="0"/>
        <pt x="94" y="541" on="0"/>
        <pt x="94" y="511" on="1"/>
        <pt x="94" y="190" on="1"/>
        <pt x="94" y="159" on="0"/>
        <pt x="124" y="106" on="0"/>
        <pt x="151" y="91" on="1"/>
        <pt x="442" y="-80" on="1"/>
        <pt x="469" y="-95" on="0"/>
        <pt x="531" y="-95" on="0"/>
        <pt x="558" y="-80" on="1"/>
        <pt x="849" y="91" on="1"/>
        <pt x="876" y="106" on="0"/>
        <pt x="906" y="159" on="0"/>
        <pt x="906" y="190" on="1"/>
        <pt x="906" y="511" on="1"/>
        <pt x="906" y="541" on="0"/>
        <pt x="876" y="594" on="0"/>
        <pt x="849" y="609" on="1"/>
      </contour>
      <contour>
        <pt x="500" y="538" on="1"/>
        <pt x="513" y="538" on="0"/>
        <pt x="531" y="519" on="0"/>
        <pt x="531" y="506" on="1"/>
        <pt x="531" y="340" on="1"/>
        <pt x="531" y="327" on="0"/>
        <pt x="513" y="308" on="0"/>
        <pt x="487" y="308" on="0"/>
        <pt x="469" y="327" on="0"/>
        <pt x="469" y="340" on="1"/>
        <pt x="469" y="506" on="1"/>
        <pt x="469" y="519" on="0"/>
        <pt x="487" y="538" on="0"/>
      </contour>
      <contour>
        <pt x="547" y="209" on="1"/>
        <pt x="547" y="190" on="0"/>
        <pt x="519" y="163" on="0"/>
        <pt x="481" y="163" on="0"/>
        <pt x="453" y="190" on="0"/>
        <pt x="453" y="229" on="0"/>
        <pt x="481" y="256" on="0"/>
        <pt x="520" y="256" on="0"/>
        <pt x="547" y="229" on="0"/>
      </contour>
    </TTGlyph>
    <TTGlyph name="alerttriangle" xMin="0" yMin="-15" xMax="953" yMax="778">
      <contour>
        <pt x="455" y="683" on="1"/>
        <pt x="465" y="700" on="0"/>
        <pt x="500" y="712" on="0"/>
        <pt x="535" y="700" on="0"/>
        <pt x="545" y="683" on="1"/>
        <pt x="877" y="127" on="1"/>
        <pt x="887" y="110" on="0"/>
        <pt x="881" y="73" on="0"/>
        <pt x="852" y="48" on="0"/>
        <pt x="832" y="48" on="1"/>
        <pt x="168" y="48" on="1"/>
        <pt x="148" y="48" on="0"/>
        <pt x="119" y="73" on="0"/>
        <pt x="113" y="110" on="0"/>
        <pt x="123" y="127" on="1"/>
      </contour>
      <contour>
        <pt x="598" y="715" on="1"/>
        <pt x="577" y="751" on="0"/>
        <pt x="500" y="777" on="0"/>
        <pt x="423" y="751" on="0"/>
        <pt x="402" y="715" on="1"/>
        <pt x="69" y="159" on="1"/>
        <pt x="47" y="122" on="0"/>
        <pt x="62" y="40" on="0"/>
        <pt x="125" y="-15" on="0"/>
        <pt x="168" y="-15" on="1"/>
        <pt x="832" y="-15" on="1"/>
        <pt x="875" y="-15" on="0"/>
        <pt x="938" y="40" on="0"/>
        <pt x="953" y="122" on="0"/>
        <pt x="931" y="159" on="1"/>
      </contour>
      <contour>
        <pt x="500" y="538" on="1"/>
        <pt x="513" y="538" on="0"/>
        <pt x="531" y="519" on="0"/>
        <pt x="531" y="506" on="1"/>
        <pt x="531" y="340" on="1"/>
        <pt x="531" y="327" on="0"/>
        <pt x="513" y="308" on="0"/>
        <pt x="487" y="308" on="0"/>
        <pt x="469" y="327" on="0"/>
        <pt x="469" y="340" on="1"/>
        <pt x="469" y="506" on="1"/>
        <pt x="469" y="519" on="0"/>
        <pt x="487" y="538" on="0"/>
      </contour>
      <contour>
        <pt x="547" y="209" on="1"/>
        <pt x="547" y="190" on="0"/>
        <pt x="519" y="163" on="0"/>
        <pt x="481" y="163" on="0"/>
        <pt x="453" y="190" on="0"/>
        <pt x="453" y="229" on="0"/>
        <pt x="481" y="256" on="0"/>
        <pt x="520" y="256" on="0"/>
        <pt x="547" y="229" on="0"/>
      </contour>
    </TTGlyph>
    <TTGlyph name="ambulance" xMin="0" yMin="0" xMax="969" yMax="652">
      <contour>
        <pt x="104" y="652" on="1"/>
        <pt x="74" y="652" on="0"/>
        <pt x="31" y="609" on="0"/>
        <pt x="31" y="579" on="1"/>
        <pt x="31" y="163" on="1"/>
        <pt x="31" y="132" on="0"/>
        <pt x="74" y="90" on="0"/>
        <pt x="104" y="90" on="1"/>
        <pt x="119" y="90" on="1"/>
        <pt x="130" y="53" on="0"/>
        <pt x="191" y="6" on="0"/>
        <pt x="268" y="6" on="0"/>
        <pt x="329" y="53" on="0"/>
        <pt x="339" y="90" on="1"/>
        <pt x="661" y="90" on="1"/>
        <pt x="671" y="53" on="0"/>
        <pt x="732" y="6" on="0"/>
        <pt x="810" y="6" on="0"/>
        <pt x="871" y="54" on="0"/>
        <pt x="881" y="90" on="1"/>
        <pt x="896" y="90" on="1"/>
        <pt x="926" y="90" on="0"/>
        <pt x="969" y="132" on="0"/>
        <pt x="969" y="163" on="1"/>
        <pt x="969" y="252" on="1"/>
        <pt x="969" y="278" on="0"/>
        <pt x="952" y="298" on="1"/>
        <pt x="859" y="409" on="1"/>
        <pt x="760" y="592" on="1"/>
        <pt x="744" y="620" on="0"/>
        <pt x="690" y="652" on="0"/>
        <pt x="659" y="652" on="1"/>
      </contour>
      <contour>
        <pt x="771" y="235" on="1"/>
        <pt x="732" y="235" on="0"/>
        <pt x="671" y="188" on="0"/>
        <pt x="661" y="152" on="1"/>
        <pt x="615" y="152" on="1"/>
        <pt x="615" y="360" on="1"/>
        <pt x="819" y="360" on="1"/>
        <pt x="904" y="258" on="1"/>
        <pt x="906" y="254" on="0"/>
        <pt x="906" y="252" on="1"/>
        <pt x="906" y="163" on="1"/>
        <pt x="906" y="158" on="0"/>
        <pt x="900" y="152" on="0"/>
        <pt x="896" y="152" on="1"/>
        <pt x="881" y="152" on="1"/>
        <pt x="871" y="188" on="0"/>
        <pt x="810" y="235" on="0"/>
      </contour>
      <contour>
        <pt x="771" y="173" on="1"/>
        <pt x="793" y="173" on="0"/>
        <pt x="823" y="143" on="0"/>
        <pt x="823" y="99" on="0"/>
        <pt x="793" y="69" on="0"/>
        <pt x="749" y="69" on="0"/>
        <pt x="719" y="99" on="0"/>
        <pt x="719" y="143" on="0"/>
        <pt x="749" y="173" on="0"/>
      </contour>
      <contour>
        <pt x="339" y="152" on="1"/>
        <pt x="552" y="152" on="1"/>
        <pt x="552" y="590" on="1"/>
        <pt x="104" y="590" on="1"/>
        <pt x="100" y="590" on="0"/>
        <pt x="94" y="584" on="0"/>
        <pt x="94" y="579" on="1"/>
        <pt x="94" y="163" on="1"/>
        <pt x="94" y="158" on="0"/>
        <pt x="100" y="152" on="0"/>
        <pt x="104" y="152" on="1"/>
        <pt x="119" y="152" on="1"/>
        <pt x="130" y="188" on="0"/>
        <pt x="190" y="235" on="0"/>
        <pt x="268" y="235" on="0"/>
        <pt x="329" y="188" on="0"/>
      </contour>
      <contour>
        <pt x="615" y="423" on="1"/>
        <pt x="615" y="590" on="1"/>
        <pt x="659" y="590" on="1"/>
        <pt x="673" y="590" on="0"/>
        <pt x="698" y="575" on="0"/>
        <pt x="705" y="562" on="1"/>
        <pt x="781" y="423" on="1"/>
      </contour>
      <contour>
        <pt x="177" y="121" on="1"/>
        <pt x="177" y="143" on="0"/>
        <pt x="207" y="173" on="0"/>
        <pt x="251" y="173" on="0"/>
        <pt x="281" y="143" on="0"/>
        <pt x="281" y="99" on="0"/>
        <pt x="251" y="69" on="0"/>
        <pt x="207" y="69" on="0"/>
        <pt x="177" y="99" on="0"/>
      </contour>
      <contour>
        <pt x="365" y="475" on="1"/>
        <pt x="365" y="488" on="0"/>
        <pt x="346" y="506" on="0"/>
        <pt x="320" y="506" on="0"/>
        <pt x="302" y="488" on="0"/>
        <pt x="302" y="475" on="1"/>
        <pt x="302" y="423" on="1"/>
        <pt x="250" y="423" on="1"/>
        <pt x="237" y="423" on="0"/>
        <pt x="219" y="405" on="0"/>
        <pt x="219" y="379" on="0"/>
        <pt x="237" y="360" on="0"/>
        <pt x="250" y="360" on="1"/>
        <pt x="302" y="360" on="1"/>
        <pt x="302" y="308" on="1"/>
        <pt x="302" y="295" on="0"/>
        <pt x="320" y="277" on="0"/>
        <pt x="346" y="277" on="0"/>
        <pt x="365" y="295" on="0"/>
        <pt x="365" y="308" on="1"/>
        <pt x="365" y="360" on="1"/>
        <pt x="417" y="360" on="1"/>
        <pt x="430" y="360" on="0"/>
        <pt x="448" y="379" on="0"/>
        <pt x="448" y="405" on="0"/>
        <pt x="430" y="423" on="0"/>
        <pt x="417" y="423" on="1"/>
        <pt x="365" y="423" on="1"/>
      </contour>
    </TTGlyph>
    <TTGlyph name="anchor" xMin="0" yMin="-56" xMax="844" yMax="756">
      <contour>
        <pt x="500" y="756" on="1"/>
        <pt x="469" y="756" on="0"/>
        <pt x="416" y="725" on="0"/>
        <pt x="385" y="673" on="0"/>
        <pt x="385" y="642" on="1"/>
        <pt x="385" y="603" on="0"/>
        <pt x="432" y="542" on="0"/>
        <pt x="469" y="531" on="1"/>
        <pt x="469" y="444" on="1"/>
        <pt x="375" y="444" on="1"/>
        <pt x="362" y="444" on="0"/>
        <pt x="344" y="426" on="0"/>
        <pt x="344" y="400" on="0"/>
        <pt x="362" y="381" on="0"/>
        <pt x="375" y="381" on="1"/>
        <pt x="469" y="381" on="1"/>
        <pt x="469" y="9" on="1"/>
        <pt x="419" y="16" on="0"/>
        <pt x="335" y="73" on="0"/>
        <pt x="285" y="161" on="0"/>
        <pt x="282" y="212" on="1"/>
        <pt x="290" y="203" on="1"/>
        <pt x="300" y="194" on="0"/>
        <pt x="325" y="194" on="0"/>
        <pt x="344" y="212" on="0"/>
        <pt x="344" y="238" on="0"/>
        <pt x="335" y="247" on="1"/>
        <pt x="272" y="310" on="1"/>
        <pt x="263" y="319" on="0"/>
        <pt x="237" y="319" on="0"/>
        <pt x="228" y="310" on="1"/>
        <pt x="165" y="247" on="1"/>
        <pt x="156" y="238" on="0"/>
        <pt x="156" y="212" on="0"/>
        <pt x="175" y="194" on="0"/>
        <pt x="200" y="194" on="0"/>
        <pt x="210" y="203" on="1"/>
        <pt x="219" y="212" on="1"/>
        <pt x="222" y="139" on="0"/>
        <pt x="299" y="16" on="0"/>
        <pt x="362" y="-20" on="1"/>
        <pt x="426" y="-56" on="0"/>
        <pt x="574" y="-56" on="0"/>
        <pt x="638" y="-20" on="1"/>
        <pt x="701" y="16" on="0"/>
        <pt x="778" y="139" on="0"/>
        <pt x="781" y="212" on="1"/>
        <pt x="790" y="203" on="1"/>
        <pt x="800" y="194" on="0"/>
        <pt x="825" y="194" on="0"/>
        <pt x="844" y="212" on="0"/>
        <pt x="844" y="238" on="0"/>
        <pt x="835" y="247" on="1"/>
        <pt x="772" y="310" on="1"/>
        <pt x="763" y="319" on="0"/>
        <pt x="737" y="319" on="0"/>
        <pt x="728" y="310" on="1"/>
        <pt x="665" y="247" on="1"/>
        <pt x="656" y="238" on="0"/>
        <pt x="656" y="212" on="0"/>
        <pt x="675" y="194" on="0"/>
        <pt x="700" y="194" on="0"/>
        <pt x="710" y="203" on="1"/>
        <pt x="718" y="212" on="1"/>
        <pt x="715" y="161" on="0"/>
        <pt x="665" y="73" on="0"/>
        <pt x="581" y="16" on="0"/>
        <pt x="531" y="9" on="1"/>
        <pt x="531" y="381" on="1"/>
        <pt x="625" y="381" on="1"/>
        <pt x="638" y="381" on="0"/>
        <pt x="656" y="400" on="0"/>
        <pt x="656" y="426" on="0"/>
        <pt x="638" y="444" on="0"/>
        <pt x="625" y="444" on="1"/>
        <pt x="531" y="444" on="1"/>
        <pt x="531" y="531" on="1"/>
        <pt x="568" y="542" on="0"/>
        <pt x="615" y="603" on="0"/>
        <pt x="615" y="642" on="1"/>
        <pt x="615" y="673" on="0"/>
        <pt x="584" y="725" on="0"/>
        <pt x="531" y="756" on="0"/>
      </contour>
      <contour>
        <pt x="448" y="642" on="1"/>
        <pt x="448" y="663" on="0"/>
        <pt x="478" y="694" on="0"/>
        <pt x="522" y="694" on="0"/>
        <pt x="552" y="663" on="0"/>
        <pt x="552" y="620" on="0"/>
        <pt x="522" y="590" on="0"/>
        <pt x="478" y="590" on="0"/>
        <pt x="448" y="620" on="0"/>
      </contour>
    </TTGlyph>
    <TTGlyph name="appwindow_1" xMin="0" yMin="-15" xMax="906" yMax="715">
      <contour>
        <pt x="94" y="642" on="1"/>
        <pt x="94" y="672" on="0"/>
        <pt x="136" y="715" on="0"/>
        <pt x="167" y="715" on="1"/>
        <pt x="833" y="715" on="1"/>
        <pt x="864" y="715" on="0"/>
        <pt x="906" y="672" on="0"/>
        <pt x="906" y="642" on="1"/>
        <pt x="906" y="58" on="1"/>
        <pt x="906" y="28" on="0"/>
        <pt x="864" y="-15" on="0"/>
        <pt x="833" y="-15" on="1"/>
        <pt x="167" y="-15" on="1"/>
        <pt x="136" y="-15" on="0"/>
        <pt x="94" y="28" on="0"/>
        <pt x="94" y="58" on="1"/>
      </contour>
      <contour>
        <pt x="167" y="652" on="1"/>
        <pt x="163" y="652" on="0"/>
        <pt x="156" y="646" on="0"/>
        <pt x="156" y="642" on="1"/>
        <pt x="156" y="58" on="1"/>
        <pt x="156" y="54" on="0"/>
        <pt x="163" y="48" on="0"/>
        <pt x="167" y="48" on="1"/>
        <pt x="833" y="48" on="1"/>
        <pt x="837" y="48" on="0"/>
        <pt x="844" y="54" on="0"/>
        <pt x="844" y="58" on="1"/>
        <pt x="844" y="642" on="1"/>
        <pt x="844" y="646" on="0"/>
        <pt x="837" y="652" on="0"/>
        <pt x="833" y="652" on="1"/>
      </contour>
      <contour>
        <pt x="229" y="538" on="1"/>
        <pt x="229" y="555" on="0"/>
        <pt x="254" y="579" on="0"/>
        <pt x="288" y="579" on="0"/>
        <pt x="313" y="555" on="0"/>
        <pt x="313" y="521" on="0"/>
        <pt x="288" y="496" on="0"/>
        <pt x="254" y="496" on="0"/>
        <pt x="229" y="521" on="0"/>
      </contour>
      <contour>
        <pt x="417" y="579" on="1"/>
        <pt x="400" y="579" on="0"/>
        <pt x="375" y="555" on="0"/>
        <pt x="375" y="521" on="0"/>
        <pt x="400" y="496" on="0"/>
        <pt x="434" y="496" on="0"/>
        <pt x="458" y="521" on="0"/>
        <pt x="458" y="555" on="0"/>
        <pt x="434" y="579" on="0"/>
      </contour>
    </TTGlyph>
    <TTGlyph name="appwindow_2" xMin="0" yMin="-15" xMax="906" yMax="715">
      <contour>
        <pt x="167" y="652" on="1"/>
        <pt x="163" y="652" on="0"/>
        <pt x="156" y="646" on="0"/>
        <pt x="156" y="642" on="1"/>
        <pt x="156" y="548" on="1"/>
        <pt x="260" y="548" on="1"/>
        <pt x="260" y="652" on="1"/>
      </contour>
      <contour>
        <pt x="323" y="652" on="1"/>
        <pt x="323" y="548" on="1"/>
        <pt x="427" y="548" on="1"/>
        <pt x="427" y="652" on="1"/>
      </contour>
      <contour>
        <pt x="490" y="652" on="1"/>
        <pt x="490" y="548" on="1"/>
        <pt x="844" y="548" on="1"/>
        <pt x="844" y="642" on="1"/>
        <pt x="844" y="646" on="0"/>
        <pt x="837" y="652" on="0"/>
        <pt x="833" y="652" on="1"/>
      </contour>
      <contour>
        <pt x="844" y="485" on="1"/>
        <pt x="458" y="485" on="1"/>
        <pt x="156" y="485" on="1"/>
        <pt x="156" y="58" on="1"/>
        <pt x="156" y="54" on="0"/>
        <pt x="163" y="48" on="0"/>
        <pt x="167" y="48" on="1"/>
        <pt x="833" y="48" on="1"/>
        <pt x="837" y="48" on="0"/>
        <pt x="844" y="54" on="0"/>
        <pt x="844" y="58" on="1"/>
      </contour>
      <contour>
        <pt x="94" y="642" on="1"/>
        <pt x="94" y="672" on="0"/>
        <pt x="136" y="715" on="0"/>
        <pt x="167" y="715" on="1"/>
        <pt x="833" y="715" on="1"/>
        <pt x="864" y="715" on="0"/>
        <pt x="906" y="672" on="0"/>
        <pt x="906" y="642" on="1"/>
        <pt x="906" y="58" on="1"/>
        <pt x="906" y="28" on="0"/>
        <pt x="864" y="-15" on="0"/>
        <pt x="833" y="-15" on="1"/>
        <pt x="167" y="-15" on="1"/>
        <pt x="136" y="-15" on="0"/>
        <pt x="94" y="28" on="0"/>
        <pt x="94" y="58" on="1"/>
      </contour>
    </TTGlyph>
    <TTGlyph name="arrowcornerdownleft" xMin="0" yMin="-15" xMax="802" yMax="756">
      <contour>
        <pt x="186" y="205" on="1"/>
        <pt x="177" y="196" on="0"/>
        <pt x="177" y="170" on="0"/>
        <pt x="186" y="161" on="1"/>
        <pt x="353" y="-5" on="1"/>
        <pt x="362" y="-15" on="0"/>
        <pt x="388" y="-15" on="0"/>
        <pt x="406" y="4" on="0"/>
        <pt x="406" y="30" on="0"/>
        <pt x="397" y="39" on="1"/>
        <pt x="284" y="152" on="1"/>
        <pt x="688" y="152" on="1"/>
        <pt x="719" y="152" on="0"/>
        <pt x="771" y="183" on="0"/>
        <pt x="802" y="236" on="0"/>
        <pt x="802" y="267" on="1"/>
        <pt x="802" y="725" on="1"/>
        <pt x="802" y="738" on="0"/>
        <pt x="784" y="756" on="0"/>
        <pt x="758" y="756" on="0"/>
        <pt x="740" y="738" on="0"/>
        <pt x="740" y="725" on="1"/>
        <pt x="740" y="267" on="1"/>
        <pt x="740" y="245" on="0"/>
        <pt x="709" y="215" on="0"/>
        <pt x="688" y="215" on="1"/>
        <pt x="284" y="215" on="1"/>
        <pt x="397" y="328" on="1"/>
        <pt x="406" y="337" on="0"/>
        <pt x="406" y="363" on="0"/>
        <pt x="388" y="381" on="0"/>
        <pt x="362" y="381" on="0"/>
        <pt x="353" y="372" on="1"/>
      </contour>
    </TTGlyph>
    <TTGlyph name="arrowcornerdownright" xMin="0" yMin="-15" xMax="823" yMax="756">
      <contour>
        <pt x="814" y="205" on="1"/>
        <pt x="823" y="196" on="0"/>
        <pt x="823" y="170" on="0"/>
        <pt x="814" y="161" on="1"/>
        <pt x="647" y="-5" on="1"/>
        <pt x="638" y="-15" on="0"/>
        <pt x="612" y="-15" on="0"/>
        <pt x="594" y="4" on="0"/>
        <pt x="594" y="30" on="0"/>
        <pt x="603" y="39" on="1"/>
        <pt x="716" y="152" on="1"/>
        <pt x="313" y="152" on="1"/>
        <pt x="282" y="152" on="0"/>
        <pt x="229" y="183" on="0"/>
        <pt x="198" y="236" on="0"/>
        <pt x="198" y="267" on="1"/>
        <pt x="198" y="725" on="1"/>
        <pt x="198" y="738" on="0"/>
        <pt x="216" y="756" on="0"/>
        <pt x="242" y="756" on="0"/>
        <pt x="260" y="738" on="0"/>
        <pt x="260" y="725" on="1"/>
        <pt x="260" y="267" on="1"/>
        <pt x="260" y="245" on="0"/>
        <pt x="291" y="215" on="0"/>
        <pt x="313" y="215" on="1"/>
        <pt x="716" y="215" on="1"/>
        <pt x="603" y="328" on="1"/>
        <pt x="594" y="337" on="0"/>
        <pt x="594" y="363" on="0"/>
        <pt x="612" y="381" on="0"/>
        <pt x="638" y="381" on="0"/>
        <pt x="647" y="372" on="1"/>
      </contour>
    </TTGlyph>
    <TTGlyph name="arrowcornerleftdown" xMin="0" yMin="0" xMax="906" yMax="652">
      <contour>
        <pt x="355" y="36" on="1"/>
        <pt x="346" y="27" on="0"/>
        <pt x="320" y="27" on="0"/>
        <pt x="311" y="36" on="1"/>
        <pt x="145" y="203" on="1"/>
        <pt x="135" y="212" on="0"/>
        <pt x="135" y="238" on="0"/>
        <pt x="154" y="256" on="0"/>
        <pt x="180" y="256" on="0"/>
        <pt x="189" y="247" on="1"/>
        <pt x="302" y="134" on="1"/>
        <pt x="302" y="538" on="1"/>
        <pt x="302" y="569" on="0"/>
        <pt x="333" y="621" on="0"/>
        <pt x="386" y="652" on="0"/>
        <pt x="417" y="652" on="1"/>
        <pt x="875" y="652" on="1"/>
        <pt x="888" y="652" on="0"/>
        <pt x="906" y="634" on="0"/>
        <pt x="906" y="608" on="0"/>
        <pt x="888" y="590" on="0"/>
        <pt x="875" y="590" on="1"/>
        <pt x="417" y="590" on="1"/>
        <pt x="395" y="590" on="0"/>
        <pt x="365" y="559" on="0"/>
        <pt x="365" y="538" on="1"/>
        <pt x="365" y="134" on="1"/>
        <pt x="478" y="247" on="1"/>
        <pt x="487" y="256" on="0"/>
        <pt x="513" y="256" on="0"/>
        <pt x="531" y="238" on="0"/>
        <pt x="531" y="212" on="0"/>
        <pt x="522" y="203" on="1"/>
      </contour>
    </TTGlyph>
    <TTGlyph name="arrowcornerleftup" xMin="0" yMin="0" xMax="906" yMax="673">
      <contour>
        <pt x="355" y="664" on="1"/>
        <pt x="346" y="673" on="0"/>
        <pt x="320" y="673" on="0"/>
        <pt x="311" y="664" on="1"/>
        <pt x="145" y="497" on="1"/>
        <pt x="135" y="488" on="0"/>
        <pt x="135" y="462" on="0"/>
        <pt x="154" y="444" on="0"/>
        <pt x="180" y="444" on="0"/>
        <pt x="189" y="453" on="1"/>
        <pt x="302" y="566" on="1"/>
        <pt x="302" y="163" on="1"/>
        <pt x="302" y="132" on="0"/>
        <pt x="333" y="79" on="0"/>
        <pt x="386" y="48" on="0"/>
        <pt x="417" y="48" on="1"/>
        <pt x="875" y="48" on="1"/>
        <pt x="888" y="48" on="0"/>
        <pt x="906" y="66" on="0"/>
        <pt x="906" y="92" on="0"/>
        <pt x="888" y="110" on="0"/>
        <pt x="875" y="110" on="1"/>
        <pt x="417" y="110" on="1"/>
        <pt x="395" y="110" on="0"/>
        <pt x="365" y="141" on="0"/>
        <pt x="365" y="163" on="1"/>
        <pt x="365" y="566" on="1"/>
        <pt x="478" y="453" on="1"/>
        <pt x="487" y="444" on="0"/>
        <pt x="513" y="444" on="0"/>
        <pt x="531" y="462" on="0"/>
        <pt x="531" y="488" on="0"/>
        <pt x="522" y="497" on="1"/>
      </contour>
    </TTGlyph>
    <TTGlyph name="arrowcornerrightdown" xMin="0" yMin="0" xMax="865" yMax="652">
      <contour>
        <pt x="645" y="36" on="1"/>
        <pt x="654" y="27" on="0"/>
        <pt x="680" y="27" on="0"/>
        <pt x="689" y="36" on="1"/>
        <pt x="855" y="203" on="1"/>
        <pt x="865" y="212" on="0"/>
        <pt x="865" y="238" on="0"/>
        <pt x="846" y="256" on="0"/>
        <pt x="820" y="256" on="0"/>
        <pt x="811" y="247" on="1"/>
        <pt x="698" y="134" on="1"/>
        <pt x="698" y="538" on="1"/>
        <pt x="698" y="569" on="0"/>
        <pt x="667" y="621" on="0"/>
        <pt x="614" y="652" on="0"/>
        <pt x="583" y="652" on="1"/>
        <pt x="125" y="652" on="1"/>
        <pt x="112" y="652" on="0"/>
        <pt x="94" y="634" on="0"/>
        <pt x="94" y="608" on="0"/>
        <pt x="112" y="590" on="0"/>
        <pt x="125" y="590" on="1"/>
        <pt x="583" y="590" on="1"/>
        <pt x="605" y="590" on="0"/>
        <pt x="635" y="559" on="0"/>
        <pt x="635" y="538" on="1"/>
        <pt x="635" y="134" on="1"/>
        <pt x="522" y="247" on="1"/>
        <pt x="513" y="256" on="0"/>
        <pt x="487" y="256" on="0"/>
        <pt x="469" y="238" on="0"/>
        <pt x="469" y="212" on="0"/>
        <pt x="478" y="203" on="1"/>
      </contour>
    </TTGlyph>
    <TTGlyph name="arrowcornerrightup" xMin="0" yMin="0" xMax="865" yMax="673">
      <contour>
        <pt x="645" y="664" on="1"/>
        <pt x="654" y="673" on="0"/>
        <pt x="680" y="673" on="0"/>
        <pt x="689" y="664" on="1"/>
        <pt x="855" y="497" on="1"/>
        <pt x="865" y="488" on="0"/>
        <pt x="865" y="462" on="0"/>
        <pt x="846" y="444" on="0"/>
        <pt x="820" y="444" on="0"/>
        <pt x="811" y="453" on="1"/>
        <pt x="698" y="566" on="1"/>
        <pt x="698" y="163" on="1"/>
        <pt x="698" y="132" on="0"/>
        <pt x="667" y="79" on="0"/>
        <pt x="614" y="48" on="0"/>
        <pt x="583" y="48" on="1"/>
        <pt x="125" y="48" on="1"/>
        <pt x="112" y="48" on="0"/>
        <pt x="94" y="66" on="0"/>
        <pt x="94" y="92" on="0"/>
        <pt x="112" y="110" on="0"/>
        <pt x="125" y="110" on="1"/>
        <pt x="583" y="110" on="1"/>
        <pt x="605" y="110" on="0"/>
        <pt x="635" y="141" on="0"/>
        <pt x="635" y="163" on="1"/>
        <pt x="635" y="566" on="1"/>
        <pt x="522" y="453" on="1"/>
        <pt x="513" y="444" on="0"/>
        <pt x="487" y="444" on="0"/>
        <pt x="469" y="462" on="0"/>
        <pt x="469" y="488" on="0"/>
        <pt x="478" y="497" on="1"/>
      </contour>
    </TTGlyph>
    <TTGlyph name="arrowcornerupleft" xMin="0" yMin="-56" xMax="802" yMax="715">
      <contour>
        <pt x="186" y="495" on="1"/>
        <pt x="177" y="504" on="0"/>
        <pt x="177" y="530" on="0"/>
        <pt x="186" y="539" on="1"/>
        <pt x="353" y="705" on="1"/>
        <pt x="362" y="715" on="0"/>
        <pt x="388" y="715" on="0"/>
        <pt x="406" y="696" on="0"/>
        <pt x="406" y="670" on="0"/>
        <pt x="397" y="661" on="1"/>
        <pt x="284" y="548" on="1"/>
        <pt x="688" y="548" on="1"/>
        <pt x="719" y="548" on="0"/>
        <pt x="771" y="517" on="0"/>
        <pt x="802" y="464" on="0"/>
        <pt x="802" y="433" on="1"/>
        <pt x="802" y="-25" on="1"/>
        <pt x="802" y="-38" on="0"/>
        <pt x="784" y="-56" on="0"/>
        <pt x="758" y="-56" on="0"/>
        <pt x="740" y="-38" on="0"/>
        <pt x="740" y="-25" on="1"/>
        <pt x="740" y="433" on="1"/>
        <pt x="740" y="455" on="0"/>
        <pt x="709" y="485" on="0"/>
        <pt x="688" y="485" on="1"/>
        <pt x="284" y="485" on="1"/>
        <pt x="397" y="372" on="1"/>
        <pt x="406" y="363" on="0"/>
        <pt x="406" y="337" on="0"/>
        <pt x="388" y="319" on="0"/>
        <pt x="362" y="319" on="0"/>
        <pt x="353" y="328" on="1"/>
      </contour>
    </TTGlyph>
    <TTGlyph name="arrowcornerupright" xMin="0" yMin="-56" xMax="823" yMax="715">
      <contour>
        <pt x="814" y="495" on="1"/>
        <pt x="823" y="504" on="0"/>
        <pt x="823" y="530" on="0"/>
        <pt x="814" y="539" on="1"/>
        <pt x="647" y="705" on="1"/>
        <pt x="638" y="715" on="0"/>
        <pt x="612" y="715" on="0"/>
        <pt x="594" y="696" on="0"/>
        <pt x="594" y="670" on="0"/>
        <pt x="603" y="661" on="1"/>
        <pt x="716" y="548" on="1"/>
        <pt x="313" y="548" on="1"/>
        <pt x="282" y="548" on="0"/>
        <pt x="229" y="517" on="0"/>
        <pt x="198" y="464" on="0"/>
        <pt x="198" y="433" on="1"/>
        <pt x="198" y="-25" on="1"/>
        <pt x="198" y="-38" on="0"/>
        <pt x="216" y="-56" on="0"/>
        <pt x="242" y="-56" on="0"/>
        <pt x="260" y="-38" on="0"/>
        <pt x="260" y="-25" on="1"/>
        <pt x="260" y="433" on="1"/>
        <pt x="260" y="455" on="0"/>
        <pt x="291" y="485" on="0"/>
        <pt x="313" y="485" on="1"/>
        <pt x="716" y="485" on="1"/>
        <pt x="603" y="372" on="1"/>
        <pt x="594" y="363" on="0"/>
        <pt x="594" y="337" on="0"/>
        <pt x="612" y="319" on="0"/>
        <pt x="638" y="319" on="0"/>
        <pt x="647" y="328" on="1"/>
      </contour>
    </TTGlyph>
    <TTGlyph name="arrowcounterclockwise" xMin="0" yMin="-19" xMax="869" yMax="840">
      <contour>
        <pt x="522" y="786" on="1"/>
        <pt x="531" y="795" on="0"/>
        <pt x="531" y="821" on="0"/>
        <pt x="513" y="840" on="0"/>
        <pt x="487" y="840" on="0"/>
        <pt x="478" y="830" on="1"/>
        <pt x="353" y="705" on="1"/>
        <pt x="344" y="696" on="0"/>
        <pt x="344" y="670" on="0"/>
        <pt x="353" y="661" on="1"/>
        <pt x="478" y="536" on="1"/>
        <pt x="487" y="527" on="0"/>
        <pt x="513" y="527" on="0"/>
        <pt x="531" y="545" on="0"/>
        <pt x="531" y="571" on="0"/>
        <pt x="522" y="580" on="1"/>
        <pt x="450" y="652" on="1"/>
        <pt x="500" y="652" on="1"/>
        <pt x="591" y="652" on="0"/>
        <pt x="668" y="601" on="1"/>
        <pt x="743" y="551" on="0"/>
        <pt x="814" y="380" on="0"/>
        <pt x="796" y="291" on="1"/>
        <pt x="788" y="248" on="0"/>
        <pt x="746" y="168" on="0"/>
        <pt x="714" y="136" on="1"/>
        <pt x="647" y="70" on="0"/>
        <pt x="559" y="54" on="1"/>
        <pt x="470" y="36" on="0"/>
        <pt x="384" y="71" on="1"/>
        <pt x="343" y="88" on="0"/>
        <pt x="274" y="145" on="0"/>
        <pt x="249" y="182" on="1"/>
        <pt x="198" y="259" on="0"/>
        <pt x="198" y="350" on="1"/>
        <pt x="198" y="363" on="0"/>
        <pt x="180" y="381" on="0"/>
        <pt x="154" y="381" on="0"/>
        <pt x="135" y="363" on="0"/>
        <pt x="135" y="350" on="1"/>
        <pt x="135" y="296" on="0"/>
        <pt x="167" y="192" on="0"/>
        <pt x="227" y="103" on="0"/>
        <pt x="311" y="34" on="0"/>
        <pt x="411" y="-7" on="0"/>
        <pt x="518" y="-18" on="0"/>
        <pt x="625" y="3" on="0"/>
        <pt x="720" y="54" on="0"/>
        <pt x="796" y="130" on="0"/>
        <pt x="848" y="226" on="0"/>
        <pt x="868" y="332" on="0"/>
        <pt x="857" y="439" on="0"/>
        <pt x="816" y="540" on="0"/>
        <pt x="748" y="623" on="0"/>
        <pt x="658" y="683" on="0"/>
        <pt x="554" y="715" on="0"/>
        <pt x="500" y="715" on="1"/>
        <pt x="450" y="715" on="1"/>
      </contour>
    </TTGlyph>
    <TTGlyph name="arrowdoublerightleft" xMin="0" yMin="-56" xMax="865" yMax="756">
      <contour>
        <pt x="689" y="747" on="1"/>
        <pt x="680" y="756" on="0"/>
        <pt x="654" y="756" on="0"/>
        <pt x="635" y="738" on="0"/>
        <pt x="635" y="712" on="0"/>
        <pt x="645" y="703" on="1"/>
        <pt x="758" y="590" on="1"/>
        <pt x="417" y="590" on="1"/>
        <pt x="404" y="590" on="0"/>
        <pt x="385" y="572" on="0"/>
        <pt x="385" y="545" on="0"/>
        <pt x="404" y="527" on="0"/>
        <pt x="417" y="527" on="1"/>
        <pt x="758" y="527" on="1"/>
        <pt x="645" y="414" on="1"/>
        <pt x="635" y="405" on="0"/>
        <pt x="635" y="379" on="0"/>
        <pt x="654" y="360" on="0"/>
        <pt x="680" y="360" on="0"/>
        <pt x="689" y="370" on="1"/>
        <pt x="855" y="536" on="1"/>
        <pt x="865" y="545" on="0"/>
        <pt x="865" y="571" on="0"/>
        <pt x="855" y="580" on="1"/>
      </contour>
      <contour>
        <pt x="355" y="286" on="1"/>
        <pt x="365" y="295" on="0"/>
        <pt x="365" y="321" on="0"/>
        <pt x="346" y="340" on="0"/>
        <pt x="320" y="340" on="0"/>
        <pt x="311" y="330" on="1"/>
        <pt x="145" y="164" on="1"/>
        <pt x="135" y="155" on="0"/>
        <pt x="135" y="129" on="0"/>
        <pt x="145" y="120" on="1"/>
        <pt x="311" y="-47" on="1"/>
        <pt x="320" y="-56" on="0"/>
        <pt x="346" y="-56" on="0"/>
        <pt x="365" y="-38" on="0"/>
        <pt x="365" y="-12" on="0"/>
        <pt x="355" y="-3" on="1"/>
        <pt x="242" y="110" on="1"/>
        <pt x="542" y="110" on="1"/>
        <pt x="555" y="110" on="0"/>
        <pt x="573" y="129" on="0"/>
        <pt x="573" y="155" on="0"/>
        <pt x="555" y="173" on="0"/>
        <pt x="542" y="173" on="1"/>
        <pt x="242" y="173" on="1"/>
      </contour>
    </TTGlyph>
    <TTGlyph name="arrowdoubleupdown" xMin="0" yMin="-15" xMax="906" yMax="715">
      <contour>
        <pt x="103" y="539" on="1"/>
        <pt x="94" y="530" on="0"/>
        <pt x="94" y="504" on="0"/>
        <pt x="112" y="485" on="0"/>
        <pt x="138" y="485" on="0"/>
        <pt x="147" y="495" on="1"/>
        <pt x="260" y="608" on="1"/>
        <pt x="260" y="267" on="1"/>
        <pt x="260" y="254" on="0"/>
        <pt x="279" y="235" on="0"/>
        <pt x="305" y="235" on="0"/>
        <pt x="323" y="254" on="0"/>
        <pt x="323" y="267" on="1"/>
        <pt x="323" y="608" on="1"/>
        <pt x="436" y="495" on="1"/>
        <pt x="445" y="485" on="0"/>
        <pt x="471" y="485" on="0"/>
        <pt x="490" y="504" on="0"/>
        <pt x="490" y="530" on="0"/>
        <pt x="480" y="539" on="1"/>
        <pt x="314" y="705" on="1"/>
        <pt x="305" y="715" on="0"/>
        <pt x="279" y="715" on="0"/>
        <pt x="270" y="705" on="1"/>
      </contour>
      <contour>
        <pt x="564" y="205" on="1"/>
        <pt x="555" y="215" on="0"/>
        <pt x="529" y="215" on="0"/>
        <pt x="510" y="196" on="0"/>
        <pt x="510" y="170" on="0"/>
        <pt x="520" y="161" on="1"/>
        <pt x="686" y="-5" on="1"/>
        <pt x="695" y="-15" on="0"/>
        <pt x="721" y="-15" on="0"/>
        <pt x="730" y="-5" on="1"/>
        <pt x="897" y="161" on="1"/>
        <pt x="906" y="170" on="0"/>
        <pt x="906" y="196" on="0"/>
        <pt x="888" y="215" on="0"/>
        <pt x="862" y="215" on="0"/>
        <pt x="853" y="205" on="1"/>
        <pt x="740" y="92" on="1"/>
        <pt x="740" y="392" on="1"/>
        <pt x="740" y="405" on="0"/>
        <pt x="721" y="423" on="0"/>
        <pt x="695" y="423" on="0"/>
        <pt x="677" y="405" on="0"/>
        <pt x="677" y="392" on="1"/>
        <pt x="677" y="92" on="1"/>
      </contour>
    </TTGlyph>
    <TTGlyph name="arrowdown" xMin="0" yMin="0" xMax="781" yMax="673">
      <contour>
        <pt x="478" y="36" on="1"/>
        <pt x="487" y="27" on="0"/>
        <pt x="513" y="27" on="0"/>
        <pt x="522" y="36" on="1"/>
        <pt x="772" y="286" on="1"/>
        <pt x="781" y="295" on="0"/>
        <pt x="781" y="321" on="0"/>
        <pt x="763" y="340" on="0"/>
        <pt x="737" y="340" on="0"/>
        <pt x="728" y="330" on="1"/>
        <pt x="531" y="134" on="1"/>
        <pt x="531" y="642" on="1"/>
        <pt x="531" y="655" on="0"/>
        <pt x="513" y="673" on="0"/>
        <pt x="487" y="673" on="0"/>
        <pt x="469" y="655" on="0"/>
        <pt x="469" y="642" on="1"/>
        <pt x="469" y="134" on="1"/>
        <pt x="272" y="330" on="1"/>
        <pt x="263" y="340" on="0"/>
        <pt x="237" y="340" on="0"/>
        <pt x="219" y="321" on="0"/>
        <pt x="219" y="295" on="0"/>
        <pt x="228" y="286" on="1"/>
      </contour>
    </TTGlyph>
    <TTGlyph name="arrowdownleft" xMin="0" yMin="0" xMax="791" yMax="672">
      <contour>
        <pt x="210" y="59" on="1"/>
        <pt x="197" y="59" on="0"/>
        <pt x="178" y="78" on="0"/>
        <pt x="178" y="91" on="1"/>
        <pt x="178" y="562" on="1"/>
        <pt x="178" y="575" on="0"/>
        <pt x="197" y="593" on="0"/>
        <pt x="223" y="593" on="0"/>
        <pt x="241" y="575" on="0"/>
        <pt x="241" y="562" on="1"/>
        <pt x="241" y="166" on="1"/>
        <pt x="737" y="663" on="1"/>
        <pt x="747" y="672" on="0"/>
        <pt x="772" y="672" on="0"/>
        <pt x="791" y="653" on="0"/>
        <pt x="791" y="628" on="0"/>
        <pt x="782" y="618" on="1"/>
        <pt x="285" y="122" on="1"/>
        <pt x="681" y="122" on="1"/>
        <pt x="694" y="122" on="0"/>
        <pt x="712" y="104" on="0"/>
        <pt x="712" y="78" on="0"/>
        <pt x="694" y="59" on="0"/>
        <pt x="681" y="59" on="1"/>
      </contour>
    </TTGlyph>
    <TTGlyph name="arrowdownnarrow" xMin="0" yMin="0" xMax="698" yMax="673">
      <contour>
        <pt x="478" y="36" on="1"/>
        <pt x="487" y="27" on="0"/>
        <pt x="513" y="27" on="0"/>
        <pt x="522" y="36" on="1"/>
        <pt x="689" y="203" on="1"/>
        <pt x="698" y="212" on="0"/>
        <pt x="698" y="238" on="0"/>
        <pt x="680" y="256" on="0"/>
        <pt x="654" y="256" on="0"/>
        <pt x="645" y="247" on="1"/>
        <pt x="531" y="134" on="1"/>
        <pt x="531" y="642" on="1"/>
        <pt x="531" y="655" on="0"/>
        <pt x="513" y="673" on="0"/>
        <pt x="487" y="673" on="0"/>
        <pt x="469" y="655" on="0"/>
        <pt x="469" y="642" on="1"/>
        <pt x="469" y="134" on="1"/>
        <pt x="355" y="247" on="1"/>
        <pt x="346" y="256" on="0"/>
        <pt x="320" y="256" on="0"/>
        <pt x="302" y="238" on="0"/>
        <pt x="302" y="212" on="0"/>
        <pt x="311" y="203" on="1"/>
      </contour>
    </TTGlyph>
    <TTGlyph name="arrowdownright" xMin="0" yMin="0" xMax="791" yMax="672">
      <contour>
        <pt x="791" y="91" on="1"/>
        <pt x="791" y="78" on="0"/>
        <pt x="773" y="59" on="0"/>
        <pt x="760" y="59" on="1"/>
        <pt x="288" y="59" on="1"/>
        <pt x="275" y="59" on="0"/>
        <pt x="257" y="78" on="0"/>
        <pt x="257" y="104" on="0"/>
        <pt x="275" y="122" on="0"/>
        <pt x="288" y="122" on="1"/>
        <pt x="684" y="122" on="1"/>
        <pt x="187" y="618" on="1"/>
        <pt x="178" y="628" on="0"/>
        <pt x="178" y="653" on="0"/>
        <pt x="197" y="672" on="0"/>
        <pt x="222" y="672" on="0"/>
        <pt x="232" y="663" on="1"/>
        <pt x="728" y="166" on="1"/>
        <pt x="728" y="562" on="1"/>
        <pt x="728" y="575" on="0"/>
        <pt x="747" y="593" on="0"/>
        <pt x="773" y="593" on="0"/>
        <pt x="791" y="575" on="0"/>
        <pt x="791" y="562" on="1"/>
      </contour>
    </TTGlyph>
    <TTGlyph name="arrowdowntoline" xMin="0" yMin="0" xMax="823" yMax="715">
      <contour>
        <pt x="730" y="370" on="1"/>
        <pt x="522" y="161" on="1"/>
        <pt x="513" y="152" on="0"/>
        <pt x="487" y="152" on="0"/>
        <pt x="478" y="161" on="1"/>
        <pt x="270" y="370" on="1"/>
        <pt x="260" y="379" on="0"/>
        <pt x="260" y="405" on="0"/>
        <pt x="279" y="423" on="0"/>
        <pt x="305" y="423" on="0"/>
        <pt x="314" y="414" on="1"/>
        <pt x="469" y="259" on="1"/>
        <pt x="469" y="683" on="1"/>
        <pt x="469" y="696" on="0"/>
        <pt x="487" y="715" on="0"/>
        <pt x="513" y="715" on="0"/>
        <pt x="531" y="696" on="0"/>
        <pt x="531" y="683" on="1"/>
        <pt x="531" y="259" on="1"/>
        <pt x="686" y="414" on="1"/>
        <pt x="695" y="423" on="0"/>
        <pt x="721" y="423" on="0"/>
        <pt x="740" y="405" on="0"/>
        <pt x="740" y="379" on="0"/>
      </contour>
      <contour>
        <pt x="208" y="90" on="1"/>
        <pt x="195" y="90" on="0"/>
        <pt x="177" y="71" on="0"/>
        <pt x="177" y="45" on="0"/>
        <pt x="195" y="27" on="0"/>
        <pt x="208" y="27" on="1"/>
        <pt x="792" y="27" on="1"/>
        <pt x="805" y="27" on="0"/>
        <pt x="823" y="45" on="0"/>
        <pt x="823" y="71" on="0"/>
        <pt x="805" y="90" on="0"/>
        <pt x="792" y="90" on="1"/>
      </contour>
    </TTGlyph>
    <TTGlyph name="arrowleft" xMin="0" yMin="0" xMax="823" yMax="631">
      <contour>
        <pt x="186" y="328" on="1"/>
        <pt x="177" y="337" on="0"/>
        <pt x="177" y="363" on="0"/>
        <pt x="186" y="372" on="1"/>
        <pt x="436" y="622" on="1"/>
        <pt x="445" y="631" on="0"/>
        <pt x="471" y="631" on="0"/>
        <pt x="490" y="613" on="0"/>
        <pt x="490" y="587" on="0"/>
        <pt x="480" y="578" on="1"/>
        <pt x="284" y="381" on="1"/>
        <pt x="792" y="381" on="1"/>
        <pt x="805" y="381" on="0"/>
        <pt x="823" y="363" on="0"/>
        <pt x="823" y="337" on="0"/>
        <pt x="805" y="319" on="0"/>
        <pt x="792" y="319" on="1"/>
        <pt x="284" y="319" on="1"/>
        <pt x="480" y="122" on="1"/>
        <pt x="490" y="113" on="0"/>
        <pt x="490" y="87" on="0"/>
        <pt x="471" y="69" on="0"/>
        <pt x="445" y="69" on="0"/>
        <pt x="436" y="78" on="1"/>
      </contour>
    </TTGlyph>
    <TTGlyph name="arrowleftnarrow" xMin="0" yMin="0" xMax="823" yMax="548">
      <contour>
        <pt x="186" y="328" on="1"/>
        <pt x="177" y="337" on="0"/>
        <pt x="177" y="363" on="0"/>
        <pt x="186" y="372" on="1"/>
        <pt x="353" y="539" on="1"/>
        <pt x="362" y="548" on="0"/>
        <pt x="388" y="548" on="0"/>
        <pt x="406" y="530" on="0"/>
        <pt x="406" y="504" on="0"/>
        <pt x="397" y="495" on="1"/>
        <pt x="284" y="381" on="1"/>
        <pt x="792" y="381" on="1"/>
        <pt x="805" y="381" on="0"/>
        <pt x="823" y="363" on="0"/>
        <pt x="823" y="337" on="0"/>
        <pt x="805" y="319" on="0"/>
        <pt x="792" y="319" on="1"/>
        <pt x="284" y="319" on="1"/>
        <pt x="397" y="205" on="1"/>
        <pt x="406" y="196" on="0"/>
        <pt x="406" y="170" on="0"/>
        <pt x="388" y="152" on="0"/>
        <pt x="362" y="152" on="0"/>
        <pt x="353" y="161" on="1"/>
      </contour>
    </TTGlyph>
    <TTGlyph name="arrowright" xMin="0" yMin="0" xMax="823" yMax="631">
      <contour>
        <pt x="814" y="372" on="1"/>
        <pt x="823" y="363" on="0"/>
        <pt x="823" y="337" on="0"/>
        <pt x="814" y="328" on="1"/>
        <pt x="564" y="78" on="1"/>
        <pt x="555" y="69" on="0"/>
        <pt x="529" y="69" on="0"/>
        <pt x="510" y="87" on="0"/>
        <pt x="510" y="113" on="0"/>
        <pt x="520" y="122" on="1"/>
        <pt x="716" y="319" on="1"/>
        <pt x="208" y="319" on="1"/>
        <pt x="195" y="319" on="0"/>
        <pt x="177" y="337" on="0"/>
        <pt x="177" y="363" on="0"/>
        <pt x="195" y="381" on="0"/>
        <pt x="208" y="381" on="1"/>
        <pt x="716" y="381" on="1"/>
        <pt x="520" y="578" on="1"/>
        <pt x="510" y="587" on="0"/>
        <pt x="510" y="613" on="0"/>
        <pt x="529" y="631" on="0"/>
        <pt x="555" y="631" on="0"/>
        <pt x="564" y="622" on="1"/>
      </contour>
    </TTGlyph>
    <TTGlyph name="arrowrightnarrow" xMin="0" yMin="0" xMax="823" yMax="548">
      <contour>
        <pt x="814" y="372" on="1"/>
        <pt x="823" y="363" on="0"/>
        <pt x="823" y="337" on="0"/>
        <pt x="814" y="328" on="1"/>
        <pt x="647" y="161" on="1"/>
        <pt x="638" y="152" on="0"/>
        <pt x="612" y="152" on="0"/>
        <pt x="594" y="170" on="0"/>
        <pt x="594" y="196" on="0"/>
        <pt x="603" y="205" on="1"/>
        <pt x="716" y="319" on="1"/>
        <pt x="208" y="319" on="1"/>
        <pt x="195" y="319" on="0"/>
        <pt x="177" y="337" on="0"/>
        <pt x="177" y="363" on="0"/>
        <pt x="195" y="381" on="0"/>
        <pt x="208" y="381" on="1"/>
        <pt x="716" y="381" on="1"/>
        <pt x="603" y="495" on="1"/>
        <pt x="594" y="504" on="0"/>
        <pt x="594" y="530" on="0"/>
        <pt x="612" y="548" on="0"/>
        <pt x="638" y="548" on="0"/>
        <pt x="647" y="539" on="1"/>
      </contour>
    </TTGlyph>
    <TTGlyph name="arrowsplitupleft" xMin="0" yMin="-56" xMax="865" yMax="756">
      <contour>
        <pt x="375" y="756" on="1"/>
        <pt x="388" y="756" on="0"/>
        <pt x="406" y="738" on="0"/>
        <pt x="406" y="712" on="0"/>
        <pt x="388" y="694" on="0"/>
        <pt x="375" y="694" on="1"/>
        <pt x="242" y="694" on="1"/>
        <pt x="503" y="433" on="1"/>
        <pt x="537" y="399" on="0"/>
        <pt x="573" y="311" on="0"/>
        <pt x="573" y="264" on="1"/>
        <pt x="573" y="-25" on="1"/>
        <pt x="573" y="-38" on="0"/>
        <pt x="555" y="-56" on="0"/>
        <pt x="529" y="-56" on="0"/>
        <pt x="510" y="-38" on="0"/>
        <pt x="510" y="-25" on="1"/>
        <pt x="510" y="264" on="1"/>
        <pt x="510" y="299" on="0"/>
        <pt x="484" y="364" on="0"/>
        <pt x="459" y="389" on="1"/>
        <pt x="198" y="650" on="1"/>
        <pt x="198" y="517" on="1"/>
        <pt x="198" y="504" on="0"/>
        <pt x="180" y="485" on="0"/>
        <pt x="154" y="485" on="0"/>
        <pt x="135" y="504" on="0"/>
        <pt x="135" y="517" on="1"/>
        <pt x="135" y="725" on="1"/>
        <pt x="135" y="737" on="0"/>
        <pt x="145" y="747" on="1"/>
        <pt x="153" y="756" on="0"/>
        <pt x="167" y="756" on="1"/>
      </contour>
      <contour>
        <pt x="646" y="485" on="1"/>
        <pt x="659" y="485" on="0"/>
        <pt x="677" y="467" on="0"/>
        <pt x="677" y="441" on="0"/>
        <pt x="659" y="423" on="0"/>
        <pt x="633" y="423" on="0"/>
        <pt x="615" y="441" on="0"/>
        <pt x="615" y="467" on="0"/>
        <pt x="633" y="485" on="0"/>
      </contour>
      <contour>
        <pt x="865" y="642" on="1"/>
        <pt x="865" y="655" on="0"/>
        <pt x="846" y="673" on="0"/>
        <pt x="820" y="673" on="0"/>
        <pt x="802" y="655" on="0"/>
        <pt x="802" y="629" on="0"/>
        <pt x="820" y="610" on="0"/>
        <pt x="847" y="610" on="0"/>
        <pt x="865" y="629" on="0"/>
      </contour>
      <contour>
        <pt x="740" y="579" on="1"/>
        <pt x="753" y="579" on="0"/>
        <pt x="771" y="561" on="0"/>
        <pt x="771" y="535" on="0"/>
        <pt x="753" y="517" on="0"/>
        <pt x="727" y="517" on="0"/>
        <pt x="708" y="535" on="0"/>
        <pt x="708" y="561" on="0"/>
        <pt x="727" y="579" on="0"/>
      </contour>
    </TTGlyph>
    <TTGlyph name="arrowsplitupright" xMin="0" yMin="-56" xMax="865" yMax="756">
      <contour>
        <pt x="625" y="756" on="1"/>
        <pt x="612" y="756" on="0"/>
        <pt x="594" y="738" on="0"/>
        <pt x="594" y="712" on="0"/>
        <pt x="612" y="694" on="0"/>
        <pt x="625" y="694" on="1"/>
        <pt x="758" y="694" on="1"/>
        <pt x="497" y="433" on="1"/>
        <pt x="463" y="399" on="0"/>
        <pt x="427" y="311" on="0"/>
        <pt x="427" y="264" on="1"/>
        <pt x="427" y="-25" on="1"/>
        <pt x="427" y="-38" on="0"/>
        <pt x="445" y="-56" on="0"/>
        <pt x="471" y="-56" on="0"/>
        <pt x="490" y="-38" on="0"/>
        <pt x="490" y="-25" on="1"/>
        <pt x="490" y="264" on="1"/>
        <pt x="490" y="299" on="0"/>
        <pt x="516" y="364" on="0"/>
        <pt x="541" y="389" on="1"/>
        <pt x="802" y="650" on="1"/>
        <pt x="802" y="517" on="1"/>
        <pt x="802" y="504" on="0"/>
        <pt x="820" y="485" on="0"/>
        <pt x="847" y="485" on="0"/>
        <pt x="865" y="504" on="0"/>
        <pt x="865" y="517" on="1"/>
        <pt x="865" y="725" on="1"/>
        <pt x="865" y="737" on="0"/>
        <pt x="855" y="747" on="1"/>
        <pt x="848" y="756" on="0"/>
        <pt x="833" y="756" on="1"/>
      </contour>
      <contour>
        <pt x="354" y="485" on="1"/>
        <pt x="341" y="485" on="0"/>
        <pt x="323" y="467" on="0"/>
        <pt x="323" y="441" on="0"/>
        <pt x="341" y="423" on="0"/>
        <pt x="367" y="423" on="0"/>
        <pt x="385" y="441" on="0"/>
        <pt x="385" y="467" on="0"/>
        <pt x="367" y="485" on="0"/>
      </contour>
      <contour>
        <pt x="135" y="642" on="1"/>
        <pt x="135" y="655" on="0"/>
        <pt x="154" y="673" on="0"/>
        <pt x="180" y="673" on="0"/>
        <pt x="198" y="655" on="0"/>
        <pt x="198" y="629" on="0"/>
        <pt x="180" y="610" on="0"/>
        <pt x="154" y="610" on="0"/>
        <pt x="135" y="629" on="0"/>
      </contour>
      <contour>
        <pt x="260" y="579" on="1"/>
        <pt x="247" y="579" on="0"/>
        <pt x="229" y="561" on="0"/>
        <pt x="229" y="535" on="0"/>
        <pt x="247" y="517" on="0"/>
        <pt x="273" y="517" on="0"/>
        <pt x="292" y="535" on="0"/>
        <pt x="292" y="561" on="0"/>
        <pt x="273" y="579" on="0"/>
      </contour>
    </TTGlyph>
    <TTGlyph name="arrowup" xMin="0" yMin="0" xMax="781" yMax="673">
      <contour>
        <pt x="478" y="664" on="1"/>
        <pt x="487" y="673" on="0"/>
        <pt x="513" y="673" on="0"/>
        <pt x="522" y="664" on="1"/>
        <pt x="772" y="414" on="1"/>
        <pt x="781" y="405" on="0"/>
        <pt x="781" y="379" on="0"/>
        <pt x="763" y="360" on="0"/>
        <pt x="737" y="360" on="0"/>
        <pt x="728" y="370" on="1"/>
        <pt x="531" y="566" on="1"/>
        <pt x="531" y="58" on="1"/>
        <pt x="531" y="45" on="0"/>
        <pt x="513" y="27" on="0"/>
        <pt x="487" y="27" on="0"/>
        <pt x="469" y="45" on="0"/>
        <pt x="469" y="58" on="1"/>
        <pt x="469" y="566" on="1"/>
        <pt x="272" y="370" on="1"/>
        <pt x="263" y="360" on="0"/>
        <pt x="237" y="360" on="0"/>
        <pt x="219" y="379" on="0"/>
        <pt x="219" y="405" on="0"/>
        <pt x="228" y="414" on="1"/>
      </contour>
    </TTGlyph>
    <TTGlyph name="arrowupfromline" xMin="0" yMin="0" xMax="823" yMax="715">
      <contour>
        <pt x="478" y="705" on="1"/>
        <pt x="487" y="715" on="0"/>
        <pt x="513" y="715" on="0"/>
        <pt x="522" y="705" on="1"/>
        <pt x="730" y="497" on="1"/>
        <pt x="740" y="488" on="0"/>
        <pt x="740" y="462" on="0"/>
        <pt x="721" y="444" on="0"/>
        <pt x="695" y="444" on="0"/>
        <pt x="686" y="453" on="1"/>
        <pt x="531" y="608" on="1"/>
        <pt x="531" y="183" on="1"/>
        <pt x="531" y="170" on="0"/>
        <pt x="513" y="152" on="0"/>
        <pt x="487" y="152" on="0"/>
        <pt x="469" y="170" on="0"/>
        <pt x="469" y="183" on="1"/>
        <pt x="469" y="608" on="1"/>
        <pt x="314" y="453" on="1"/>
        <pt x="305" y="444" on="0"/>
        <pt x="279" y="444" on="0"/>
        <pt x="260" y="462" on="0"/>
        <pt x="260" y="488" on="0"/>
        <pt x="270" y="497" on="1"/>
      </contour>
      <contour>
        <pt x="208" y="90" on="1"/>
        <pt x="195" y="90" on="0"/>
        <pt x="177" y="71" on="0"/>
        <pt x="177" y="45" on="0"/>
        <pt x="195" y="27" on="0"/>
        <pt x="208" y="27" on="1"/>
        <pt x="792" y="27" on="1"/>
        <pt x="805" y="27" on="0"/>
        <pt x="823" y="45" on="0"/>
        <pt x="823" y="71" on="0"/>
        <pt x="805" y="90" on="0"/>
        <pt x="792" y="90" on="1"/>
      </contour>
    </TTGlyph>
    <TTGlyph name="arrowupleft" xMin="0" yMin="0" xMax="791" yMax="672">
      <contour>
        <pt x="178" y="641" on="1"/>
        <pt x="178" y="654" on="0"/>
        <pt x="197" y="672" on="0"/>
        <pt x="210" y="672" on="1"/>
        <pt x="681" y="672" on="1"/>
        <pt x="694" y="672" on="0"/>
        <pt x="712" y="654" on="0"/>
        <pt x="712" y="628" on="0"/>
        <pt x="694" y="609" on="0"/>
        <pt x="681" y="609" on="1"/>
        <pt x="285" y="609" on="1"/>
        <pt x="782" y="113" on="1"/>
        <pt x="791" y="103" on="0"/>
        <pt x="791" y="78" on="0"/>
        <pt x="772" y="59" on="0"/>
        <pt x="747" y="59" on="0"/>
        <pt x="737" y="68" on="1"/>
        <pt x="241" y="565" on="1"/>
        <pt x="241" y="169" on="1"/>
        <pt x="241" y="156" on="0"/>
        <pt x="223" y="138" on="0"/>
        <pt x="197" y="138" on="0"/>
        <pt x="178" y="156" on="0"/>
        <pt x="178" y="169" on="1"/>
      </contour>
    </TTGlyph>
    <TTGlyph name="arrowupnarrow" xMin="0" yMin="0" xMax="698" yMax="673">
      <contour>
        <pt x="478" y="664" on="1"/>
        <pt x="487" y="673" on="0"/>
        <pt x="513" y="673" on="0"/>
        <pt x="522" y="664" on="1"/>
        <pt x="689" y="497" on="1"/>
        <pt x="698" y="488" on="0"/>
        <pt x="698" y="462" on="0"/>
        <pt x="680" y="444" on="0"/>
        <pt x="654" y="444" on="0"/>
        <pt x="645" y="453" on="1"/>
        <pt x="531" y="566" on="1"/>
        <pt x="531" y="58" on="1"/>
        <pt x="531" y="45" on="0"/>
        <pt x="513" y="27" on="0"/>
        <pt x="487" y="27" on="0"/>
        <pt x="469" y="45" on="0"/>
        <pt x="469" y="58" on="1"/>
        <pt x="469" y="566" on="1"/>
        <pt x="355" y="453" on="1"/>
        <pt x="346" y="444" on="0"/>
        <pt x="320" y="444" on="0"/>
        <pt x="302" y="462" on="0"/>
        <pt x="302" y="488" on="0"/>
        <pt x="311" y="497" on="1"/>
      </contour>
    </TTGlyph>
    <TTGlyph name="arrowupright" xMin="0" yMin="0" xMax="791" yMax="672">
      <contour>
        <pt x="760" y="672" on="1"/>
        <pt x="773" y="672" on="0"/>
        <pt x="791" y="654" on="0"/>
        <pt x="791" y="641" on="1"/>
        <pt x="791" y="169" on="1"/>
        <pt x="791" y="156" on="0"/>
        <pt x="773" y="138" on="0"/>
        <pt x="747" y="138" on="0"/>
        <pt x="728" y="156" on="0"/>
        <pt x="728" y="169" on="1"/>
        <pt x="728" y="565" on="1"/>
        <pt x="232" y="68" on="1"/>
        <pt x="222" y="59" on="0"/>
        <pt x="197" y="59" on="0"/>
        <pt x="178" y="78" on="0"/>
        <pt x="178" y="103" on="0"/>
        <pt x="187" y="113" on="1"/>
        <pt x="684" y="609" on="1"/>
        <pt x="288" y="609" on="1"/>
        <pt x="275" y="609" on="0"/>
        <pt x="257" y="628" on="0"/>
        <pt x="257" y="654" on="0"/>
        <pt x="275" y="672" on="0"/>
        <pt x="288" y="672" on="1"/>
      </contour>
    </TTGlyph>
    <TTGlyph name="backspace" xMin="0" yMin="0" xMax="833" yMax="642">
      <contour>
        <pt x="355" y="642" on="1"/>
        <pt x="337" y="642" on="0"/>
        <pt x="306" y="625" on="0"/>
        <pt x="296" y="611" on="1"/>
        <pt x="142" y="399" on="1"/>
        <pt x="127" y="377" on="0"/>
        <pt x="127" y="323" on="0"/>
        <pt x="142" y="301" on="1"/>
        <pt x="296" y="89" on="1"/>
        <pt x="306" y="75" on="0"/>
        <pt x="337" y="58" on="0"/>
        <pt x="355" y="58" on="1"/>
        <pt x="760" y="58" on="1"/>
        <pt x="791" y="58" on="0"/>
        <pt x="833" y="101" on="0"/>
        <pt x="833" y="131" on="1"/>
        <pt x="833" y="569" on="1"/>
        <pt x="833" y="599" on="0"/>
        <pt x="791" y="642" on="0"/>
        <pt x="760" y="642" on="1"/>
      </contour>
      <contour>
        <pt x="346" y="575" on="1"/>
        <pt x="349" y="579" on="0"/>
        <pt x="355" y="579" on="1"/>
        <pt x="760" y="579" on="1"/>
        <pt x="765" y="579" on="0"/>
        <pt x="771" y="573" on="0"/>
        <pt x="771" y="569" on="1"/>
        <pt x="771" y="131" on="1"/>
        <pt x="771" y="127" on="0"/>
        <pt x="764" y="121" on="0"/>
        <pt x="760" y="121" on="1"/>
        <pt x="355" y="121" on="1"/>
        <pt x="349" y="121" on="0"/>
        <pt x="346" y="125" on="1"/>
        <pt x="193" y="338" on="1"/>
        <pt x="189" y="343" on="0"/>
        <pt x="189" y="357" on="0"/>
        <pt x="193" y="362" on="1"/>
      </contour>
      <contour>
        <pt x="668" y="476" on="1"/>
        <pt x="677" y="467" on="0"/>
        <pt x="677" y="441" on="0"/>
        <pt x="668" y="432" on="1"/>
        <pt x="586" y="350" on="1"/>
        <pt x="668" y="268" on="1"/>
        <pt x="677" y="259" on="0"/>
        <pt x="677" y="233" on="0"/>
        <pt x="659" y="215" on="0"/>
        <pt x="633" y="215" on="0"/>
        <pt x="624" y="224" on="1"/>
        <pt x="542" y="306" on="1"/>
        <pt x="460" y="224" on="1"/>
        <pt x="450" y="215" on="0"/>
        <pt x="425" y="215" on="0"/>
        <pt x="406" y="233" on="0"/>
        <pt x="406" y="259" on="0"/>
        <pt x="415" y="268" on="1"/>
        <pt x="498" y="350" on="1"/>
        <pt x="415" y="432" on="1"/>
        <pt x="406" y="441" on="0"/>
        <pt x="406" y="467" on="0"/>
        <pt x="425" y="486" on="0"/>
        <pt x="450" y="486" on="0"/>
        <pt x="460" y="476" on="1"/>
        <pt x="542" y="394" on="1"/>
        <pt x="624" y="476" on="1"/>
        <pt x="633" y="486" on="0"/>
        <pt x="659" y="486" on="0"/>
      </contour>
    </TTGlyph>
    <TTGlyph name="bank" xMin="0" yMin="-67" xMax="906" yMax="753">
      <contour>
        <pt x="525" y="747" on="1"/>
        <pt x="514" y="753" on="0"/>
        <pt x="486" y="753" on="0"/>
        <pt x="475" y="747" on="1"/>
        <pt x="121" y="550" on="1"/>
        <pt x="108" y="543" on="0"/>
        <pt x="94" y="518" on="0"/>
        <pt x="94" y="504" on="1"/>
        <pt x="94" y="454" on="1"/>
        <pt x="94" y="432" on="0"/>
        <pt x="124" y="402" on="0"/>
        <pt x="146" y="402" on="1"/>
        <pt x="219" y="402" on="1"/>
        <pt x="219" y="100" on="1"/>
        <pt x="125" y="100" on="1"/>
        <pt x="112" y="100" on="0"/>
        <pt x="94" y="82" on="0"/>
        <pt x="94" y="56" on="0"/>
        <pt x="112" y="38" on="0"/>
        <pt x="125" y="38" on="1"/>
        <pt x="875" y="38" on="1"/>
        <pt x="888" y="38" on="0"/>
        <pt x="906" y="56" on="0"/>
        <pt x="906" y="82" on="0"/>
        <pt x="888" y="100" on="0"/>
        <pt x="875" y="100" on="1"/>
        <pt x="781" y="100" on="1"/>
        <pt x="781" y="402" on="1"/>
        <pt x="854" y="402" on="1"/>
        <pt x="876" y="402" on="0"/>
        <pt x="906" y="432" on="0"/>
        <pt x="906" y="454" on="1"/>
        <pt x="906" y="504" on="1"/>
        <pt x="906" y="518" on="0"/>
        <pt x="892" y="543" on="0"/>
        <pt x="880" y="550" on="1"/>
      </contour>
      <contour>
        <pt x="281" y="100" on="1"/>
        <pt x="281" y="402" on="1"/>
        <pt x="323" y="402" on="1"/>
        <pt x="323" y="100" on="1"/>
      </contour>
      <contour>
        <pt x="385" y="100" on="1"/>
        <pt x="615" y="100" on="1"/>
        <pt x="615" y="402" on="1"/>
        <pt x="385" y="402" on="1"/>
      </contour>
      <contour>
        <pt x="719" y="402" on="1"/>
        <pt x="677" y="402" on="1"/>
        <pt x="677" y="100" on="1"/>
        <pt x="719" y="100" on="1"/>
      </contour>
      <contour>
        <pt x="156" y="465" on="1"/>
        <pt x="156" y="498" on="1"/>
        <pt x="500" y="689" on="1"/>
        <pt x="844" y="498" on="1"/>
        <pt x="844" y="465" on="1"/>
      </contour>
      <contour>
        <pt x="177" y="-35" on="1"/>
        <pt x="177" y="-22" on="0"/>
        <pt x="195" y="-4" on="0"/>
        <pt x="208" y="-4" on="1"/>
        <pt x="792" y="-4" on="1"/>
        <pt x="805" y="-4" on="0"/>
        <pt x="823" y="-22" on="0"/>
        <pt x="823" y="-48" on="0"/>
        <pt x="805" y="-67" on="0"/>
        <pt x="792" y="-67" on="1"/>
        <pt x="208" y="-67" on="1"/>
        <pt x="195" y="-67" on="0"/>
        <pt x="177" y="-48" on="0"/>
      </contour>
    </TTGlyph>
    <TTGlyph name="barcode" xMin="0" yMin="-16" xMax="866" yMax="715">
      <contour>
        <pt x="250" y="715" on="1"/>
        <pt x="219" y="715" on="0"/>
        <pt x="166" y="684" on="0"/>
        <pt x="135" y="631" on="0"/>
        <pt x="135" y="600" on="1"/>
        <pt x="135" y="475" on="1"/>
        <pt x="135" y="462" on="0"/>
        <pt x="154" y="444" on="0"/>
        <pt x="180" y="444" on="0"/>
        <pt x="198" y="462" on="0"/>
        <pt x="198" y="475" on="1"/>
        <pt x="198" y="600" on="1"/>
        <pt x="198" y="622" on="0"/>
        <pt x="228" y="652" on="0"/>
        <pt x="250" y="652" on="1"/>
        <pt x="375" y="652" on="1"/>
        <pt x="388" y="652" on="0"/>
        <pt x="406" y="670" on="0"/>
        <pt x="406" y="696" on="0"/>
        <pt x="388" y="715" on="0"/>
        <pt x="375" y="715" on="1"/>
      </contour>
      <contour>
        <pt x="750" y="-15" on="1"/>
        <pt x="781" y="-15" on="0"/>
        <pt x="834" y="16" on="0"/>
        <pt x="865" y="69" on="0"/>
        <pt x="865" y="100" on="1"/>
        <pt x="865" y="225" on="1"/>
        <pt x="865" y="238" on="0"/>
        <pt x="846" y="256" on="0"/>
        <pt x="820" y="256" on="0"/>
        <pt x="802" y="238" on="0"/>
        <pt x="802" y="225" on="1"/>
        <pt x="802" y="100" on="1"/>
        <pt x="802" y="78" on="0"/>
        <pt x="772" y="48" on="0"/>
        <pt x="750" y="48" on="1"/>
        <pt x="625" y="48" on="1"/>
        <pt x="612" y="48" on="0"/>
        <pt x="594" y="30" on="0"/>
        <pt x="594" y="4" on="0"/>
        <pt x="612" y="-15" on="0"/>
        <pt x="625" y="-15" on="1"/>
      </contour>
      <contour>
        <pt x="750" y="715" on="1"/>
        <pt x="781" y="715" on="0"/>
        <pt x="834" y="684" on="0"/>
        <pt x="865" y="631" on="0"/>
        <pt x="865" y="600" on="1"/>
        <pt x="865" y="475" on="1"/>
        <pt x="865" y="462" on="0"/>
        <pt x="846" y="444" on="0"/>
        <pt x="820" y="444" on="0"/>
        <pt x="802" y="462" on="0"/>
        <pt x="802" y="475" on="1"/>
        <pt x="802" y="600" on="1"/>
        <pt x="802" y="622" on="0"/>
        <pt x="772" y="652" on="0"/>
        <pt x="750" y="652" on="1"/>
        <pt x="625" y="652" on="1"/>
        <pt x="612" y="652" on="0"/>
        <pt x="594" y="670" on="0"/>
        <pt x="594" y="696" on="0"/>
        <pt x="612" y="715" on="0"/>
        <pt x="625" y="715" on="1"/>
      </contour>
      <contour>
        <pt x="135" y="100" on="1"/>
        <pt x="135" y="69" on="0"/>
        <pt x="166" y="16" on="0"/>
        <pt x="219" y="-15" on="0"/>
        <pt x="250" y="-15" on="1"/>
        <pt x="375" y="-15" on="1"/>
        <pt x="388" y="-15" on="0"/>
        <pt x="406" y="4" on="0"/>
        <pt x="406" y="30" on="0"/>
        <pt x="388" y="48" on="0"/>
        <pt x="375" y="48" on="1"/>
        <pt x="250" y="48" on="1"/>
        <pt x="228" y="48" on="0"/>
        <pt x="198" y="78" on="0"/>
        <pt x="198" y="100" on="1"/>
        <pt x="198" y="225" on="1"/>
        <pt x="198" y="238" on="0"/>
        <pt x="180" y="256" on="0"/>
        <pt x="154" y="256" on="0"/>
        <pt x="135" y="238" on="0"/>
        <pt x="135" y="225" on="1"/>
      </contour>
      <contour>
        <pt x="313" y="506" on="1"/>
        <pt x="326" y="506" on="0"/>
        <pt x="344" y="488" on="0"/>
        <pt x="344" y="475" on="1"/>
        <pt x="344" y="225" on="1"/>
        <pt x="344" y="212" on="0"/>
        <pt x="326" y="194" on="0"/>
        <pt x="300" y="194" on="0"/>
        <pt x="281" y="212" on="0"/>
        <pt x="281" y="225" on="1"/>
        <pt x="281" y="475" on="1"/>
        <pt x="281" y="488" on="0"/>
        <pt x="300" y="506" on="0"/>
      </contour>
      <contour>
        <pt x="469" y="475" on="1"/>
        <pt x="469" y="488" on="0"/>
        <pt x="451" y="506" on="0"/>
        <pt x="425" y="506" on="0"/>
        <pt x="406" y="488" on="0"/>
        <pt x="406" y="475" on="1"/>
        <pt x="406" y="225" on="1"/>
        <pt x="406" y="212" on="0"/>
        <pt x="425" y="194" on="0"/>
        <pt x="451" y="194" on="0"/>
        <pt x="469" y="212" on="0"/>
        <pt x="469" y="225" on="1"/>
      </contour>
      <contour>
        <pt x="563" y="506" on="1"/>
        <pt x="576" y="506" on="0"/>
        <pt x="594" y="488" on="0"/>
        <pt x="594" y="475" on="1"/>
        <pt x="594" y="225" on="1"/>
        <pt x="594" y="212" on="0"/>
        <pt x="576" y="194" on="0"/>
        <pt x="550" y="194" on="0"/>
        <pt x="531" y="212" on="0"/>
        <pt x="531" y="225" on="1"/>
        <pt x="531" y="475" on="1"/>
        <pt x="531" y="488" on="0"/>
        <pt x="550" y="506" on="0"/>
      </contour>
      <contour>
        <pt x="719" y="475" on="1"/>
        <pt x="719" y="488" on="0"/>
        <pt x="701" y="506" on="0"/>
        <pt x="675" y="506" on="0"/>
        <pt x="656" y="488" on="0"/>
        <pt x="656" y="475" on="1"/>
        <pt x="656" y="225" on="1"/>
        <pt x="656" y="212" on="0"/>
        <pt x="675" y="194" on="0"/>
        <pt x="701" y="194" on="0"/>
        <pt x="719" y="212" on="0"/>
        <pt x="719" y="225" on="1"/>
      </contour>
    </TTGlyph>
    <TTGlyph name="barrel" xMin="0" yMin="-56" xMax="833" yMax="756">
      <contour>
        <pt x="167" y="725" on="1"/>
        <pt x="167" y="738" on="0"/>
        <pt x="185" y="756" on="0"/>
        <pt x="198" y="756" on="1"/>
        <pt x="802" y="756" on="1"/>
        <pt x="815" y="756" on="0"/>
        <pt x="833" y="738" on="0"/>
        <pt x="833" y="712" on="0"/>
        <pt x="815" y="694" on="0"/>
        <pt x="802" y="694" on="1"/>
        <pt x="781" y="694" on="1"/>
        <pt x="781" y="381" on="1"/>
        <pt x="802" y="381" on="1"/>
        <pt x="815" y="381" on="0"/>
        <pt x="833" y="363" on="0"/>
        <pt x="833" y="337" on="0"/>
        <pt x="815" y="319" on="0"/>
        <pt x="802" y="319" on="1"/>
        <pt x="781" y="319" on="1"/>
        <pt x="781" y="6" on="1"/>
        <pt x="802" y="6" on="1"/>
        <pt x="815" y="6" on="0"/>
        <pt x="833" y="-12" on="0"/>
        <pt x="833" y="-38" on="0"/>
        <pt x="815" y="-56" on="0"/>
        <pt x="802" y="-56" on="1"/>
        <pt x="198" y="-56" on="1"/>
        <pt x="185" y="-56" on="0"/>
        <pt x="167" y="-38" on="0"/>
        <pt x="167" y="-12" on="0"/>
        <pt x="185" y="6" on="0"/>
        <pt x="198" y="6" on="1"/>
        <pt x="219" y="6" on="1"/>
        <pt x="219" y="319" on="1"/>
        <pt x="198" y="319" on="1"/>
        <pt x="185" y="319" on="0"/>
        <pt x="167" y="337" on="0"/>
        <pt x="167" y="363" on="0"/>
        <pt x="185" y="381" on="0"/>
        <pt x="198" y="381" on="1"/>
        <pt x="219" y="381" on="1"/>
        <pt x="219" y="694" on="1"/>
        <pt x="198" y="694" on="1"/>
        <pt x="185" y="694" on="0"/>
        <pt x="167" y="712" on="0"/>
      </contour>
      <contour>
        <pt x="281" y="694" on="1"/>
        <pt x="281" y="381" on="1"/>
        <pt x="719" y="381" on="1"/>
        <pt x="719" y="694" on="1"/>
      </contour>
      <contour>
        <pt x="719" y="319" on="1"/>
        <pt x="500" y="319" on="1"/>
        <pt x="281" y="319" on="1"/>
        <pt x="281" y="6" on="1"/>
        <pt x="719" y="6" on="1"/>
      </contour>
    </TTGlyph>
    <TTGlyph name="barrelliquid" xMin="0" yMin="-56" xMax="833" yMax="756">
      <contour>
        <pt x="198" y="756" on="1"/>
        <pt x="185" y="756" on="0"/>
        <pt x="167" y="738" on="0"/>
        <pt x="167" y="712" on="0"/>
        <pt x="185" y="694" on="0"/>
        <pt x="198" y="694" on="1"/>
        <pt x="219" y="694" on="1"/>
        <pt x="219" y="381" on="1"/>
        <pt x="198" y="381" on="1"/>
        <pt x="185" y="381" on="0"/>
        <pt x="167" y="363" on="0"/>
        <pt x="167" y="337" on="0"/>
        <pt x="185" y="319" on="0"/>
        <pt x="198" y="319" on="1"/>
        <pt x="219" y="319" on="1"/>
        <pt x="219" y="6" on="1"/>
        <pt x="198" y="6" on="1"/>
        <pt x="185" y="6" on="0"/>
        <pt x="167" y="-12" on="0"/>
        <pt x="167" y="-38" on="0"/>
        <pt x="185" y="-56" on="0"/>
        <pt x="198" y="-56" on="1"/>
        <pt x="802" y="-56" on="1"/>
        <pt x="815" y="-56" on="0"/>
        <pt x="833" y="-38" on="0"/>
        <pt x="833" y="-12" on="0"/>
        <pt x="815" y="6" on="0"/>
        <pt x="802" y="6" on="1"/>
        <pt x="781" y="6" on="1"/>
        <pt x="781" y="319" on="1"/>
        <pt x="802" y="319" on="1"/>
        <pt x="815" y="319" on="0"/>
        <pt x="833" y="337" on="0"/>
        <pt x="833" y="363" on="0"/>
        <pt x="815" y="381" on="0"/>
        <pt x="802" y="381" on="1"/>
        <pt x="781" y="381" on="1"/>
        <pt x="781" y="694" on="1"/>
        <pt x="802" y="694" on="1"/>
        <pt x="815" y="694" on="0"/>
        <pt x="833" y="712" on="0"/>
        <pt x="833" y="738" on="0"/>
        <pt x="815" y="756" on="0"/>
        <pt x="802" y="756" on="1"/>
      </contour>
      <contour>
        <pt x="281" y="350" on="1"/>
        <pt x="281" y="694" on="1"/>
        <pt x="719" y="694" on="1"/>
        <pt x="719" y="6" on="1"/>
        <pt x="281" y="6" on="1"/>
      </contour>
      <contour>
        <pt x="500" y="204" on="1"/>
        <pt x="540" y="204" on="0"/>
        <pt x="569" y="223" on="1"/>
        <pt x="596" y="240" on="0"/>
        <pt x="625" y="297" on="0"/>
        <pt x="625" y="329" on="1"/>
        <pt x="625" y="365" on="0"/>
        <pt x="605" y="402" on="1"/>
        <pt x="590" y="432" on="0"/>
        <pt x="563" y="462" on="1"/>
        <pt x="543" y="483" on="0"/>
        <pt x="520" y="502" on="1"/>
        <pt x="500" y="517" on="1"/>
        <pt x="480" y="502" on="1"/>
        <pt x="457" y="483" on="0"/>
        <pt x="438" y="462" on="1"/>
        <pt x="410" y="432" on="0"/>
        <pt x="395" y="402" on="1"/>
        <pt x="375" y="365" on="0"/>
        <pt x="375" y="329" on="1"/>
        <pt x="375" y="297" on="0"/>
        <pt x="404" y="240" on="0"/>
        <pt x="431" y="223" on="1"/>
        <pt x="460" y="204" on="0"/>
      </contour>
    </TTGlyph>
    <TTGlyph name="barshorizontaldouble" xMin="0" yMin="0" xMax="823" yMax="631">
      <contour>
        <pt x="177" y="142" on="1"/>
        <pt x="177" y="111" on="0"/>
        <pt x="220" y="69" on="0"/>
        <pt x="250" y="69" on="1"/>
        <pt x="750" y="69" on="1"/>
        <pt x="780" y="69" on="0"/>
        <pt x="823" y="111" on="0"/>
        <pt x="823" y="142" on="1"/>
        <pt x="823" y="225" on="1"/>
        <pt x="823" y="255" on="0"/>
        <pt x="780" y="298" on="0"/>
        <pt x="750" y="298" on="1"/>
        <pt x="250" y="298" on="1"/>
        <pt x="220" y="298" on="0"/>
        <pt x="177" y="255" on="0"/>
        <pt x="177" y="225" on="1"/>
      </contour>
      <contour>
        <pt x="250" y="131" on="1"/>
        <pt x="246" y="131" on="0"/>
        <pt x="240" y="137" on="0"/>
        <pt x="240" y="142" on="1"/>
        <pt x="240" y="225" on="1"/>
        <pt x="240" y="230" on="0"/>
        <pt x="246" y="235" on="0"/>
        <pt x="250" y="235" on="1"/>
        <pt x="750" y="235" on="1"/>
        <pt x="755" y="235" on="0"/>
        <pt x="760" y="230" on="0"/>
        <pt x="760" y="225" on="1"/>
        <pt x="760" y="142" on="1"/>
        <pt x="760" y="137" on="0"/>
        <pt x="754" y="131" on="0"/>
        <pt x="750" y="131" on="1"/>
      </contour>
      <contour>
        <pt x="177" y="475" on="1"/>
        <pt x="177" y="445" on="0"/>
        <pt x="220" y="402" on="0"/>
        <pt x="250" y="402" on="1"/>
        <pt x="750" y="402" on="1"/>
        <pt x="780" y="402" on="0"/>
        <pt x="823" y="445" on="0"/>
        <pt x="823" y="475" on="1"/>
        <pt x="823" y="558" on="1"/>
        <pt x="823" y="589" on="0"/>
        <pt x="780" y="631" on="0"/>
        <pt x="750" y="631" on="1"/>
        <pt x="250" y="631" on="1"/>
        <pt x="220" y="631" on="0"/>
        <pt x="177" y="589" on="0"/>
        <pt x="177" y="558" on="1"/>
      </contour>
      <contour>
        <pt x="250" y="465" on="1"/>
        <pt x="246" y="465" on="0"/>
        <pt x="240" y="471" on="0"/>
        <pt x="240" y="475" on="1"/>
        <pt x="240" y="558" on="1"/>
        <pt x="240" y="563" on="0"/>
        <pt x="246" y="569" on="0"/>
        <pt x="250" y="569" on="1"/>
        <pt x="750" y="569" on="1"/>
        <pt x="754" y="569" on="0"/>
        <pt x="760" y="563" on="0"/>
        <pt x="760" y="558" on="1"/>
        <pt x="760" y="475" on="1"/>
        <pt x="760" y="471" on="0"/>
        <pt x="755" y="465" on="0"/>
        <pt x="750" y="465" on="1"/>
      </contour>
    </TTGlyph>
    <TTGlyph name="barsverticaldouble" xMin="0" yMin="0" xMax="781" yMax="673">
      <contour>
        <pt x="292" y="673" on="1"/>
        <pt x="261" y="673" on="0"/>
        <pt x="219" y="630" on="0"/>
        <pt x="219" y="600" on="1"/>
        <pt x="219" y="100" on="1"/>
        <pt x="219" y="70" on="0"/>
        <pt x="261" y="27" on="0"/>
        <pt x="292" y="27" on="1"/>
        <pt x="375" y="27" on="1"/>
        <pt x="405" y="27" on="0"/>
        <pt x="448" y="70" on="0"/>
        <pt x="448" y="100" on="1"/>
        <pt x="448" y="600" on="1"/>
        <pt x="448" y="630" on="0"/>
        <pt x="405" y="673" on="0"/>
        <pt x="375" y="673" on="1"/>
      </contour>
      <contour>
        <pt x="281" y="600" on="1"/>
        <pt x="281" y="604" on="0"/>
        <pt x="287" y="610" on="0"/>
        <pt x="292" y="610" on="1"/>
        <pt x="375" y="610" on="1"/>
        <pt x="380" y="610" on="0"/>
        <pt x="385" y="605" on="0"/>
        <pt x="385" y="600" on="1"/>
        <pt x="385" y="100" on="1"/>
        <pt x="385" y="96" on="0"/>
        <pt x="380" y="90" on="0"/>
        <pt x="375" y="90" on="1"/>
        <pt x="292" y="90" on="1"/>
        <pt x="287" y="90" on="0"/>
        <pt x="281" y="96" on="0"/>
        <pt x="281" y="100" on="1"/>
      </contour>
      <contour>
        <pt x="625" y="673" on="1"/>
        <pt x="595" y="673" on="0"/>
        <pt x="552" y="630" on="0"/>
        <pt x="552" y="600" on="1"/>
        <pt x="552" y="100" on="1"/>
        <pt x="552" y="70" on="0"/>
        <pt x="595" y="27" on="0"/>
        <pt x="625" y="27" on="1"/>
        <pt x="708" y="27" on="1"/>
        <pt x="739" y="27" on="0"/>
        <pt x="781" y="70" on="0"/>
        <pt x="781" y="100" on="1"/>
        <pt x="781" y="600" on="1"/>
        <pt x="781" y="630" on="0"/>
        <pt x="739" y="673" on="0"/>
        <pt x="708" y="673" on="1"/>
      </contour>
      <contour>
        <pt x="615" y="600" on="1"/>
        <pt x="615" y="605" on="0"/>
        <pt x="621" y="610" on="0"/>
        <pt x="625" y="610" on="1"/>
        <pt x="708" y="610" on="1"/>
        <pt x="713" y="610" on="0"/>
        <pt x="719" y="604" on="0"/>
        <pt x="719" y="600" on="1"/>
        <pt x="719" y="100" on="1"/>
        <pt x="719" y="96" on="0"/>
        <pt x="713" y="90" on="0"/>
        <pt x="708" y="90" on="1"/>
        <pt x="625" y="90" on="1"/>
        <pt x="621" y="90" on="0"/>
        <pt x="615" y="96" on="0"/>
        <pt x="615" y="100" on="1"/>
      </contour>
    </TTGlyph>
    <TTGlyph name="battery" xMin="0" yMin="-35" xMax="741" yMax="746">
      <contour>
        <pt x="406" y="746" on="1"/>
        <pt x="393" y="746" on="0"/>
        <pt x="375" y="728" on="0"/>
        <pt x="375" y="702" on="0"/>
        <pt x="393" y="683" on="0"/>
        <pt x="406" y="683" on="1"/>
        <pt x="594" y="683" on="1"/>
        <pt x="607" y="683" on="0"/>
        <pt x="625" y="702" on="0"/>
        <pt x="625" y="728" on="0"/>
        <pt x="607" y="746" on="0"/>
        <pt x="594" y="746" on="1"/>
      </contour>
      <contour>
        <pt x="406" y="517" on="1"/>
        <pt x="393" y="517" on="0"/>
        <pt x="375" y="498" on="0"/>
        <pt x="375" y="472" on="0"/>
        <pt x="393" y="454" on="0"/>
        <pt x="406" y="454" on="1"/>
        <pt x="594" y="454" on="1"/>
        <pt x="607" y="454" on="0"/>
        <pt x="625" y="472" on="0"/>
        <pt x="625" y="498" on="0"/>
        <pt x="607" y="517" on="0"/>
        <pt x="594" y="517" on="1"/>
      </contour>
      <contour>
        <pt x="375" y="360" on="1"/>
        <pt x="375" y="373" on="0"/>
        <pt x="393" y="392" on="0"/>
        <pt x="406" y="392" on="1"/>
        <pt x="594" y="392" on="1"/>
        <pt x="607" y="392" on="0"/>
        <pt x="625" y="373" on="0"/>
        <pt x="625" y="347" on="0"/>
        <pt x="607" y="329" on="0"/>
        <pt x="594" y="329" on="1"/>
        <pt x="406" y="329" on="1"/>
        <pt x="393" y="329" on="0"/>
        <pt x="375" y="347" on="0"/>
      </contour>
      <contour>
        <pt x="406" y="142" on="1"/>
        <pt x="393" y="142" on="0"/>
        <pt x="375" y="123" on="0"/>
        <pt x="375" y="97" on="0"/>
        <pt x="393" y="79" on="0"/>
        <pt x="406" y="79" on="1"/>
        <pt x="594" y="79" on="1"/>
        <pt x="607" y="79" on="0"/>
        <pt x="625" y="97" on="0"/>
        <pt x="625" y="123" on="0"/>
        <pt x="607" y="142" on="0"/>
        <pt x="594" y="142" on="1"/>
      </contour>
      <contour>
        <pt x="375" y="235" on="1"/>
        <pt x="375" y="248" on="0"/>
        <pt x="393" y="267" on="0"/>
        <pt x="406" y="267" on="1"/>
        <pt x="594" y="267" on="1"/>
        <pt x="607" y="267" on="0"/>
        <pt x="625" y="248" on="0"/>
        <pt x="625" y="222" on="0"/>
        <pt x="607" y="204" on="0"/>
        <pt x="594" y="204" on="1"/>
        <pt x="406" y="204" on="1"/>
        <pt x="393" y="204" on="0"/>
        <pt x="375" y="222" on="0"/>
      </contour>
      <contour>
        <pt x="375" y="631" on="1"/>
        <pt x="344" y="631" on="0"/>
        <pt x="291" y="600" on="0"/>
        <pt x="260" y="548" on="0"/>
        <pt x="260" y="517" on="1"/>
        <pt x="260" y="79" on="1"/>
        <pt x="260" y="48" on="0"/>
        <pt x="291" y="-4" on="0"/>
        <pt x="344" y="-35" on="0"/>
        <pt x="375" y="-35" on="1"/>
        <pt x="625" y="-35" on="1"/>
        <pt x="656" y="-35" on="0"/>
        <pt x="709" y="-4" on="0"/>
        <pt x="740" y="48" on="0"/>
        <pt x="740" y="79" on="1"/>
        <pt x="740" y="517" on="1"/>
        <pt x="740" y="548" on="0"/>
        <pt x="709" y="600" on="0"/>
        <pt x="656" y="631" on="0"/>
        <pt x="625" y="631" on="1"/>
      </contour>
      <contour>
        <pt x="323" y="517" on="1"/>
        <pt x="323" y="538" on="0"/>
        <pt x="353" y="569" on="0"/>
        <pt x="375" y="569" on="1"/>
        <pt x="625" y="569" on="1"/>
        <pt x="647" y="569" on="0"/>
        <pt x="677" y="538" on="0"/>
        <pt x="677" y="517" on="1"/>
        <pt x="677" y="79" on="1"/>
        <pt x="677" y="57" on="0"/>
        <pt x="647" y="27" on="0"/>
        <pt x="625" y="27" on="1"/>
        <pt x="375" y="27" on="1"/>
        <pt x="353" y="27" on="0"/>
        <pt x="323" y="57" on="0"/>
        <pt x="323" y="79" on="1"/>
      </contour>
    </TTGlyph>
    <TTGlyph name="battery_25" xMin="0" yMin="-35" xMax="741" yMax="746">
      <contour>
        <pt x="375" y="715" on="1"/>
        <pt x="375" y="728" on="0"/>
        <pt x="393" y="746" on="0"/>
        <pt x="406" y="746" on="1"/>
        <pt x="594" y="746" on="1"/>
        <pt x="607" y="746" on="0"/>
        <pt x="625" y="728" on="0"/>
        <pt x="625" y="702" on="0"/>
        <pt x="607" y="683" on="0"/>
        <pt x="594" y="683" on="1"/>
        <pt x="406" y="683" on="1"/>
        <pt x="393" y="683" on="0"/>
        <pt x="375" y="702" on="0"/>
      </contour>
      <contour>
        <pt x="375" y="110" on="1"/>
        <pt x="375" y="123" on="0"/>
        <pt x="393" y="142" on="0"/>
        <pt x="406" y="142" on="1"/>
        <pt x="594" y="142" on="1"/>
        <pt x="607" y="142" on="0"/>
        <pt x="625" y="123" on="0"/>
        <pt x="625" y="97" on="0"/>
        <pt x="607" y="79" on="0"/>
        <pt x="594" y="79" on="1"/>
        <pt x="406" y="79" on="1"/>
        <pt x="393" y="79" on="0"/>
        <pt x="375" y="97" on="0"/>
      </contour>
      <contour>
        <pt x="375" y="631" on="1"/>
        <pt x="344" y="631" on="0"/>
        <pt x="291" y="600" on="0"/>
        <pt x="260" y="548" on="0"/>
        <pt x="260" y="517" on="1"/>
        <pt x="260" y="79" on="1"/>
        <pt x="260" y="48" on="0"/>
        <pt x="291" y="-4" on="0"/>
        <pt x="344" y="-35" on="0"/>
        <pt x="375" y="-35" on="1"/>
        <pt x="625" y="-35" on="1"/>
        <pt x="656" y="-35" on="0"/>
        <pt x="709" y="-4" on="0"/>
        <pt x="740" y="48" on="0"/>
        <pt x="740" y="79" on="1"/>
        <pt x="740" y="517" on="1"/>
        <pt x="740" y="548" on="0"/>
        <pt x="709" y="600" on="0"/>
        <pt x="656" y="631" on="0"/>
        <pt x="625" y="631" on="1"/>
      </contour>
      <contour>
        <pt x="323" y="517" on="1"/>
        <pt x="323" y="538" on="0"/>
        <pt x="353" y="569" on="0"/>
        <pt x="375" y="569" on="1"/>
        <pt x="625" y="569" on="1"/>
        <pt x="647" y="569" on="0"/>
        <pt x="677" y="538" on="0"/>
        <pt x="677" y="517" on="1"/>
        <pt x="677" y="79" on="1"/>
        <pt x="677" y="57" on="0"/>
        <pt x="647" y="27" on="0"/>
        <pt x="625" y="27" on="1"/>
        <pt x="375" y="27" on="1"/>
        <pt x="353" y="27" on="0"/>
        <pt x="323" y="57" on="0"/>
        <pt x="323" y="79" on="1"/>
      </contour>
    </TTGlyph>
    <TTGlyph name="battery_50" xMin="0" yMin="-35" xMax="741" yMax="746">
      <contour>
        <pt x="406" y="746" on="1"/>
        <pt x="393" y="746" on="0"/>
        <pt x="375" y="728" on="0"/>
        <pt x="375" y="702" on="0"/>
        <pt x="393" y="683" on="0"/>
        <pt x="406" y="683" on="1"/>
        <pt x="594" y="683" on="1"/>
        <pt x="607" y="683" on="0"/>
        <pt x="625" y="702" on="0"/>
        <pt x="625" y="728" on="0"/>
        <pt x="607" y="746" on="0"/>
        <pt x="594" y="746" on="1"/>
      </contour>
      <contour>
        <pt x="406" y="142" on="1"/>
        <pt x="393" y="142" on="0"/>
        <pt x="375" y="123" on="0"/>
        <pt x="375" y="97" on="0"/>
        <pt x="393" y="79" on="0"/>
        <pt x="406" y="79" on="1"/>
        <pt x="594" y="79" on="1"/>
        <pt x="607" y="79" on="0"/>
        <pt x="625" y="97" on="0"/>
        <pt x="625" y="123" on="0"/>
        <pt x="607" y="142" on="0"/>
        <pt x="594" y="142" on="1"/>
      </contour>
      <contour>
        <pt x="375" y="235" on="1"/>
        <pt x="375" y="248" on="0"/>
        <pt x="393" y="267" on="0"/>
        <pt x="406" y="267" on="1"/>
        <pt x="594" y="267" on="1"/>
        <pt x="607" y="267" on="0"/>
        <pt x="625" y="248" on="0"/>
        <pt x="625" y="222" on="0"/>
        <pt x="607" y="204" on="0"/>
        <pt x="594" y="204" on="1"/>
        <pt x="406" y="204" on="1"/>
        <pt x="393" y="204" on="0"/>
        <pt x="375" y="222" on="0"/>
      </contour>
      <contour>
        <pt x="375" y="631" on="1"/>
        <pt x="344" y="631" on="0"/>
        <pt x="291" y="600" on="0"/>
        <pt x="260" y="548" on="0"/>
        <pt x="260" y="517" on="1"/>
        <pt x="260" y="79" on="1"/>
        <pt x="260" y="48" on="0"/>
        <pt x="291" y="-4" on="0"/>
        <pt x="344" y="-35" on="0"/>
        <pt x="375" y="-35" on="1"/>
        <pt x="625" y="-35" on="1"/>
        <pt x="656" y="-35" on="0"/>
        <pt x="709" y="-4" on="0"/>
        <pt x="740" y="48" on="0"/>
        <pt x="740" y="79" on="1"/>
        <pt x="740" y="517" on="1"/>
        <pt x="740" y="548" on="0"/>
        <pt x="709" y="600" on="0"/>
        <pt x="656" y="631" on="0"/>
        <pt x="625" y="631" on="1"/>
      </contour>
      <contour>
        <pt x="323" y="517" on="1"/>
        <pt x="323" y="538" on="0"/>
        <pt x="353" y="569" on="0"/>
        <pt x="375" y="569" on="1"/>
        <pt x="625" y="569" on="1"/>
        <pt x="647" y="569" on="0"/>
        <pt x="677" y="538" on="0"/>
        <pt x="677" y="517" on="1"/>
        <pt x="677" y="79" on="1"/>
        <pt x="677" y="57" on="0"/>
        <pt x="647" y="27" on="0"/>
        <pt x="625" y="27" on="1"/>
        <pt x="375" y="27" on="1"/>
        <pt x="353" y="27" on="0"/>
        <pt x="323" y="57" on="0"/>
        <pt x="323" y="79" on="1"/>
      </contour>
    </TTGlyph>
    <TTGlyph name="battery_75" xMin="0" yMin="-35" xMax="741" yMax="746">
      <contour>
        <pt x="375" y="715" on="1"/>
        <pt x="375" y="728" on="0"/>
        <pt x="393" y="746" on="0"/>
        <pt x="406" y="746" on="1"/>
        <pt x="594" y="746" on="1"/>
        <pt x="607" y="746" on="0"/>
        <pt x="625" y="728" on="0"/>
        <pt x="625" y="702" on="0"/>
        <pt x="607" y="683" on="0"/>
        <pt x="594" y="683" on="1"/>
        <pt x="406" y="683" on="1"/>
        <pt x="393" y="683" on="0"/>
        <pt x="375" y="702" on="0"/>
      </contour>
      <contour>
        <pt x="375" y="360" on="1"/>
        <pt x="375" y="373" on="0"/>
        <pt x="393" y="392" on="0"/>
        <pt x="406" y="392" on="1"/>
        <pt x="594" y="392" on="1"/>
        <pt x="607" y="392" on="0"/>
        <pt x="625" y="373" on="0"/>
        <pt x="625" y="347" on="0"/>
        <pt x="607" y="329" on="0"/>
        <pt x="594" y="329" on="1"/>
        <pt x="406" y="329" on="1"/>
        <pt x="393" y="329" on="0"/>
        <pt x="375" y="347" on="0"/>
      </contour>
      <contour>
        <pt x="406" y="142" on="1"/>
        <pt x="393" y="142" on="0"/>
        <pt x="375" y="123" on="0"/>
        <pt x="375" y="97" on="0"/>
        <pt x="393" y="79" on="0"/>
        <pt x="406" y="79" on="1"/>
        <pt x="594" y="79" on="1"/>
        <pt x="607" y="79" on="0"/>
        <pt x="625" y="97" on="0"/>
        <pt x="625" y="123" on="0"/>
        <pt x="607" y="142" on="0"/>
        <pt x="594" y="142" on="1"/>
      </contour>
      <contour>
        <pt x="375" y="235" on="1"/>
        <pt x="375" y="248" on="0"/>
        <pt x="393" y="267" on="0"/>
        <pt x="406" y="267" on="1"/>
        <pt x="594" y="267" on="1"/>
        <pt x="607" y="267" on="0"/>
        <pt x="625" y="248" on="0"/>
        <pt x="625" y="222" on="0"/>
        <pt x="607" y="204" on="0"/>
        <pt x="594" y="204" on="1"/>
        <pt x="406" y="204" on="1"/>
        <pt x="393" y="204" on="0"/>
        <pt x="375" y="222" on="0"/>
      </contour>
      <contour>
        <pt x="375" y="631" on="1"/>
        <pt x="344" y="631" on="0"/>
        <pt x="291" y="600" on="0"/>
        <pt x="260" y="548" on="0"/>
        <pt x="260" y="517" on="1"/>
        <pt x="260" y="79" on="1"/>
        <pt x="260" y="48" on="0"/>
        <pt x="291" y="-4" on="0"/>
        <pt x="344" y="-35" on="0"/>
        <pt x="375" y="-35" on="1"/>
        <pt x="625" y="-35" on="1"/>
        <pt x="656" y="-35" on="0"/>
        <pt x="709" y="-4" on="0"/>
        <pt x="740" y="48" on="0"/>
        <pt x="740" y="79" on="1"/>
        <pt x="740" y="517" on="1"/>
        <pt x="740" y="548" on="0"/>
        <pt x="709" y="600" on="0"/>
        <pt x="656" y="631" on="0"/>
        <pt x="625" y="631" on="1"/>
      </contour>
      <contour>
        <pt x="323" y="517" on="1"/>
        <pt x="323" y="538" on="0"/>
        <pt x="353" y="569" on="0"/>
        <pt x="375" y="569" on="1"/>
        <pt x="625" y="569" on="1"/>
        <pt x="647" y="569" on="0"/>
        <pt x="677" y="538" on="0"/>
        <pt x="677" y="517" on="1"/>
        <pt x="677" y="79" on="1"/>
        <pt x="677" y="57" on="0"/>
        <pt x="647" y="27" on="0"/>
        <pt x="625" y="27" on="1"/>
        <pt x="375" y="27" on="1"/>
        <pt x="353" y="27" on="0"/>
        <pt x="323" y="57" on="0"/>
        <pt x="323" y="79" on="1"/>
      </contour>
    </TTGlyph>
    <TTGlyph name="battery_empty" xMin="0" yMin="-35" xMax="741" yMax="746">
      <contour>
        <pt x="406" y="746" on="1"/>
        <pt x="393" y="746" on="0"/>
        <pt x="375" y="728" on="0"/>
        <pt x="375" y="702" on="0"/>
        <pt x="393" y="683" on="0"/>
        <pt x="406" y="683" on="1"/>
        <pt x="594" y="683" on="1"/>
        <pt x="607" y="683" on="0"/>
        <pt x="625" y="702" on="0"/>
        <pt x="625" y="728" on="0"/>
        <pt x="607" y="746" on="0"/>
        <pt x="594" y="746" on="1"/>
      </contour>
      <contour>
        <pt x="375" y="631" on="1"/>
        <pt x="344" y="631" on="0"/>
        <pt x="291" y="600" on="0"/>
        <pt x="260" y="548" on="0"/>
        <pt x="260" y="517" on="1"/>
        <pt x="260" y="79" on="1"/>
        <pt x="260" y="48" on="0"/>
        <pt x="291" y="-4" on="0"/>
        <pt x="344" y="-35" on="0"/>
        <pt x="375" y="-35" on="1"/>
        <pt x="625" y="-35" on="1"/>
        <pt x="656" y="-35" on="0"/>
        <pt x="709" y="-4" on="0"/>
        <pt x="740" y="48" on="0"/>
        <pt x="740" y="79" on="1"/>
        <pt x="740" y="517" on="1"/>
        <pt x="740" y="548" on="0"/>
        <pt x="709" y="600" on="0"/>
        <pt x="656" y="631" on="0"/>
        <pt x="625" y="631" on="1"/>
      </contour>
      <contour>
        <pt x="323" y="517" on="1"/>
        <pt x="323" y="538" on="0"/>
        <pt x="353" y="569" on="0"/>
        <pt x="375" y="569" on="1"/>
        <pt x="625" y="569" on="1"/>
        <pt x="647" y="569" on="0"/>
        <pt x="677" y="538" on="0"/>
        <pt x="677" y="517" on="1"/>
        <pt x="677" y="79" on="1"/>
        <pt x="677" y="57" on="0"/>
        <pt x="647" y="27" on="0"/>
        <pt x="625" y="27" on="1"/>
        <pt x="375" y="27" on="1"/>
        <pt x="353" y="27" on="0"/>
        <pt x="323" y="57" on="0"/>
        <pt x="323" y="79" on="1"/>
      </contour>
    </TTGlyph>
    <TTGlyph name="battery_warning" xMin="0" yMin="-35" xMax="741" yMax="746">
      <contour>
        <pt x="375" y="715" on="1"/>
        <pt x="375" y="728" on="0"/>
        <pt x="393" y="746" on="0"/>
        <pt x="406" y="746" on="1"/>
        <pt x="594" y="746" on="1"/>
        <pt x="607" y="746" on="0"/>
        <pt x="625" y="728" on="0"/>
        <pt x="625" y="702" on="0"/>
        <pt x="607" y="683" on="0"/>
        <pt x="594" y="683" on="1"/>
        <pt x="406" y="683" on="1"/>
        <pt x="393" y="683" on="0"/>
        <pt x="375" y="702" on="0"/>
      </contour>
      <contour>
        <pt x="260" y="517" on="1"/>
        <pt x="260" y="548" on="0"/>
        <pt x="291" y="600" on="0"/>
        <pt x="344" y="631" on="0"/>
        <pt x="375" y="631" on="1"/>
        <pt x="625" y="631" on="1"/>
        <pt x="656" y="631" on="0"/>
        <pt x="709" y="600" on="0"/>
        <pt x="740" y="548" on="0"/>
        <pt x="740" y="517" on="1"/>
        <pt x="740" y="79" on="1"/>
        <pt x="740" y="48" on="0"/>
        <pt x="709" y="-4" on="0"/>
        <pt x="656" y="-35" on="0"/>
        <pt x="625" y="-35" on="1"/>
        <pt x="375" y="-35" on="1"/>
        <pt x="344" y="-35" on="0"/>
        <pt x="291" y="-4" on="0"/>
        <pt x="260" y="48" on="0"/>
        <pt x="260" y="79" on="1"/>
      </contour>
      <contour>
        <pt x="375" y="569" on="1"/>
        <pt x="353" y="569" on="0"/>
        <pt x="323" y="538" on="0"/>
        <pt x="323" y="517" on="1"/>
        <pt x="323" y="79" on="1"/>
        <pt x="323" y="57" on="0"/>
        <pt x="353" y="27" on="0"/>
        <pt x="375" y="27" on="1"/>
        <pt x="625" y="27" on="1"/>
        <pt x="647" y="27" on="0"/>
        <pt x="677" y="57" on="0"/>
        <pt x="677" y="79" on="1"/>
        <pt x="677" y="517" on="1"/>
        <pt x="677" y="538" on="0"/>
        <pt x="647" y="569" on="0"/>
        <pt x="625" y="569" on="1"/>
      </contour>
      <contour>
        <pt x="500" y="485" on="1"/>
        <pt x="513" y="485" on="0"/>
        <pt x="531" y="467" on="0"/>
        <pt x="531" y="454" on="1"/>
        <pt x="531" y="288" on="1"/>
        <pt x="531" y="275" on="0"/>
        <pt x="513" y="256" on="0"/>
        <pt x="487" y="256" on="0"/>
        <pt x="469" y="275" on="0"/>
        <pt x="469" y="288" on="1"/>
        <pt x="469" y="454" on="1"/>
        <pt x="469" y="467" on="0"/>
        <pt x="487" y="485" on="0"/>
      </contour>
      <contour>
        <pt x="547" y="157" on="1"/>
        <pt x="547" y="138" on="0"/>
        <pt x="520" y="110" on="0"/>
        <pt x="481" y="110" on="0"/>
        <pt x="453" y="138" on="0"/>
        <pt x="453" y="177" on="0"/>
        <pt x="481" y="204" on="0"/>
        <pt x="520" y="204" on="0"/>
        <pt x="547" y="177" on="0"/>
      </contour>
    </TTGlyph>
    <TTGlyph name="batteryhorizontal" xMin="0" yMin="0" xMax="896" yMax="591">
      <contour>
        <pt x="896" y="444" on="1"/>
        <pt x="896" y="457" on="0"/>
        <pt x="878" y="475" on="0"/>
        <pt x="852" y="475" on="0"/>
        <pt x="833" y="457" on="0"/>
        <pt x="833" y="444" on="1"/>
        <pt x="833" y="256" on="1"/>
        <pt x="833" y="243" on="0"/>
        <pt x="852" y="225" on="0"/>
        <pt x="878" y="225" on="0"/>
        <pt x="896" y="243" on="0"/>
        <pt x="896" y="256" on="1"/>
      </contour>
      <contour>
        <pt x="667" y="444" on="1"/>
        <pt x="667" y="457" on="0"/>
        <pt x="648" y="475" on="0"/>
        <pt x="622" y="475" on="0"/>
        <pt x="604" y="457" on="0"/>
        <pt x="604" y="444" on="1"/>
        <pt x="604" y="256" on="1"/>
        <pt x="604" y="243" on="0"/>
        <pt x="622" y="225" on="0"/>
        <pt x="648" y="225" on="0"/>
        <pt x="667" y="243" on="0"/>
        <pt x="667" y="256" on="1"/>
      </contour>
      <contour>
        <pt x="510" y="475" on="1"/>
        <pt x="523" y="475" on="0"/>
        <pt x="542" y="457" on="0"/>
        <pt x="542" y="444" on="1"/>
        <pt x="542" y="256" on="1"/>
        <pt x="542" y="243" on="0"/>
        <pt x="523" y="225" on="0"/>
        <pt x="497" y="225" on="0"/>
        <pt x="479" y="243" on="0"/>
        <pt x="479" y="256" on="1"/>
        <pt x="479" y="444" on="1"/>
        <pt x="479" y="457" on="0"/>
        <pt x="497" y="475" on="0"/>
      </contour>
      <contour>
        <pt x="292" y="444" on="1"/>
        <pt x="292" y="457" on="0"/>
        <pt x="273" y="475" on="0"/>
        <pt x="247" y="475" on="0"/>
        <pt x="229" y="457" on="0"/>
        <pt x="229" y="444" on="1"/>
        <pt x="229" y="256" on="1"/>
        <pt x="229" y="243" on="0"/>
        <pt x="247" y="225" on="0"/>
        <pt x="273" y="225" on="0"/>
        <pt x="292" y="243" on="0"/>
        <pt x="292" y="256" on="1"/>
      </contour>
      <contour>
        <pt x="385" y="475" on="1"/>
        <pt x="398" y="475" on="0"/>
        <pt x="417" y="457" on="0"/>
        <pt x="417" y="444" on="1"/>
        <pt x="417" y="256" on="1"/>
        <pt x="417" y="243" on="0"/>
        <pt x="398" y="225" on="0"/>
        <pt x="372" y="225" on="0"/>
        <pt x="354" y="243" on="0"/>
        <pt x="354" y="256" on="1"/>
        <pt x="354" y="444" on="1"/>
        <pt x="354" y="457" on="0"/>
        <pt x="372" y="475" on="0"/>
      </contour>
      <contour>
        <pt x="781" y="475" on="1"/>
        <pt x="781" y="506" on="0"/>
        <pt x="750" y="559" on="0"/>
        <pt x="698" y="590" on="0"/>
        <pt x="667" y="590" on="1"/>
        <pt x="229" y="590" on="1"/>
        <pt x="198" y="590" on="0"/>
        <pt x="146" y="559" on="0"/>
        <pt x="115" y="506" on="0"/>
        <pt x="115" y="475" on="1"/>
        <pt x="115" y="225" on="1"/>
        <pt x="115" y="194" on="0"/>
        <pt x="146" y="141" on="0"/>
        <pt x="198" y="110" on="0"/>
        <pt x="229" y="110" on="1"/>
        <pt x="667" y="110" on="1"/>
        <pt x="698" y="110" on="0"/>
        <pt x="750" y="141" on="0"/>
        <pt x="781" y="194" on="0"/>
        <pt x="781" y="225" on="1"/>
      </contour>
      <contour>
        <pt x="667" y="527" on="1"/>
        <pt x="688" y="527" on="0"/>
        <pt x="719" y="497" on="0"/>
        <pt x="719" y="475" on="1"/>
        <pt x="719" y="225" on="1"/>
        <pt x="719" y="203" on="0"/>
        <pt x="688" y="173" on="0"/>
        <pt x="667" y="173" on="1"/>
        <pt x="229" y="173" on="1"/>
        <pt x="207" y="173" on="0"/>
        <pt x="177" y="203" on="0"/>
        <pt x="177" y="225" on="1"/>
        <pt x="177" y="475" on="1"/>
        <pt x="177" y="497" on="0"/>
        <pt x="207" y="527" on="0"/>
        <pt x="229" y="527" on="1"/>
      </contour>
    </TTGlyph>
    <TTGlyph name="batteryhorizontal_25" xMin="0" yMin="0" xMax="896" yMax="591">
      <contour>
        <pt x="865" y="475" on="1"/>
        <pt x="878" y="475" on="0"/>
        <pt x="896" y="457" on="0"/>
        <pt x="896" y="444" on="1"/>
        <pt x="896" y="256" on="1"/>
        <pt x="896" y="243" on="0"/>
        <pt x="878" y="225" on="0"/>
        <pt x="852" y="225" on="0"/>
        <pt x="833" y="243" on="0"/>
        <pt x="833" y="256" on="1"/>
        <pt x="833" y="444" on="1"/>
        <pt x="833" y="457" on="0"/>
        <pt x="852" y="475" on="0"/>
      </contour>
      <contour>
        <pt x="260" y="475" on="1"/>
        <pt x="273" y="475" on="0"/>
        <pt x="292" y="457" on="0"/>
        <pt x="292" y="444" on="1"/>
        <pt x="292" y="256" on="1"/>
        <pt x="292" y="243" on="0"/>
        <pt x="273" y="225" on="0"/>
        <pt x="247" y="225" on="0"/>
        <pt x="229" y="243" on="0"/>
        <pt x="229" y="256" on="1"/>
        <pt x="229" y="444" on="1"/>
        <pt x="229" y="457" on="0"/>
        <pt x="247" y="475" on="0"/>
      </contour>
      <contour>
        <pt x="781" y="475" on="1"/>
        <pt x="781" y="506" on="0"/>
        <pt x="750" y="559" on="0"/>
        <pt x="698" y="590" on="0"/>
        <pt x="667" y="590" on="1"/>
        <pt x="229" y="590" on="1"/>
        <pt x="198" y="590" on="0"/>
        <pt x="146" y="559" on="0"/>
        <pt x="115" y="506" on="0"/>
        <pt x="115" y="475" on="1"/>
        <pt x="115" y="225" on="1"/>
        <pt x="115" y="194" on="0"/>
        <pt x="146" y="141" on="0"/>
        <pt x="198" y="110" on="0"/>
        <pt x="229" y="110" on="1"/>
        <pt x="667" y="110" on="1"/>
        <pt x="698" y="110" on="0"/>
        <pt x="750" y="141" on="0"/>
        <pt x="781" y="194" on="0"/>
        <pt x="781" y="225" on="1"/>
      </contour>
      <contour>
        <pt x="667" y="527" on="1"/>
        <pt x="688" y="527" on="0"/>
        <pt x="719" y="497" on="0"/>
        <pt x="719" y="475" on="1"/>
        <pt x="719" y="225" on="1"/>
        <pt x="719" y="203" on="0"/>
        <pt x="688" y="173" on="0"/>
        <pt x="667" y="173" on="1"/>
        <pt x="229" y="173" on="1"/>
        <pt x="207" y="173" on="0"/>
        <pt x="177" y="203" on="0"/>
        <pt x="177" y="225" on="1"/>
        <pt x="177" y="475" on="1"/>
        <pt x="177" y="497" on="0"/>
        <pt x="207" y="527" on="0"/>
        <pt x="229" y="527" on="1"/>
      </contour>
    </TTGlyph>
    <TTGlyph name="batteryhorizontal_50" xMin="0" yMin="0" xMax="896" yMax="591">
      <contour>
        <pt x="896" y="444" on="1"/>
        <pt x="896" y="457" on="0"/>
        <pt x="878" y="475" on="0"/>
        <pt x="852" y="475" on="0"/>
        <pt x="833" y="457" on="0"/>
        <pt x="833" y="444" on="1"/>
        <pt x="833" y="256" on="1"/>
        <pt x="833" y="243" on="0"/>
        <pt x="852" y="225" on="0"/>
        <pt x="878" y="225" on="0"/>
        <pt x="896" y="243" on="0"/>
        <pt x="896" y="256" on="1"/>
      </contour>
      <contour>
        <pt x="292" y="444" on="1"/>
        <pt x="292" y="457" on="0"/>
        <pt x="273" y="475" on="0"/>
        <pt x="247" y="475" on="0"/>
        <pt x="229" y="457" on="0"/>
        <pt x="229" y="444" on="1"/>
        <pt x="229" y="256" on="1"/>
        <pt x="229" y="243" on="0"/>
        <pt x="247" y="225" on="0"/>
        <pt x="273" y="225" on="0"/>
        <pt x="292" y="243" on="0"/>
        <pt x="292" y="256" on="1"/>
      </contour>
      <contour>
        <pt x="385" y="475" on="1"/>
        <pt x="398" y="475" on="0"/>
        <pt x="417" y="457" on="0"/>
        <pt x="417" y="444" on="1"/>
        <pt x="417" y="256" on="1"/>
        <pt x="417" y="243" on="0"/>
        <pt x="398" y="225" on="0"/>
        <pt x="372" y="225" on="0"/>
        <pt x="354" y="243" on="0"/>
        <pt x="354" y="256" on="1"/>
        <pt x="354" y="444" on="1"/>
        <pt x="354" y="457" on="0"/>
        <pt x="372" y="475" on="0"/>
      </contour>
      <contour>
        <pt x="781" y="475" on="1"/>
        <pt x="781" y="506" on="0"/>
        <pt x="750" y="559" on="0"/>
        <pt x="698" y="590" on="0"/>
        <pt x="667" y="590" on="1"/>
        <pt x="229" y="590" on="1"/>
        <pt x="198" y="590" on="0"/>
        <pt x="146" y="559" on="0"/>
        <pt x="115" y="506" on="0"/>
        <pt x="115" y="475" on="1"/>
        <pt x="115" y="225" on="1"/>
        <pt x="115" y="194" on="0"/>
        <pt x="146" y="141" on="0"/>
        <pt x="198" y="110" on="0"/>
        <pt x="229" y="110" on="1"/>
        <pt x="667" y="110" on="1"/>
        <pt x="698" y="110" on="0"/>
        <pt x="750" y="141" on="0"/>
        <pt x="781" y="194" on="0"/>
        <pt x="781" y="225" on="1"/>
      </contour>
      <contour>
        <pt x="667" y="527" on="1"/>
        <pt x="688" y="527" on="0"/>
        <pt x="719" y="497" on="0"/>
        <pt x="719" y="475" on="1"/>
        <pt x="719" y="225" on="1"/>
        <pt x="719" y="203" on="0"/>
        <pt x="688" y="173" on="0"/>
        <pt x="667" y="173" on="1"/>
        <pt x="229" y="173" on="1"/>
        <pt x="207" y="173" on="0"/>
        <pt x="177" y="203" on="0"/>
        <pt x="177" y="225" on="1"/>
        <pt x="177" y="475" on="1"/>
        <pt x="177" y="497" on="0"/>
        <pt x="207" y="527" on="0"/>
        <pt x="229" y="527" on="1"/>
      </contour>
    </TTGlyph>
    <TTGlyph name="batteryhorizontal_75" xMin="0" yMin="0" xMax="896" yMax="591">
      <contour>
        <pt x="865" y="475" on="1"/>
        <pt x="878" y="475" on="0"/>
        <pt x="896" y="457" on="0"/>
        <pt x="896" y="444" on="1"/>
        <pt x="896" y="256" on="1"/>
        <pt x="896" y="243" on="0"/>
        <pt x="878" y="225" on="0"/>
        <pt x="852" y="225" on="0"/>
        <pt x="833" y="243" on="0"/>
        <pt x="833" y="256" on="1"/>
        <pt x="833" y="444" on="1"/>
        <pt x="833" y="457" on="0"/>
        <pt x="852" y="475" on="0"/>
      </contour>
      <contour>
        <pt x="510" y="475" on="1"/>
        <pt x="523" y="475" on="0"/>
        <pt x="542" y="457" on="0"/>
        <pt x="542" y="444" on="1"/>
        <pt x="542" y="256" on="1"/>
        <pt x="542" y="243" on="0"/>
        <pt x="523" y="225" on="0"/>
        <pt x="497" y="225" on="0"/>
        <pt x="479" y="243" on="0"/>
        <pt x="479" y="256" on="1"/>
        <pt x="479" y="444" on="1"/>
        <pt x="479" y="457" on="0"/>
        <pt x="497" y="475" on="0"/>
      </contour>
      <contour>
        <pt x="292" y="444" on="1"/>
        <pt x="292" y="457" on="0"/>
        <pt x="273" y="475" on="0"/>
        <pt x="247" y="475" on="0"/>
        <pt x="229" y="457" on="0"/>
        <pt x="229" y="444" on="1"/>
        <pt x="229" y="256" on="1"/>
        <pt x="229" y="243" on="0"/>
        <pt x="247" y="225" on="0"/>
        <pt x="273" y="225" on="0"/>
        <pt x="292" y="243" on="0"/>
        <pt x="292" y="256" on="1"/>
      </contour>
      <contour>
        <pt x="385" y="475" on="1"/>
        <pt x="398" y="475" on="0"/>
        <pt x="417" y="457" on="0"/>
        <pt x="417" y="444" on="1"/>
        <pt x="417" y="256" on="1"/>
        <pt x="417" y="243" on="0"/>
        <pt x="398" y="225" on="0"/>
        <pt x="372" y="225" on="0"/>
        <pt x="354" y="243" on="0"/>
        <pt x="354" y="256" on="1"/>
        <pt x="354" y="444" on="1"/>
        <pt x="354" y="457" on="0"/>
        <pt x="372" y="475" on="0"/>
      </contour>
      <contour>
        <pt x="781" y="475" on="1"/>
        <pt x="781" y="506" on="0"/>
        <pt x="750" y="559" on="0"/>
        <pt x="698" y="590" on="0"/>
        <pt x="667" y="590" on="1"/>
        <pt x="229" y="590" on="1"/>
        <pt x="198" y="590" on="0"/>
        <pt x="146" y="559" on="0"/>
        <pt x="115" y="506" on="0"/>
        <pt x="115" y="475" on="1"/>
        <pt x="115" y="225" on="1"/>
        <pt x="115" y="194" on="0"/>
        <pt x="146" y="141" on="0"/>
        <pt x="198" y="110" on="0"/>
        <pt x="229" y="110" on="1"/>
        <pt x="667" y="110" on="1"/>
        <pt x="698" y="110" on="0"/>
        <pt x="750" y="141" on="0"/>
        <pt x="781" y="194" on="0"/>
        <pt x="781" y="225" on="1"/>
      </contour>
      <contour>
        <pt x="667" y="527" on="1"/>
        <pt x="688" y="527" on="0"/>
        <pt x="719" y="497" on="0"/>
        <pt x="719" y="475" on="1"/>
        <pt x="719" y="225" on="1"/>
        <pt x="719" y="203" on="0"/>
        <pt x="688" y="173" on="0"/>
        <pt x="667" y="173" on="1"/>
        <pt x="229" y="173" on="1"/>
        <pt x="207" y="173" on="0"/>
        <pt x="177" y="203" on="0"/>
        <pt x="177" y="225" on="1"/>
        <pt x="177" y="475" on="1"/>
        <pt x="177" y="497" on="0"/>
        <pt x="207" y="527" on="0"/>
        <pt x="229" y="527" on="1"/>
      </contour>
    </TTGlyph>
    <TTGlyph name="batteryhorizontalelectricity" xMin="0" yMin="0" xMax="896" yMax="591">
      <contour>
        <pt x="229" y="590" on="1"/>
        <pt x="388" y="590" on="1"/>
        <pt x="341" y="527" on="1"/>
        <pt x="229" y="527" on="1"/>
        <pt x="207" y="527" on="0"/>
        <pt x="177" y="497" on="0"/>
        <pt x="177" y="475" on="1"/>
        <pt x="177" y="225" on="1"/>
        <pt x="177" y="203" on="0"/>
        <pt x="207" y="173" on="0"/>
        <pt x="229" y="173" on="1"/>
        <pt x="282" y="173" on="1"/>
        <pt x="285" y="139" on="0"/>
        <pt x="305" y="110" on="1"/>
        <pt x="229" y="110" on="1"/>
        <pt x="198" y="110" on="0"/>
        <pt x="146" y="141" on="0"/>
        <pt x="115" y="194" on="0"/>
        <pt x="115" y="225" on="1"/>
        <pt x="115" y="475" on="1"/>
        <pt x="115" y="506" on="0"/>
        <pt x="146" y="559" on="0"/>
        <pt x="198" y="590" on="0"/>
      </contour>
      <contour>
        <pt x="667" y="173" on="1"/>
        <pt x="555" y="173" on="1"/>
        <pt x="508" y="110" on="1"/>
        <pt x="667" y="110" on="1"/>
        <pt x="698" y="110" on="0"/>
        <pt x="750" y="141" on="0"/>
        <pt x="781" y="194" on="0"/>
        <pt x="781" y="225" on="1"/>
        <pt x="781" y="475" on="1"/>
        <pt x="781" y="506" on="0"/>
        <pt x="750" y="559" on="0"/>
        <pt x="698" y="590" on="0"/>
        <pt x="667" y="590" on="1"/>
        <pt x="591" y="590" on="1"/>
        <pt x="611" y="561" on="0"/>
        <pt x="614" y="527" on="1"/>
        <pt x="667" y="527" on="1"/>
        <pt x="688" y="527" on="0"/>
        <pt x="719" y="497" on="0"/>
        <pt x="719" y="475" on="1"/>
        <pt x="719" y="225" on="1"/>
        <pt x="719" y="203" on="0"/>
        <pt x="688" y="173" on="0"/>
      </contour>
      <contour>
        <pt x="896" y="444" on="1"/>
        <pt x="896" y="457" on="0"/>
        <pt x="878" y="475" on="0"/>
        <pt x="852" y="475" on="0"/>
        <pt x="833" y="457" on="0"/>
        <pt x="833" y="444" on="1"/>
        <pt x="833" y="256" on="1"/>
        <pt x="833" y="243" on="0"/>
        <pt x="852" y="225" on="0"/>
        <pt x="878" y="225" on="0"/>
        <pt x="896" y="243" on="0"/>
        <pt x="896" y="256" on="1"/>
      </contour>
      <contour>
        <pt x="504" y="544" on="1"/>
        <pt x="514" y="539" on="0"/>
        <pt x="523" y="518" on="0"/>
        <pt x="519" y="507" on="1"/>
        <pt x="486" y="408" on="1"/>
        <pt x="545" y="378" on="1"/>
        <pt x="559" y="372" on="0"/>
        <pt x="565" y="343" on="0"/>
        <pt x="556" y="331" on="1"/>
        <pt x="431" y="165" on="1"/>
        <pt x="424" y="155" on="0"/>
        <pt x="402" y="151" on="0"/>
        <pt x="382" y="161" on="0"/>
        <pt x="373" y="182" on="0"/>
        <pt x="377" y="193" on="1"/>
        <pt x="410" y="293" on="1"/>
        <pt x="351" y="322" on="1"/>
        <pt x="337" y="328" on="0"/>
        <pt x="331" y="357" on="0"/>
        <pt x="340" y="369" on="1"/>
        <pt x="465" y="535" on="1"/>
        <pt x="472" y="545" on="0"/>
        <pt x="494" y="550" on="0"/>
      </contour>
    </TTGlyph>
    <TTGlyph name="batteryhorizontalempty" xMin="0" yMin="0" xMax="896" yMax="591">
      <contour>
        <pt x="896" y="444" on="1"/>
        <pt x="896" y="457" on="0"/>
        <pt x="878" y="475" on="0"/>
        <pt x="852" y="475" on="0"/>
        <pt x="833" y="457" on="0"/>
        <pt x="833" y="444" on="1"/>
        <pt x="833" y="256" on="1"/>
        <pt x="833" y="243" on="0"/>
        <pt x="852" y="225" on="0"/>
        <pt x="878" y="225" on="0"/>
        <pt x="896" y="243" on="0"/>
        <pt x="896" y="256" on="1"/>
      </contour>
      <contour>
        <pt x="781" y="475" on="1"/>
        <pt x="781" y="506" on="0"/>
        <pt x="750" y="559" on="0"/>
        <pt x="698" y="590" on="0"/>
        <pt x="667" y="590" on="1"/>
        <pt x="229" y="590" on="1"/>
        <pt x="198" y="590" on="0"/>
        <pt x="146" y="559" on="0"/>
        <pt x="115" y="506" on="0"/>
        <pt x="115" y="475" on="1"/>
        <pt x="115" y="225" on="1"/>
        <pt x="115" y="194" on="0"/>
        <pt x="146" y="141" on="0"/>
        <pt x="198" y="110" on="0"/>
        <pt x="229" y="110" on="1"/>
        <pt x="667" y="110" on="1"/>
        <pt x="698" y="110" on="0"/>
        <pt x="750" y="141" on="0"/>
        <pt x="781" y="194" on="0"/>
        <pt x="781" y="225" on="1"/>
      </contour>
      <contour>
        <pt x="667" y="527" on="1"/>
        <pt x="688" y="527" on="0"/>
        <pt x="719" y="497" on="0"/>
        <pt x="719" y="475" on="1"/>
        <pt x="719" y="225" on="1"/>
        <pt x="719" y="203" on="0"/>
        <pt x="688" y="173" on="0"/>
        <pt x="667" y="173" on="1"/>
        <pt x="229" y="173" on="1"/>
        <pt x="207" y="173" on="0"/>
        <pt x="177" y="203" on="0"/>
        <pt x="177" y="225" on="1"/>
        <pt x="177" y="475" on="1"/>
        <pt x="177" y="497" on="0"/>
        <pt x="207" y="527" on="0"/>
        <pt x="229" y="527" on="1"/>
      </contour>
    </TTGlyph>
    <TTGlyph name="batteryhorizontalwarning" xMin="0" yMin="0" xMax="896" yMax="591">
      <contour>
        <pt x="229" y="590" on="1"/>
        <pt x="346" y="590" on="1"/>
        <pt x="326" y="560" on="0"/>
        <pt x="323" y="527" on="1"/>
        <pt x="229" y="527" on="1"/>
        <pt x="207" y="527" on="0"/>
        <pt x="177" y="497" on="0"/>
        <pt x="177" y="475" on="1"/>
        <pt x="177" y="225" on="1"/>
        <pt x="177" y="203" on="0"/>
        <pt x="207" y="173" on="0"/>
        <pt x="229" y="173" on="1"/>
        <pt x="328" y="173" on="1"/>
        <pt x="340" y="134" on="0"/>
        <pt x="372" y="110" on="1"/>
        <pt x="229" y="110" on="1"/>
        <pt x="198" y="110" on="0"/>
        <pt x="146" y="141" on="0"/>
        <pt x="115" y="194" on="0"/>
        <pt x="115" y="225" on="1"/>
        <pt x="115" y="475" on="1"/>
        <pt x="115" y="506" on="0"/>
        <pt x="146" y="559" on="0"/>
        <pt x="198" y="590" on="0"/>
      </contour>
      <contour>
        <pt x="667" y="173" on="1"/>
        <pt x="568" y="173" on="1"/>
        <pt x="556" y="134" on="0"/>
        <pt x="524" y="110" on="1"/>
        <pt x="667" y="110" on="1"/>
        <pt x="698" y="110" on="0"/>
        <pt x="750" y="141" on="0"/>
        <pt x="781" y="194" on="0"/>
        <pt x="781" y="225" on="1"/>
        <pt x="781" y="475" on="1"/>
        <pt x="781" y="506" on="0"/>
        <pt x="750" y="559" on="0"/>
        <pt x="698" y="590" on="0"/>
        <pt x="667" y="590" on="1"/>
        <pt x="550" y="590" on="1"/>
        <pt x="570" y="560" on="0"/>
        <pt x="573" y="527" on="1"/>
        <pt x="667" y="527" on="1"/>
        <pt x="688" y="527" on="0"/>
        <pt x="719" y="497" on="0"/>
        <pt x="719" y="475" on="1"/>
        <pt x="719" y="225" on="1"/>
        <pt x="719" y="203" on="0"/>
        <pt x="688" y="173" on="0"/>
      </contour>
      <contour>
        <pt x="896" y="444" on="1"/>
        <pt x="896" y="457" on="0"/>
        <pt x="878" y="475" on="0"/>
        <pt x="852" y="475" on="0"/>
        <pt x="833" y="457" on="0"/>
        <pt x="833" y="444" on="1"/>
        <pt x="833" y="256" on="1"/>
        <pt x="833" y="243" on="0"/>
        <pt x="852" y="225" on="0"/>
        <pt x="878" y="225" on="0"/>
        <pt x="896" y="243" on="0"/>
        <pt x="896" y="256" on="1"/>
      </contour>
      <contour>
        <pt x="448" y="538" on="1"/>
        <pt x="461" y="538" on="0"/>
        <pt x="479" y="519" on="0"/>
        <pt x="479" y="506" on="1"/>
        <pt x="479" y="340" on="1"/>
        <pt x="479" y="327" on="0"/>
        <pt x="461" y="308" on="0"/>
        <pt x="435" y="308" on="0"/>
        <pt x="417" y="327" on="0"/>
        <pt x="417" y="340" on="1"/>
        <pt x="417" y="506" on="1"/>
        <pt x="417" y="519" on="0"/>
        <pt x="435" y="538" on="0"/>
      </contour>
      <contour>
        <pt x="495" y="209" on="1"/>
        <pt x="495" y="190" on="0"/>
        <pt x="467" y="163" on="0"/>
        <pt x="429" y="163" on="0"/>
        <pt x="401" y="190" on="0"/>
        <pt x="401" y="229" on="0"/>
        <pt x="429" y="256" on="0"/>
        <pt x="468" y="256" on="0"/>
        <pt x="495" y="229" on="0"/>
      </contour>
    </TTGlyph>
    <TTGlyph name="bee" xMin="0" yMin="-57" xMax="948" yMax="756">
      <contour>
        <pt x="281" y="725" on="1"/>
        <pt x="281" y="738" on="0"/>
        <pt x="300" y="756" on="0"/>
        <pt x="313" y="756" on="1"/>
        <pt x="342" y="756" on="0"/>
        <pt x="398" y="734" on="0"/>
        <pt x="419" y="715" on="1"/>
        <pt x="453" y="684" on="0"/>
        <pt x="463" y="647" on="1"/>
        <pt x="483" y="652" on="0"/>
        <pt x="517" y="652" on="0"/>
        <pt x="537" y="647" on="1"/>
        <pt x="549" y="686" on="0"/>
        <pt x="581" y="715" on="1"/>
        <pt x="602" y="734" on="0"/>
        <pt x="658" y="756" on="0"/>
        <pt x="688" y="756" on="1"/>
        <pt x="701" y="756" on="0"/>
        <pt x="719" y="738" on="0"/>
        <pt x="719" y="712" on="0"/>
        <pt x="701" y="694" on="0"/>
        <pt x="688" y="694" on="1"/>
        <pt x="671" y="694" on="0"/>
        <pt x="636" y="680" on="0"/>
        <pt x="609" y="656" on="0"/>
        <pt x="594" y="626" on="0"/>
        <pt x="594" y="610" on="1"/>
        <pt x="594" y="610" on="0"/>
        <pt x="594" y="610" on="1"/>
        <pt x="625" y="574" on="0"/>
        <pt x="625" y="527" on="1"/>
        <pt x="625" y="519" on="1"/>
        <pt x="641" y="531" on="0"/>
        <pt x="657" y="539" on="1"/>
        <pt x="711" y="569" on="0"/>
        <pt x="750" y="569" on="1"/>
        <pt x="804" y="569" on="0"/>
        <pt x="895" y="516" on="0"/>
        <pt x="948" y="425" on="0"/>
        <pt x="948" y="317" on="0"/>
        <pt x="895" y="226" on="0"/>
        <pt x="804" y="173" on="0"/>
        <pt x="750" y="173" on="1"/>
        <pt x="726" y="173" on="0"/>
        <pt x="695" y="185" on="1"/>
        <pt x="689" y="133" on="0"/>
        <pt x="665" y="87" on="1"/>
        <pt x="645" y="49" on="0"/>
        <pt x="614" y="16" on="1"/>
        <pt x="588" y="-13" on="0"/>
        <pt x="551" y="-36" on="1"/>
        <pt x="545" y="-40" on="0"/>
        <pt x="534" y="-46" on="1"/>
        <pt x="526" y="-50" on="1"/>
        <pt x="523" y="-51" on="1"/>
        <pt x="509" y="-56" on="0"/>
        <pt x="492" y="-56" on="0"/>
        <pt x="479" y="-52" on="1"/>
        <pt x="474" y="-50" on="1"/>
        <pt x="466" y="-46" on="1"/>
        <pt x="455" y="-40" on="0"/>
        <pt x="449" y="-36" on="1"/>
        <pt x="416" y="-15" on="0"/>
        <pt x="386" y="16" on="1"/>
        <pt x="356" y="49" on="0"/>
        <pt x="336" y="87" on="1"/>
        <pt x="312" y="134" on="0"/>
        <pt x="305" y="185" on="1"/>
        <pt x="274" y="173" on="0"/>
        <pt x="250" y="173" on="1"/>
        <pt x="196" y="173" on="0"/>
        <pt x="105" y="226" on="0"/>
        <pt x="52" y="317" on="0"/>
        <pt x="52" y="425" on="0"/>
        <pt x="105" y="516" on="0"/>
        <pt x="196" y="569" on="0"/>
        <pt x="250" y="569" on="1"/>
        <pt x="289" y="569" on="0"/>
        <pt x="343" y="539" on="1"/>
        <pt x="359" y="531" on="0"/>
        <pt x="375" y="519" on="1"/>
        <pt x="375" y="527" on="1"/>
        <pt x="375" y="574" on="0"/>
        <pt x="406" y="610" on="1"/>
        <pt x="406" y="610" on="0"/>
        <pt x="406" y="610" on="1"/>
        <pt x="406" y="626" on="0"/>
        <pt x="391" y="656" on="0"/>
        <pt x="364" y="680" on="0"/>
        <pt x="329" y="694" on="0"/>
        <pt x="313" y="694" on="1"/>
        <pt x="300" y="694" on="0"/>
        <pt x="281" y="712" on="0"/>
      </contour>
      <contour>
        <pt x="500" y="590" on="1"/>
        <pt x="474" y="590" on="0"/>
        <pt x="438" y="553" on="0"/>
        <pt x="438" y="502" on="0"/>
        <pt x="475" y="465" on="0"/>
        <pt x="526" y="465" on="0"/>
        <pt x="563" y="501" on="0"/>
        <pt x="563" y="553" on="0"/>
        <pt x="526" y="590" on="0"/>
      </contour>
      <contour>
        <pt x="250" y="506" on="1"/>
        <pt x="213" y="506" on="0"/>
        <pt x="151" y="470" on="0"/>
        <pt x="115" y="408" on="0"/>
        <pt x="115" y="334" on="0"/>
        <pt x="151" y="272" on="0"/>
        <pt x="213" y="235" on="0"/>
        <pt x="250" y="235" on="1"/>
        <pt x="271" y="235" on="0"/>
        <pt x="313" y="257" on="1"/>
        <pt x="346" y="277" on="0"/>
        <pt x="390" y="312" on="1"/>
        <pt x="420" y="337" on="0"/>
        <pt x="452" y="367" on="1"/>
        <pt x="456" y="371" on="1"/>
        <pt x="452" y="374" on="1"/>
        <pt x="426" y="400" on="0"/>
        <pt x="390" y="430" on="1"/>
        <pt x="345" y="466" on="0"/>
        <pt x="313" y="484" on="1"/>
        <pt x="273" y="506" on="0"/>
      </contour>
      <contour>
        <pt x="365" y="216" on="1"/>
        <pt x="365" y="197" on="0"/>
        <pt x="370" y="175" on="1"/>
        <pt x="371" y="174" on="1"/>
        <pt x="407" y="161" on="1"/>
        <pt x="464" y="142" on="0"/>
        <pt x="538" y="142" on="0"/>
        <pt x="593" y="161" on="1"/>
        <pt x="629" y="174" on="1"/>
        <pt x="630" y="175" on="1"/>
        <pt x="635" y="197" on="0"/>
        <pt x="635" y="216" on="1"/>
        <pt x="616" y="229" on="1"/>
        <pt x="611" y="228" on="0"/>
        <pt x="601" y="223" on="1"/>
        <pt x="594" y="221" on="1"/>
        <pt x="539" y="204" on="0"/>
        <pt x="460" y="204" on="0"/>
        <pt x="407" y="221" on="1"/>
        <pt x="384" y="229" on="1"/>
      </contour>
      <contour>
        <pt x="444" y="275" on="1"/>
        <pt x="473" y="267" on="0"/>
        <pt x="527" y="267" on="0"/>
        <pt x="556" y="275" on="1"/>
        <pt x="549" y="281" on="1"/>
        <pt x="516" y="311" on="0"/>
        <pt x="505" y="322" on="1"/>
        <pt x="503" y="324" on="1"/>
        <pt x="501" y="326" on="0"/>
        <pt x="500" y="327" on="1"/>
        <pt x="496" y="322" on="1"/>
      </contour>
      <contour>
        <pt x="750" y="506" on="1"/>
        <pt x="787" y="506" on="0"/>
        <pt x="849" y="470" on="0"/>
        <pt x="885" y="408" on="0"/>
        <pt x="885" y="334" on="0"/>
        <pt x="849" y="272" on="0"/>
        <pt x="787" y="235" on="0"/>
        <pt x="750" y="235" on="1"/>
        <pt x="729" y="235" on="0"/>
        <pt x="687" y="257" on="1"/>
        <pt x="654" y="277" on="0"/>
        <pt x="610" y="312" on="1"/>
        <pt x="580" y="337" on="0"/>
        <pt x="548" y="367" on="1"/>
        <pt x="544" y="371" on="1"/>
        <pt x="548" y="374" on="1"/>
        <pt x="574" y="400" on="0"/>
        <pt x="610" y="430" on="1"/>
        <pt x="655" y="466" on="0"/>
        <pt x="687" y="484" on="1"/>
        <pt x="727" y="506" on="0"/>
      </contour>
      <contour>
        <pt x="499" y="8" on="1"/>
        <pt x="500" y="7" on="1"/>
        <pt x="501" y="8" on="1"/>
        <pt x="504" y="9" on="0"/>
        <pt x="513" y="14" on="1"/>
        <pt x="518" y="17" on="1"/>
        <pt x="545" y="33" on="0"/>
        <pt x="568" y="59" on="1"/>
        <pt x="584" y="75" on="0"/>
        <pt x="598" y="97" on="1"/>
        <pt x="540" y="79" on="0"/>
        <pt x="460" y="79" on="0"/>
        <pt x="402" y="97" on="1"/>
        <pt x="416" y="75" on="0"/>
        <pt x="432" y="59" on="1"/>
        <pt x="455" y="33" on="0"/>
        <pt x="482" y="17" on="1"/>
        <pt x="487" y="14" on="1"/>
        <pt x="496" y="9" on="0"/>
      </contour>
    </TTGlyph>
    <TTGlyph name="bell_1" xMin="0" yMin="-15" xMax="851" yMax="694">
      <contour>
        <pt x="500" y="694" on="1"/>
        <pt x="448" y="694" on="0"/>
        <pt x="347" y="653" on="0"/>
        <pt x="266" y="582" on="0"/>
        <pt x="244" y="536" on="1"/>
        <pt x="219" y="487" on="0"/>
        <pt x="219" y="379" on="0"/>
        <pt x="218" y="357" on="1"/>
        <pt x="216" y="322" on="0"/>
        <pt x="206" y="272" on="0"/>
        <pt x="182" y="226" on="0"/>
        <pt x="161" y="202" on="1"/>
        <pt x="150" y="190" on="0"/>
        <pt x="151" y="156" on="0"/>
        <pt x="173" y="131" on="0"/>
        <pt x="192" y="131" on="1"/>
        <pt x="344" y="131" on="1"/>
        <pt x="347" y="91" on="0"/>
        <pt x="390" y="24" on="0"/>
        <pt x="459" y="-15" on="0"/>
        <pt x="541" y="-15" on="0"/>
        <pt x="611" y="24" on="0"/>
        <pt x="654" y="91" on="0"/>
        <pt x="656" y="131" on="1"/>
        <pt x="808" y="131" on="1"/>
        <pt x="827" y="131" on="0"/>
        <pt x="849" y="156" on="0"/>
        <pt x="851" y="190" on="0"/>
        <pt x="840" y="202" on="1"/>
        <pt x="818" y="226" on="0"/>
        <pt x="794" y="272" on="0"/>
        <pt x="784" y="322" on="0"/>
        <pt x="782" y="357" on="1"/>
        <pt x="781" y="379" on="0"/>
        <pt x="781" y="487" on="0"/>
        <pt x="757" y="536" on="1"/>
        <pt x="734" y="582" on="0"/>
        <pt x="653" y="653" on="0"/>
        <pt x="552" y="694" on="0"/>
      </contour>
      <contour>
        <pt x="593" y="131" on="1"/>
        <pt x="589" y="96" on="0"/>
        <pt x="536" y="48" on="0"/>
        <pt x="464" y="48" on="0"/>
        <pt x="411" y="96" on="0"/>
        <pt x="407" y="131" on="1"/>
      </contour>
      <contour>
        <pt x="625" y="194" on="1"/>
        <pt x="766" y="194" on="1"/>
        <pt x="739" y="235" on="0"/>
        <pt x="728" y="285" on="1"/>
        <pt x="722" y="314" on="0"/>
        <pt x="720" y="353" on="1"/>
        <pt x="719" y="377" on="0"/>
        <pt x="719" y="431" on="1"/>
        <pt x="719" y="433" on="1"/>
        <pt x="719" y="471" on="0"/>
        <pt x="683" y="543" on="0"/>
        <pt x="619" y="600" on="0"/>
        <pt x="540" y="631" on="0"/>
        <pt x="460" y="631" on="0"/>
        <pt x="381" y="600" on="0"/>
        <pt x="317" y="543" on="0"/>
        <pt x="281" y="471" on="0"/>
        <pt x="281" y="433" on="1"/>
        <pt x="281" y="431" on="1"/>
        <pt x="281" y="377" on="0"/>
        <pt x="280" y="353" on="1"/>
        <pt x="278" y="314" on="0"/>
        <pt x="272" y="285" on="1"/>
        <pt x="263" y="236" on="0"/>
        <pt x="234" y="194" on="1"/>
      </contour>
    </TTGlyph>
    <TTGlyph name="bell_1_off" xMin="0" yMin="-15" xMax="865" yMax="715">
      <contour>
        <pt x="189" y="705" on="1"/>
        <pt x="180" y="715" on="0"/>
        <pt x="154" y="715" on="0"/>
        <pt x="135" y="696" on="0"/>
        <pt x="135" y="670" on="0"/>
        <pt x="145" y="661" on="1"/>
        <pt x="253" y="553" on="1"/>
        <pt x="219" y="495" on="0"/>
        <pt x="219" y="433" on="1"/>
        <pt x="219" y="379" on="0"/>
        <pt x="218" y="357" on="1"/>
        <pt x="216" y="322" on="0"/>
        <pt x="206" y="272" on="0"/>
        <pt x="182" y="226" on="0"/>
        <pt x="161" y="202" on="1"/>
        <pt x="150" y="190" on="0"/>
        <pt x="151" y="156" on="0"/>
        <pt x="173" y="131" on="0"/>
        <pt x="192" y="131" on="1"/>
        <pt x="344" y="131" on="1"/>
        <pt x="347" y="91" on="0"/>
        <pt x="390" y="24" on="0"/>
        <pt x="459" y="-15" on="0"/>
        <pt x="541" y="-15" on="0"/>
        <pt x="611" y="24" on="0"/>
        <pt x="654" y="91" on="0"/>
        <pt x="656" y="131" on="1"/>
        <pt x="675" y="131" on="1"/>
        <pt x="811" y="-5" on="1"/>
        <pt x="820" y="-15" on="0"/>
        <pt x="846" y="-15" on="0"/>
        <pt x="865" y="4" on="0"/>
        <pt x="865" y="30" on="0"/>
        <pt x="855" y="39" on="1"/>
      </contour>
      <contour>
        <pt x="612" y="194" on="1"/>
        <pt x="299" y="507" on="1"/>
        <pt x="281" y="469" on="0"/>
        <pt x="281" y="433" on="1"/>
        <pt x="281" y="431" on="1"/>
        <pt x="281" y="377" on="0"/>
        <pt x="280" y="353" on="1"/>
        <pt x="278" y="314" on="0"/>
        <pt x="272" y="285" on="1"/>
        <pt x="263" y="236" on="0"/>
        <pt x="234" y="194" on="1"/>
      </contour>
      <contour>
        <pt x="728" y="285" on="1"/>
        <pt x="734" y="256" on="0"/>
        <pt x="744" y="233" on="1"/>
        <pt x="836" y="141" on="1"/>
        <pt x="849" y="152" on="0"/>
        <pt x="851" y="189" on="0"/>
        <pt x="840" y="202" on="1"/>
        <pt x="818" y="226" on="0"/>
        <pt x="794" y="272" on="0"/>
        <pt x="784" y="322" on="0"/>
        <pt x="782" y="357" on="1"/>
        <pt x="781" y="379" on="0"/>
        <pt x="781" y="487" on="0"/>
        <pt x="757" y="536" on="1"/>
        <pt x="734" y="582" on="0"/>
        <pt x="653" y="653" on="0"/>
        <pt x="552" y="694" on="0"/>
        <pt x="500" y="694" on="1"/>
        <pt x="457" y="694" on="0"/>
        <pt x="373" y="666" on="0"/>
        <pt x="337" y="641" on="1"/>
        <pt x="382" y="596" on="1"/>
        <pt x="439" y="631" on="0"/>
        <pt x="500" y="631" on="1"/>
        <pt x="540" y="631" on="0"/>
        <pt x="619" y="600" on="0"/>
        <pt x="683" y="543" on="0"/>
        <pt x="719" y="471" on="0"/>
        <pt x="719" y="433" on="1"/>
        <pt x="719" y="431" on="1"/>
        <pt x="719" y="377" on="0"/>
        <pt x="720" y="353" on="1"/>
        <pt x="722" y="314" on="0"/>
      </contour>
      <contour>
        <pt x="593" y="131" on="1"/>
        <pt x="589" y="96" on="0"/>
        <pt x="536" y="48" on="0"/>
        <pt x="464" y="48" on="0"/>
        <pt x="411" y="96" on="0"/>
        <pt x="407" y="131" on="1"/>
      </contour>
    </TTGlyph>
    <TTGlyph name="bell_2" xMin="0" yMin="-56" xMax="851" yMax="756">
      <contour>
        <pt x="531" y="725" on="1"/>
        <pt x="531" y="738" on="0"/>
        <pt x="513" y="756" on="0"/>
        <pt x="487" y="756" on="0"/>
        <pt x="469" y="738" on="0"/>
        <pt x="469" y="725" on="1"/>
        <pt x="469" y="650" on="1"/>
        <pt x="425" y="645" on="0"/>
        <pt x="341" y="607" on="0"/>
        <pt x="307" y="577" on="1"/>
        <pt x="266" y="540" on="0"/>
        <pt x="244" y="494" on="1"/>
        <pt x="219" y="445" on="0"/>
        <pt x="219" y="338" on="0"/>
        <pt x="218" y="316" on="1"/>
        <pt x="216" y="281" on="0"/>
        <pt x="211" y="257" on="1"/>
        <pt x="206" y="231" on="0"/>
        <pt x="182" y="184" on="0"/>
        <pt x="161" y="160" on="1"/>
        <pt x="150" y="148" on="0"/>
        <pt x="151" y="114" on="0"/>
        <pt x="173" y="90" on="0"/>
        <pt x="192" y="90" on="1"/>
        <pt x="344" y="90" on="1"/>
        <pt x="347" y="50" on="0"/>
        <pt x="390" y="-17" on="0"/>
        <pt x="459" y="-56" on="0"/>
        <pt x="541" y="-56" on="0"/>
        <pt x="611" y="-17" on="0"/>
        <pt x="654" y="50" on="0"/>
        <pt x="656" y="90" on="1"/>
        <pt x="808" y="90" on="1"/>
        <pt x="827" y="90" on="0"/>
        <pt x="849" y="114" on="0"/>
        <pt x="851" y="148" on="0"/>
        <pt x="840" y="160" on="1"/>
        <pt x="818" y="184" on="0"/>
        <pt x="806" y="208" on="1"/>
        <pt x="794" y="230" on="0"/>
        <pt x="789" y="257" on="1"/>
        <pt x="784" y="281" on="0"/>
        <pt x="782" y="316" on="1"/>
        <pt x="781" y="338" on="0"/>
        <pt x="781" y="445" on="0"/>
        <pt x="757" y="494" on="1"/>
        <pt x="734" y="540" on="0"/>
        <pt x="693" y="577" on="1"/>
        <pt x="659" y="607" on="0"/>
        <pt x="575" y="645" on="0"/>
        <pt x="531" y="650" on="1"/>
      </contour>
      <contour>
        <pt x="500" y="6" on="1"/>
        <pt x="536" y="6" on="0"/>
        <pt x="589" y="55" on="0"/>
        <pt x="593" y="90" on="1"/>
        <pt x="407" y="90" on="1"/>
        <pt x="411" y="55" on="0"/>
        <pt x="464" y="6" on="0"/>
      </contour>
      <contour>
        <pt x="766" y="152" on="1"/>
        <pt x="625" y="152" on="1"/>
        <pt x="234" y="152" on="1"/>
        <pt x="263" y="196" on="0"/>
        <pt x="272" y="244" on="1"/>
        <pt x="278" y="272" on="0"/>
        <pt x="280" y="311" on="1"/>
        <pt x="281" y="335" on="0"/>
        <pt x="281" y="389" on="1"/>
        <pt x="281" y="392" on="1"/>
        <pt x="281" y="430" on="0"/>
        <pt x="317" y="502" on="0"/>
        <pt x="381" y="558" on="0"/>
        <pt x="460" y="590" on="0"/>
        <pt x="540" y="590" on="0"/>
        <pt x="619" y="558" on="0"/>
        <pt x="683" y="502" on="0"/>
        <pt x="719" y="430" on="0"/>
        <pt x="719" y="392" on="1"/>
        <pt x="719" y="389" on="1"/>
        <pt x="719" y="335" on="0"/>
        <pt x="720" y="311" on="1"/>
        <pt x="722" y="272" on="0"/>
        <pt x="728" y="244" on="1"/>
        <pt x="738" y="196" on="0"/>
      </contour>
    </TTGlyph>
    <TTGlyph name="bell_2_off" xMin="0" yMin="-56" xMax="865" yMax="756">
      <contour>
        <pt x="270" y="536" on="1"/>
        <pt x="145" y="661" on="1"/>
        <pt x="135" y="670" on="0"/>
        <pt x="135" y="696" on="0"/>
        <pt x="154" y="715" on="0"/>
        <pt x="180" y="715" on="0"/>
        <pt x="189" y="705" on="1"/>
        <pt x="855" y="39" on="1"/>
        <pt x="865" y="30" on="0"/>
        <pt x="865" y="4" on="0"/>
        <pt x="846" y="-15" on="0"/>
        <pt x="820" y="-15" on="0"/>
        <pt x="811" y="-5" on="1"/>
        <pt x="716" y="90" on="1"/>
        <pt x="656" y="90" on="1"/>
        <pt x="654" y="50" on="0"/>
        <pt x="611" y="-17" on="0"/>
        <pt x="541" y="-56" on="0"/>
        <pt x="459" y="-56" on="0"/>
        <pt x="390" y="-17" on="0"/>
        <pt x="347" y="50" on="0"/>
        <pt x="344" y="90" on="1"/>
        <pt x="192" y="90" on="1"/>
        <pt x="173" y="90" on="0"/>
        <pt x="151" y="114" on="0"/>
        <pt x="150" y="148" on="0"/>
        <pt x="161" y="160" on="1"/>
        <pt x="182" y="184" on="0"/>
        <pt x="206" y="231" on="0"/>
        <pt x="211" y="257" on="1"/>
        <pt x="216" y="281" on="0"/>
        <pt x="218" y="316" on="1"/>
        <pt x="219" y="338" on="0"/>
        <pt x="219" y="392" on="1"/>
        <pt x="219" y="469" on="0"/>
      </contour>
      <contour>
        <pt x="654" y="152" on="1"/>
        <pt x="625" y="152" on="1"/>
        <pt x="234" y="152" on="1"/>
        <pt x="263" y="196" on="0"/>
        <pt x="272" y="244" on="1"/>
        <pt x="278" y="272" on="0"/>
        <pt x="280" y="311" on="1"/>
        <pt x="281" y="335" on="0"/>
        <pt x="281" y="389" on="1"/>
        <pt x="281" y="392" on="1"/>
        <pt x="281" y="445" on="0"/>
        <pt x="315" y="491" on="1"/>
      </contour>
      <contour>
        <pt x="719" y="389" on="1"/>
        <pt x="719" y="339" on="0"/>
        <pt x="720" y="316" on="1"/>
        <pt x="721" y="279" on="0"/>
        <pt x="726" y="251" on="1"/>
        <pt x="850" y="128" on="1"/>
        <pt x="852" y="147" on="0"/>
        <pt x="840" y="160" on="1"/>
        <pt x="818" y="184" on="0"/>
        <pt x="806" y="208" on="1"/>
        <pt x="794" y="230" on="0"/>
        <pt x="789" y="257" on="1"/>
        <pt x="784" y="281" on="0"/>
        <pt x="782" y="316" on="1"/>
        <pt x="781" y="338" on="0"/>
        <pt x="781" y="445" on="0"/>
        <pt x="757" y="494" on="1"/>
        <pt x="734" y="540" on="0"/>
        <pt x="693" y="577" on="1"/>
        <pt x="659" y="607" on="0"/>
        <pt x="575" y="645" on="0"/>
        <pt x="531" y="650" on="1"/>
        <pt x="531" y="725" on="1"/>
        <pt x="531" y="738" on="0"/>
        <pt x="513" y="756" on="0"/>
        <pt x="487" y="756" on="0"/>
        <pt x="469" y="738" on="0"/>
        <pt x="469" y="725" on="1"/>
        <pt x="469" y="650" on="1"/>
        <pt x="412" y="644" on="0"/>
        <pt x="362" y="615" on="1"/>
        <pt x="409" y="569" on="1"/>
        <pt x="456" y="590" on="0"/>
        <pt x="500" y="590" on="1"/>
        <pt x="540" y="590" on="0"/>
        <pt x="619" y="558" on="0"/>
        <pt x="683" y="502" on="0"/>
        <pt x="719" y="430" on="0"/>
        <pt x="719" y="392" on="1"/>
      </contour>
      <contour>
        <pt x="500" y="6" on="1"/>
        <pt x="536" y="6" on="0"/>
        <pt x="589" y="55" on="0"/>
        <pt x="593" y="90" on="1"/>
        <pt x="407" y="90" on="1"/>
        <pt x="411" y="55" on="0"/>
        <pt x="464" y="6" on="0"/>
      </contour>
    </TTGlyph>
    <TTGlyph name="bicycle_1" xMin="0" yMin="0" xMax="953" yMax="683">
      <contour>
        <pt x="469" y="652" on="1"/>
        <pt x="469" y="665" on="0"/>
        <pt x="487" y="683" on="0"/>
        <pt x="500" y="683" on="1"/>
        <pt x="625" y="683" on="1"/>
        <pt x="635" y="683" on="0"/>
        <pt x="652" y="671" on="0"/>
        <pt x="655" y="661" on="1"/>
        <pt x="780" y="223" on="1"/>
        <pt x="784" y="211" on="0"/>
        <pt x="771" y="188" on="0"/>
        <pt x="746" y="181" on="0"/>
        <pt x="724" y="193" on="0"/>
        <pt x="720" y="206" on="1"/>
        <pt x="648" y="457" on="1"/>
        <pt x="431" y="259" on="1"/>
        <pt x="445" y="228" on="1"/>
        <pt x="450" y="216" on="0"/>
        <pt x="441" y="191" on="0"/>
        <pt x="418" y="181" on="0"/>
        <pt x="394" y="190" on="0"/>
        <pt x="388" y="202" on="1"/>
        <pt x="364" y="254" on="1"/>
        <pt x="364" y="255" on="1"/>
        <pt x="271" y="485" on="1"/>
        <pt x="229" y="485" on="1"/>
        <pt x="216" y="485" on="0"/>
        <pt x="198" y="504" on="0"/>
        <pt x="198" y="530" on="0"/>
        <pt x="216" y="548" on="0"/>
        <pt x="229" y="548" on="1"/>
        <pt x="375" y="548" on="1"/>
        <pt x="388" y="548" on="0"/>
        <pt x="406" y="530" on="0"/>
        <pt x="406" y="504" on="0"/>
        <pt x="388" y="485" on="0"/>
        <pt x="375" y="485" on="1"/>
        <pt x="338" y="485" on="1"/>
        <pt x="405" y="320" on="1"/>
        <pt x="629" y="525" on="1"/>
        <pt x="601" y="621" on="1"/>
        <pt x="500" y="621" on="1"/>
        <pt x="487" y="621" on="0"/>
        <pt x="469" y="639" on="0"/>
      </contour>
      <contour>
        <pt x="224" y="348" on="1"/>
        <pt x="237" y="350" on="0"/>
        <pt x="251" y="371" on="0"/>
        <pt x="247" y="397" on="0"/>
        <pt x="225" y="411" on="0"/>
        <pt x="212" y="409" on="1"/>
        <pt x="167" y="400" on="0"/>
        <pt x="89" y="340" on="0"/>
        <pt x="69" y="295" on="1"/>
        <pt x="50" y="254" on="0"/>
        <pt x="52" y="203" on="1"/>
        <pt x="55" y="157" on="0"/>
        <pt x="80" y="113" on="1"/>
        <pt x="104" y="72" on="0"/>
        <pt x="146" y="46" on="1"/>
        <pt x="187" y="22" on="0"/>
        <pt x="235" y="17" on="1"/>
        <pt x="285" y="14" on="0"/>
        <pt x="328" y="33" on="1"/>
        <pt x="373" y="52" on="0"/>
        <pt x="403" y="89" on="1"/>
        <pt x="411" y="99" on="0"/>
        <pt x="409" y="125" on="0"/>
        <pt x="389" y="141" on="0"/>
        <pt x="363" y="139" on="0"/>
        <pt x="355" y="129" on="1"/>
        <pt x="335" y="104" on="0"/>
        <pt x="271" y="77" on="0"/>
        <pt x="208" y="81" on="0"/>
        <pt x="151" y="116" on="0"/>
        <pt x="116" y="175" on="0"/>
        <pt x="113" y="239" on="0"/>
        <pt x="126" y="270" on="1"/>
        <pt x="139" y="299" on="0"/>
        <pt x="166" y="321" on="1"/>
        <pt x="191" y="340" on="0"/>
      </contour>
      <contour>
        <pt x="838" y="392" on="1"/>
        <pt x="827" y="398" on="0"/>
        <pt x="802" y="389" on="0"/>
        <pt x="790" y="366" on="0"/>
        <pt x="799" y="342" on="0"/>
        <pt x="810" y="336" on="1"/>
        <pt x="848" y="318" on="0"/>
        <pt x="888" y="244" on="0"/>
        <pt x="882" y="164" on="0"/>
        <pt x="855" y="129" on="1"/>
        <pt x="829" y="97" on="0"/>
        <pt x="749" y="73" on="0"/>
        <pt x="710" y="85" on="1"/>
        <pt x="668" y="99" on="0"/>
        <pt x="618" y="163" on="0"/>
        <pt x="612" y="247" on="0"/>
        <pt x="633" y="282" on="1"/>
        <pt x="639" y="293" on="0"/>
        <pt x="632" y="318" on="0"/>
        <pt x="610" y="332" on="0"/>
        <pt x="585" y="325" on="0"/>
        <pt x="579" y="314" on="1"/>
        <pt x="548" y="261" on="0"/>
        <pt x="558" y="138" on="0"/>
        <pt x="634" y="44" on="0"/>
        <pt x="748" y="8" on="0"/>
        <pt x="867" y="44" on="0"/>
        <pt x="942" y="138" on="0"/>
        <pt x="953" y="258" on="0"/>
        <pt x="893" y="365" on="0"/>
      </contour>
    </TTGlyph>
    <TTGlyph name="bicycle_2" xMin="0" yMin="0" xMax="948" yMax="683">
      <contour>
        <pt x="448" y="652" on="1"/>
        <pt x="448" y="665" on="0"/>
        <pt x="466" y="683" on="0"/>
        <pt x="479" y="683" on="1"/>
        <pt x="583" y="683" on="1"/>
        <pt x="593" y="683" on="0"/>
        <pt x="609" y="672" on="0"/>
        <pt x="613" y="663" on="1"/>
        <pt x="710" y="408" on="1"/>
        <pt x="732" y="413" on="0"/>
        <pt x="750" y="413" on="1"/>
        <pt x="804" y="413" on="0"/>
        <pt x="895" y="360" on="0"/>
        <pt x="948" y="269" on="0"/>
        <pt x="948" y="161" on="0"/>
        <pt x="895" y="70" on="0"/>
        <pt x="804" y="17" on="0"/>
        <pt x="696" y="17" on="0"/>
        <pt x="605" y="70" on="0"/>
        <pt x="552" y="161" on="0"/>
        <pt x="552" y="269" on="0"/>
        <pt x="606" y="360" on="0"/>
        <pt x="651" y="386" on="1"/>
        <pt x="626" y="452" on="1"/>
        <pt x="446" y="187" on="1"/>
        <pt x="440" y="140" on="0"/>
        <pt x="384" y="62" on="0"/>
        <pt x="299" y="17" on="0"/>
        <pt x="250" y="17" on="1"/>
        <pt x="196" y="17" on="0"/>
        <pt x="105" y="70" on="0"/>
        <pt x="52" y="161" on="0"/>
        <pt x="52" y="269" on="0"/>
        <pt x="105" y="360" on="0"/>
        <pt x="196" y="413" on="0"/>
        <pt x="250" y="413" on="1"/>
        <pt x="313" y="413" on="0"/>
        <pt x="415" y="341" on="0"/>
        <pt x="436" y="283" on="1"/>
        <pt x="471" y="335" on="1"/>
        <pt x="279" y="517" on="1"/>
        <pt x="229" y="517" on="1"/>
        <pt x="216" y="517" on="0"/>
        <pt x="198" y="535" on="0"/>
        <pt x="198" y="561" on="0"/>
        <pt x="216" y="579" on="0"/>
        <pt x="229" y="579" on="1"/>
        <pt x="375" y="579" on="1"/>
        <pt x="388" y="579" on="0"/>
        <pt x="406" y="561" on="0"/>
        <pt x="406" y="535" on="0"/>
        <pt x="388" y="517" on="0"/>
        <pt x="375" y="517" on="1"/>
        <pt x="370" y="517" on="1"/>
        <pt x="506" y="387" on="1"/>
        <pt x="599" y="523" on="1"/>
        <pt x="562" y="621" on="1"/>
        <pt x="479" y="621" on="1"/>
        <pt x="466" y="621" on="0"/>
        <pt x="448" y="639" on="0"/>
      </contour>
      <contour>
        <pt x="382" y="246" on="1"/>
        <pt x="371" y="291" on="0"/>
        <pt x="298" y="350" on="0"/>
        <pt x="250" y="350" on="1"/>
        <pt x="213" y="350" on="0"/>
        <pt x="151" y="313" on="0"/>
        <pt x="115" y="251" on="0"/>
        <pt x="115" y="178" on="0"/>
        <pt x="151" y="116" on="0"/>
        <pt x="213" y="79" on="0"/>
        <pt x="250" y="79" on="1"/>
        <pt x="297" y="79" on="0"/>
        <pt x="371" y="138" on="0"/>
        <pt x="382" y="183" on="1"/>
        <pt x="250" y="183" on="1"/>
        <pt x="237" y="183" on="0"/>
        <pt x="219" y="202" on="0"/>
        <pt x="219" y="228" on="0"/>
        <pt x="237" y="246" on="0"/>
        <pt x="250" y="246" on="1"/>
      </contour>
      <contour>
        <pt x="721" y="204" on="1"/>
        <pt x="674" y="327" on="1"/>
        <pt x="647" y="308" on="0"/>
        <pt x="615" y="249" on="0"/>
        <pt x="615" y="215" on="1"/>
        <pt x="615" y="178" on="0"/>
        <pt x="651" y="116" on="0"/>
        <pt x="713" y="79" on="0"/>
        <pt x="787" y="79" on="0"/>
        <pt x="849" y="116" on="0"/>
        <pt x="885" y="178" on="0"/>
        <pt x="885" y="251" on="0"/>
        <pt x="849" y="313" on="0"/>
        <pt x="787" y="350" on="0"/>
        <pt x="750" y="350" on="1"/>
        <pt x="738" y="350" on="0"/>
        <pt x="732" y="349" on="1"/>
        <pt x="779" y="226" on="1"/>
        <pt x="783" y="214" on="0"/>
        <pt x="773" y="190" on="0"/>
        <pt x="749" y="180" on="0"/>
        <pt x="725" y="191" on="0"/>
      </contour>
    </TTGlyph>
    <TTGlyph name="birdhouse" xMin="0" yMin="-56" xMax="862" yMax="736">
      <contour>
        <pt x="531" y="663" on="1"/>
        <pt x="518" y="673" on="0"/>
        <pt x="483" y="673" on="0"/>
        <pt x="469" y="663" on="1"/>
        <pt x="226" y="480" on="1"/>
        <pt x="214" y="472" on="0"/>
        <pt x="204" y="445" on="0"/>
        <pt x="206" y="430" on="1"/>
        <pt x="269" y="50" on="1"/>
        <pt x="272" y="31" on="0"/>
        <pt x="302" y="6" on="0"/>
        <pt x="321" y="6" on="1"/>
        <pt x="679" y="6" on="1"/>
        <pt x="698" y="6" on="0"/>
        <pt x="728" y="31" on="0"/>
        <pt x="731" y="50" on="1"/>
        <pt x="794" y="430" on="1"/>
        <pt x="796" y="445" on="0"/>
        <pt x="786" y="472" on="0"/>
        <pt x="774" y="480" on="1"/>
      </contour>
      <contour>
        <pt x="431" y="713" on="1"/>
        <pt x="462" y="736" on="0"/>
        <pt x="538" y="736" on="0"/>
        <pt x="569" y="713" on="1"/>
        <pt x="812" y="530" on="1"/>
        <pt x="837" y="511" on="0"/>
        <pt x="861" y="452" on="0"/>
        <pt x="856" y="420" on="1"/>
        <pt x="792" y="40" on="1"/>
        <pt x="785" y="-2" on="0"/>
        <pt x="721" y="-56" on="0"/>
        <pt x="679" y="-56" on="1"/>
        <pt x="321" y="-56" on="1"/>
        <pt x="279" y="-56" on="0"/>
        <pt x="215" y="-2" on="0"/>
        <pt x="208" y="40" on="1"/>
        <pt x="144" y="420" on="1"/>
        <pt x="139" y="452" on="0"/>
        <pt x="163" y="511" on="0"/>
        <pt x="188" y="530" on="1"/>
      </contour>
      <contour>
        <pt x="448" y="131" on="1"/>
        <pt x="448" y="153" on="0"/>
        <pt x="478" y="183" on="0"/>
        <pt x="522" y="183" on="0"/>
        <pt x="552" y="153" on="0"/>
        <pt x="552" y="110" on="0"/>
        <pt x="522" y="79" on="0"/>
        <pt x="478" y="79" on="0"/>
        <pt x="448" y="110" on="0"/>
      </contour>
      <contour>
        <pt x="500" y="501" on="1"/>
        <pt x="465" y="501" on="0"/>
        <pt x="405" y="466" on="0"/>
        <pt x="370" y="406" on="0"/>
        <pt x="370" y="336" on="0"/>
        <pt x="405" y="276" on="0"/>
        <pt x="465" y="241" on="0"/>
        <pt x="535" y="241" on="0"/>
        <pt x="595" y="276" on="0"/>
        <pt x="630" y="336" on="0"/>
        <pt x="630" y="406" on="0"/>
        <pt x="595" y="466" on="0"/>
        <pt x="535" y="501" on="0"/>
      </contour>
      <contour>
        <pt x="422" y="371" on="1"/>
        <pt x="422" y="403" on="0"/>
        <pt x="468" y="449" on="0"/>
        <pt x="532" y="449" on="0"/>
        <pt x="578" y="403" on="0"/>
        <pt x="578" y="339" on="0"/>
        <pt x="532" y="293" on="0"/>
        <pt x="468" y="293" on="0"/>
        <pt x="422" y="339" on="0"/>
      </contour>
    </TTGlyph>
    <TTGlyph name="bluetooth" xMin="0" yMin="-20" xMax="740" yMax="720">
      <contour>
        <pt x="476" y="709" on="1"/>
        <pt x="461" y="720" on="0"/>
        <pt x="444" y="711" on="1"/>
        <pt x="436" y="707" on="0"/>
        <pt x="427" y="692" on="0"/>
        <pt x="427" y="683" on="1"/>
        <pt x="427" y="426" on="1"/>
        <pt x="314" y="539" on="1"/>
        <pt x="305" y="548" on="0"/>
        <pt x="279" y="548" on="0"/>
        <pt x="260" y="530" on="0"/>
        <pt x="260" y="504" on="0"/>
        <pt x="270" y="495" on="1"/>
        <pt x="414" y="350" on="1"/>
        <pt x="270" y="206" on="1"/>
        <pt x="260" y="196" on="0"/>
        <pt x="260" y="171" on="0"/>
        <pt x="279" y="152" on="0"/>
        <pt x="305" y="152" on="0"/>
        <pt x="314" y="161" on="1"/>
        <pt x="427" y="275" on="1"/>
        <pt x="427" y="17" on="1"/>
        <pt x="427" y="-2" on="0"/>
        <pt x="461" y="-19" on="0"/>
        <pt x="476" y="-9" on="1"/>
        <pt x="726" y="157" on="1"/>
        <pt x="732" y="162" on="0"/>
        <pt x="740" y="176" on="0"/>
        <pt x="740" y="191" on="0"/>
        <pt x="732" y="205" on="0"/>
        <pt x="726" y="209" on="1"/>
        <pt x="515" y="350" on="1"/>
        <pt x="726" y="491" on="1"/>
        <pt x="740" y="502" on="0"/>
        <pt x="740" y="517" on="1"/>
        <pt x="740" y="524" on="0"/>
        <pt x="732" y="538" on="0"/>
        <pt x="726" y="543" on="1"/>
      </contour>
      <contour>
        <pt x="490" y="409" on="1"/>
        <pt x="490" y="625" on="1"/>
        <pt x="652" y="517" on="1"/>
      </contour>
      <contour>
        <pt x="490" y="75" on="1"/>
        <pt x="490" y="292" on="1"/>
        <pt x="652" y="183" on="1"/>
      </contour>
    </TTGlyph>
    <TTGlyph name="bluetoothoff" xMin="0" yMin="-20" xMax="865" yMax="720">
      <contour>
        <pt x="679" y="127" on="1"/>
        <pt x="811" y="-5" on="1"/>
        <pt x="820" y="-15" on="0"/>
        <pt x="846" y="-15" on="0"/>
        <pt x="865" y="4" on="0"/>
        <pt x="865" y="30" on="0"/>
        <pt x="855" y="39" on="1"/>
        <pt x="189" y="705" on="1"/>
        <pt x="180" y="715" on="0"/>
        <pt x="154" y="715" on="0"/>
        <pt x="135" y="696" on="0"/>
        <pt x="135" y="670" on="0"/>
        <pt x="145" y="661" on="1"/>
        <pt x="427" y="379" on="1"/>
        <pt x="427" y="363" on="1"/>
        <pt x="270" y="206" on="1"/>
        <pt x="260" y="196" on="0"/>
        <pt x="260" y="171" on="0"/>
        <pt x="279" y="152" on="0"/>
        <pt x="305" y="152" on="0"/>
        <pt x="314" y="161" on="1"/>
        <pt x="427" y="275" on="1"/>
        <pt x="427" y="17" on="1"/>
        <pt x="427" y="-2" on="0"/>
        <pt x="461" y="-19" on="0"/>
        <pt x="476" y="-9" on="1"/>
      </contour>
      <contour>
        <pt x="563" y="242" on="1"/>
        <pt x="634" y="172" on="1"/>
        <pt x="490" y="75" on="1"/>
        <pt x="490" y="292" on="1"/>
      </contour>
      <contour>
        <pt x="726" y="491" on="1"/>
        <pt x="582" y="395" on="1"/>
        <pt x="537" y="440" on="1"/>
        <pt x="652" y="517" on="1"/>
        <pt x="490" y="625" on="1"/>
        <pt x="490" y="488" on="1"/>
        <pt x="427" y="550" on="1"/>
        <pt x="427" y="683" on="1"/>
        <pt x="427" y="692" on="0"/>
        <pt x="436" y="707" on="0"/>
        <pt x="444" y="711" on="1"/>
        <pt x="461" y="720" on="0"/>
        <pt x="476" y="709" on="1"/>
        <pt x="726" y="543" on="1"/>
        <pt x="732" y="538" on="0"/>
        <pt x="740" y="524" on="0"/>
        <pt x="740" y="517" on="1"/>
        <pt x="740" y="502" on="0"/>
      </contour>
    </TTGlyph>
    <TTGlyph name="box" xMin="0" yMin="-57" xMax="865" yMax="757">
      <contour>
        <pt x="515" y="752" on="1"/>
        <pt x="508" y="757" on="0"/>
        <pt x="492" y="757" on="0"/>
        <pt x="485" y="752" on="1"/>
        <pt x="151" y="565" on="1"/>
        <pt x="144" y="560" on="0"/>
        <pt x="135" y="546" on="0"/>
        <pt x="135" y="538" on="1"/>
        <pt x="135" y="163" on="1"/>
        <pt x="135" y="146" on="0"/>
        <pt x="151" y="135" on="1"/>
        <pt x="485" y="-52" on="1"/>
        <pt x="492" y="-56" on="0"/>
        <pt x="508" y="-56" on="0"/>
        <pt x="515" y="-52" on="1"/>
        <pt x="849" y="135" on="1"/>
        <pt x="865" y="145" on="0"/>
        <pt x="865" y="163" on="1"/>
        <pt x="865" y="538" on="1"/>
        <pt x="865" y="555" on="0"/>
        <pt x="849" y="565" on="1"/>
      </contour>
      <contour>
        <pt x="469" y="332" on="1"/>
        <pt x="198" y="484" on="1"/>
        <pt x="198" y="181" on="1"/>
        <pt x="469" y="28" on="1"/>
      </contour>
      <contour>
        <pt x="802" y="181" on="1"/>
        <pt x="531" y="28" on="1"/>
        <pt x="531" y="332" on="1"/>
        <pt x="802" y="484" on="1"/>
      </contour>
      <contour>
        <pt x="770" y="538" on="1"/>
        <pt x="500" y="386" on="1"/>
        <pt x="393" y="446" on="1"/>
        <pt x="666" y="596" on="1"/>
      </contour>
      <contour>
        <pt x="602" y="632" on="1"/>
        <pt x="328" y="482" on="1"/>
        <pt x="230" y="538" on="1"/>
        <pt x="500" y="689" on="1"/>
      </contour>
    </TTGlyph>
    <TTGlyph name="boxwithlid" xMin="0" yMin="-15" xMax="865" yMax="715">
      <contour>
        <pt x="135" y="673" on="1"/>
        <pt x="135" y="690" on="0"/>
        <pt x="160" y="715" on="0"/>
        <pt x="177" y="715" on="1"/>
        <pt x="823" y="715" on="1"/>
        <pt x="840" y="715" on="0"/>
        <pt x="865" y="690" on="0"/>
        <pt x="865" y="673" on="1"/>
        <pt x="865" y="527" on="1"/>
        <pt x="865" y="510" on="0"/>
        <pt x="840" y="485" on="0"/>
        <pt x="823" y="485" on="1"/>
        <pt x="823" y="58" on="1"/>
        <pt x="823" y="28" on="0"/>
        <pt x="780" y="-15" on="0"/>
        <pt x="750" y="-15" on="1"/>
        <pt x="250" y="-15" on="1"/>
        <pt x="220" y="-15" on="0"/>
        <pt x="177" y="28" on="0"/>
        <pt x="177" y="58" on="1"/>
        <pt x="177" y="485" on="1"/>
        <pt x="160" y="485" on="0"/>
        <pt x="135" y="510" on="0"/>
        <pt x="135" y="527" on="1"/>
      </contour>
      <contour>
        <pt x="240" y="485" on="1"/>
        <pt x="760" y="485" on="1"/>
        <pt x="760" y="58" on="1"/>
        <pt x="760" y="54" on="0"/>
        <pt x="754" y="48" on="0"/>
        <pt x="750" y="48" on="1"/>
        <pt x="250" y="48" on="1"/>
        <pt x="246" y="48" on="0"/>
        <pt x="240" y="54" on="0"/>
        <pt x="240" y="58" on="1"/>
      </contour>
      <contour>
        <pt x="802" y="652" on="1"/>
        <pt x="802" y="548" on="1"/>
        <pt x="198" y="548" on="1"/>
        <pt x="198" y="652" on="1"/>
      </contour>
      <contour>
        <pt x="417" y="381" on="1"/>
        <pt x="404" y="381" on="0"/>
        <pt x="385" y="363" on="0"/>
        <pt x="385" y="337" on="0"/>
        <pt x="404" y="319" on="0"/>
        <pt x="417" y="319" on="1"/>
        <pt x="583" y="319" on="1"/>
        <pt x="596" y="319" on="0"/>
        <pt x="615" y="337" on="0"/>
        <pt x="615" y="363" on="0"/>
        <pt x="596" y="381" on="0"/>
        <pt x="583" y="381" on="1"/>
      </contour>
    </TTGlyph>
    <TTGlyph name="boxwithtape" xMin="0" yMin="-15" xMax="865" yMax="715">
      <contour>
        <pt x="208" y="715" on="1"/>
        <pt x="178" y="715" on="0"/>
        <pt x="135" y="672" on="0"/>
        <pt x="135" y="642" on="1"/>
        <pt x="135" y="58" on="1"/>
        <pt x="135" y="28" on="0"/>
        <pt x="178" y="-15" on="0"/>
        <pt x="208" y="-15" on="1"/>
        <pt x="792" y="-15" on="1"/>
        <pt x="822" y="-15" on="0"/>
        <pt x="865" y="28" on="0"/>
        <pt x="865" y="58" on="1"/>
        <pt x="865" y="642" on="1"/>
        <pt x="865" y="672" on="0"/>
        <pt x="822" y="715" on="0"/>
        <pt x="792" y="715" on="1"/>
      </contour>
      <contour>
        <pt x="385" y="652" on="1"/>
        <pt x="208" y="652" on="1"/>
        <pt x="204" y="652" on="0"/>
        <pt x="198" y="646" on="0"/>
        <pt x="198" y="642" on="1"/>
        <pt x="198" y="58" on="1"/>
        <pt x="198" y="54" on="0"/>
        <pt x="204" y="48" on="0"/>
        <pt x="208" y="48" on="1"/>
        <pt x="792" y="48" on="1"/>
        <pt x="796" y="48" on="0"/>
        <pt x="802" y="54" on="0"/>
        <pt x="802" y="58" on="1"/>
        <pt x="802" y="642" on="1"/>
        <pt x="802" y="646" on="0"/>
        <pt x="796" y="652" on="0"/>
        <pt x="792" y="652" on="1"/>
        <pt x="615" y="652" on="1"/>
        <pt x="615" y="433" on="1"/>
        <pt x="615" y="425" on="0"/>
        <pt x="607" y="411" on="0"/>
        <pt x="593" y="403" on="0"/>
        <pt x="577" y="402" on="0"/>
        <pt x="569" y="405" on="1"/>
        <pt x="500" y="440" on="1"/>
        <pt x="431" y="405" on="1"/>
        <pt x="414" y="398" on="0"/>
        <pt x="400" y="407" on="1"/>
        <pt x="393" y="411" on="0"/>
        <pt x="385" y="425" on="0"/>
        <pt x="385" y="433" on="1"/>
      </contour>
      <contour>
        <pt x="552" y="652" on="1"/>
        <pt x="448" y="652" on="1"/>
        <pt x="448" y="484" on="1"/>
        <pt x="486" y="503" on="1"/>
        <pt x="500" y="509" on="0"/>
        <pt x="514" y="503" on="1"/>
        <pt x="552" y="484" on="1"/>
      </contour>
    </TTGlyph>
    <TTGlyph name="brain" xMin="0" yMin="-56" xMax="906" yMax="756">
      <contour>
        <pt x="188" y="470" on="1"/>
        <pt x="188" y="501" on="0"/>
        <pt x="220" y="553" on="0"/>
        <pt x="246" y="567" on="1"/>
        <pt x="251" y="554" on="0"/>
        <pt x="258" y="540" on="1"/>
        <pt x="264" y="529" on="0"/>
        <pt x="289" y="522" on="0"/>
        <pt x="311" y="534" on="0"/>
        <pt x="319" y="559" on="0"/>
        <pt x="312" y="570" on="1"/>
        <pt x="304" y="585" on="0"/>
        <pt x="302" y="607" on="1"/>
        <pt x="302" y="627" on="0"/>
        <pt x="317" y="662" on="0"/>
        <pt x="347" y="687" on="0"/>
        <pt x="365" y="691" on="1"/>
        <pt x="376" y="694" on="0"/>
        <pt x="385" y="694" on="1"/>
        <pt x="392" y="694" on="0"/>
        <pt x="402" y="692" on="1"/>
        <pt x="421" y="688" on="0"/>
        <pt x="437" y="676" on="1"/>
        <pt x="440" y="673" on="0"/>
        <pt x="442" y="672" on="1"/>
        <pt x="444" y="670" on="1"/>
        <pt x="446" y="668" on="0"/>
        <pt x="447" y="667" on="1"/>
        <pt x="456" y="656" on="0"/>
        <pt x="460" y="647" on="1"/>
        <pt x="469" y="631" on="0"/>
        <pt x="469" y="612" on="1"/>
        <pt x="469" y="475" on="1"/>
        <pt x="469" y="475" on="1"/>
        <pt x="469" y="475" on="1"/>
        <pt x="469" y="423" on="0"/>
        <pt x="431" y="381" on="1"/>
        <pt x="415" y="365" on="0"/>
        <pt x="396" y="353" on="1"/>
        <pt x="380" y="343" on="0"/>
        <pt x="365" y="338" on="1"/>
        <pt x="353" y="334" on="0"/>
        <pt x="341" y="311" on="0"/>
        <pt x="350" y="286" on="0"/>
        <pt x="373" y="275" on="0"/>
        <pt x="385" y="279" on="1"/>
        <pt x="404" y="285" on="0"/>
        <pt x="425" y="297" on="1"/>
        <pt x="449" y="311" on="0"/>
        <pt x="469" y="331" on="1"/>
        <pt x="469" y="131" on="1"/>
        <pt x="469" y="97" on="0"/>
        <pt x="435" y="40" on="0"/>
        <pt x="378" y="6" on="0"/>
        <pt x="344" y="6" on="1"/>
        <pt x="301" y="6" on="0"/>
        <pt x="234" y="59" on="0"/>
        <pt x="223" y="99" on="1"/>
        <pt x="243" y="92" on="0"/>
        <pt x="259" y="91" on="1"/>
        <pt x="272" y="90" on="0"/>
        <pt x="292" y="105" on="0"/>
        <pt x="295" y="131" on="0"/>
        <pt x="279" y="151" on="0"/>
        <pt x="266" y="153" on="1"/>
        <pt x="224" y="158" on="0"/>
        <pt x="164" y="216" on="0"/>
        <pt x="158" y="257" on="1"/>
        <pt x="156" y="269" on="0"/>
        <pt x="156" y="276" on="1"/>
        <pt x="156" y="277" on="1"/>
        <pt x="156" y="308" on="0"/>
        <pt x="171" y="335" on="1"/>
        <pt x="189" y="371" on="0"/>
        <pt x="227" y="390" on="1"/>
        <pt x="239" y="395" on="0"/>
        <pt x="248" y="420" on="0"/>
        <pt x="237" y="443" on="0"/>
        <pt x="212" y="452" on="0"/>
        <pt x="201" y="446" on="1"/>
        <pt x="199" y="445" on="0"/>
        <pt x="195" y="444" on="1"/>
        <pt x="191" y="442" on="1"/>
        <pt x="188" y="456" on="0"/>
      </contour>
      <contour>
        <pt x="500" y="28" on="1"/>
        <pt x="474" y="-11" on="0"/>
        <pt x="392" y="-56" on="0"/>
        <pt x="344" y="-56" on="1"/>
        <pt x="293" y="-56" on="0"/>
        <pt x="207" y="-6" on="0"/>
        <pt x="156" y="80" on="0"/>
        <pt x="156" y="131" on="1"/>
        <pt x="156" y="137" on="1"/>
        <pt x="155" y="138" on="1"/>
        <pt x="154" y="140" on="0"/>
        <pt x="149" y="145" on="0"/>
        <pt x="143" y="151" on="1"/>
        <pt x="139" y="155" on="1"/>
        <pt x="118" y="180" on="0"/>
        <pt x="94" y="243" on="0"/>
        <pt x="94" y="312" on="0"/>
        <pt x="118" y="375" on="0"/>
        <pt x="140" y="400" on="1"/>
        <pt x="125" y="432" on="0"/>
        <pt x="125" y="470" on="1"/>
        <pt x="125" y="525" on="0"/>
        <pt x="190" y="615" on="0"/>
        <pt x="241" y="633" on="1"/>
        <pt x="249" y="686" on="0"/>
        <pt x="331" y="756" on="0"/>
        <pt x="385" y="756" on="1"/>
        <pt x="386" y="756" on="1"/>
        <pt x="414" y="756" on="0"/>
        <pt x="465" y="735" on="0"/>
        <pt x="485" y="717" on="1"/>
        <pt x="487" y="715" on="1"/>
        <pt x="491" y="712" on="0"/>
        <pt x="492" y="710" on="1"/>
        <pt x="500" y="701" on="1"/>
        <pt x="508" y="710" on="1"/>
        <pt x="509" y="712" on="0"/>
        <pt x="513" y="715" on="1"/>
        <pt x="515" y="717" on="1"/>
        <pt x="535" y="735" on="0"/>
        <pt x="586" y="756" on="0"/>
        <pt x="615" y="756" on="1"/>
        <pt x="615" y="756" on="1"/>
        <pt x="669" y="756" on="0"/>
        <pt x="751" y="686" on="0"/>
        <pt x="759" y="633" on="1"/>
        <pt x="810" y="615" on="0"/>
        <pt x="875" y="525" on="0"/>
        <pt x="875" y="470" on="1"/>
        <pt x="875" y="432" on="0"/>
        <pt x="860" y="400" on="1"/>
        <pt x="882" y="375" on="0"/>
        <pt x="906" y="312" on="0"/>
        <pt x="906" y="243" on="0"/>
        <pt x="882" y="180" on="0"/>
        <pt x="861" y="155" on="1"/>
        <pt x="849" y="142" on="1"/>
        <pt x="846" y="141" on="0"/>
        <pt x="845" y="138" on="1"/>
        <pt x="844" y="137" on="1"/>
        <pt x="844" y="131" on="1"/>
        <pt x="844" y="80" on="0"/>
        <pt x="793" y="-6" on="0"/>
        <pt x="707" y="-56" on="0"/>
        <pt x="656" y="-56" on="1"/>
        <pt x="608" y="-56" on="0"/>
        <pt x="526" y="-11" on="0"/>
      </contour>
      <contour>
        <pt x="531" y="475" on="1"/>
        <pt x="531" y="422" on="0"/>
        <pt x="570" y="381" on="1"/>
        <pt x="585" y="365" on="0"/>
        <pt x="604" y="353" on="1"/>
        <pt x="620" y="343" on="0"/>
        <pt x="635" y="338" on="1"/>
        <pt x="647" y="334" on="0"/>
        <pt x="659" y="311" on="0"/>
        <pt x="650" y="286" on="0"/>
        <pt x="628" y="275" on="0"/>
        <pt x="615" y="279" on="1"/>
        <pt x="596" y="285" on="0"/>
        <pt x="575" y="297" on="1"/>
        <pt x="551" y="311" on="0"/>
        <pt x="531" y="331" on="1"/>
        <pt x="531" y="131" on="1"/>
        <pt x="531" y="97" on="0"/>
        <pt x="565" y="40" on="0"/>
        <pt x="622" y="6" on="0"/>
        <pt x="656" y="6" on="1"/>
        <pt x="699" y="6" on="0"/>
        <pt x="766" y="59" on="0"/>
        <pt x="777" y="99" on="1"/>
        <pt x="757" y="92" on="0"/>
        <pt x="741" y="91" on="1"/>
        <pt x="728" y="90" on="0"/>
        <pt x="709" y="105" on="0"/>
        <pt x="705" y="131" on="0"/>
        <pt x="721" y="151" on="0"/>
        <pt x="734" y="153" on="1"/>
        <pt x="776" y="158" on="0"/>
        <pt x="836" y="216" on="0"/>
        <pt x="842" y="257" on="1"/>
        <pt x="844" y="269" on="0"/>
        <pt x="844" y="276" on="1"/>
        <pt x="844" y="277" on="1"/>
        <pt x="844" y="307" on="0"/>
        <pt x="830" y="335" on="1"/>
        <pt x="810" y="371" on="0"/>
        <pt x="773" y="390" on="1"/>
        <pt x="761" y="395" on="0"/>
        <pt x="752" y="420" on="0"/>
        <pt x="763" y="443" on="0"/>
        <pt x="788" y="452" on="0"/>
        <pt x="800" y="446" on="1"/>
        <pt x="809" y="442" on="1"/>
        <pt x="813" y="460" on="0"/>
        <pt x="813" y="470" on="1"/>
        <pt x="813" y="501" on="0"/>
        <pt x="781" y="553" on="0"/>
        <pt x="754" y="567" on="1"/>
        <pt x="750" y="554" on="0"/>
        <pt x="742" y="540" on="1"/>
        <pt x="736" y="529" on="0"/>
        <pt x="711" y="522" on="0"/>
        <pt x="689" y="534" on="0"/>
        <pt x="681" y="559" on="0"/>
        <pt x="688" y="570" on="1"/>
        <pt x="696" y="585" on="0"/>
        <pt x="698" y="607" on="1"/>
        <pt x="698" y="627" on="0"/>
        <pt x="683" y="662" on="0"/>
        <pt x="653" y="687" on="0"/>
        <pt x="635" y="691" on="1"/>
        <pt x="626" y="694" on="0"/>
        <pt x="615" y="694" on="1"/>
        <pt x="608" y="694" on="0"/>
        <pt x="598" y="692" on="1"/>
        <pt x="578" y="687" on="0"/>
        <pt x="564" y="676" on="1"/>
        <pt x="558" y="672" on="1"/>
        <pt x="556" y="670" on="1"/>
        <pt x="554" y="668" on="0"/>
        <pt x="553" y="667" on="1"/>
        <pt x="544" y="656" on="0"/>
        <pt x="540" y="647" on="1"/>
        <pt x="533" y="634" on="0"/>
        <pt x="531" y="612" on="1"/>
        <pt x="531" y="475" on="1"/>
        <pt x="531" y="475" on="1"/>
      </contour>
    </TTGlyph>
    <TTGlyph name="briefcase_1" xMin="0" yMin="-16" xMax="906" yMax="756">
      <contour>
        <pt x="417" y="756" on="1"/>
        <pt x="386" y="756" on="0"/>
        <pt x="333" y="725" on="0"/>
        <pt x="302" y="673" on="0"/>
        <pt x="302" y="642" on="1"/>
        <pt x="302" y="590" on="1"/>
        <pt x="208" y="590" on="1"/>
        <pt x="177" y="590" on="0"/>
        <pt x="125" y="559" on="0"/>
        <pt x="94" y="506" on="0"/>
        <pt x="94" y="475" on="1"/>
        <pt x="94" y="100" on="1"/>
        <pt x="94" y="69" on="0"/>
        <pt x="125" y="16" on="0"/>
        <pt x="177" y="-15" on="0"/>
        <pt x="208" y="-15" on="1"/>
        <pt x="792" y="-15" on="1"/>
        <pt x="823" y="-15" on="0"/>
        <pt x="875" y="16" on="0"/>
        <pt x="906" y="69" on="0"/>
        <pt x="906" y="100" on="1"/>
        <pt x="906" y="475" on="1"/>
        <pt x="906" y="506" on="0"/>
        <pt x="875" y="559" on="0"/>
        <pt x="823" y="590" on="0"/>
        <pt x="792" y="590" on="1"/>
        <pt x="698" y="590" on="1"/>
        <pt x="698" y="642" on="1"/>
        <pt x="698" y="673" on="0"/>
        <pt x="667" y="725" on="0"/>
        <pt x="614" y="756" on="0"/>
        <pt x="583" y="756" on="1"/>
      </contour>
      <contour>
        <pt x="635" y="590" on="1"/>
        <pt x="635" y="642" on="1"/>
        <pt x="635" y="663" on="0"/>
        <pt x="605" y="694" on="0"/>
        <pt x="583" y="694" on="1"/>
        <pt x="417" y="694" on="1"/>
        <pt x="395" y="694" on="0"/>
        <pt x="365" y="663" on="0"/>
        <pt x="365" y="642" on="1"/>
        <pt x="365" y="590" on="1"/>
      </contour>
      <contour>
        <pt x="302" y="527" on="1"/>
        <pt x="208" y="527" on="1"/>
        <pt x="187" y="527" on="0"/>
        <pt x="156" y="497" on="0"/>
        <pt x="156" y="475" on="1"/>
        <pt x="156" y="100" on="1"/>
        <pt x="156" y="78" on="0"/>
        <pt x="187" y="48" on="0"/>
        <pt x="208" y="48" on="1"/>
        <pt x="792" y="48" on="1"/>
        <pt x="813" y="48" on="0"/>
        <pt x="844" y="78" on="0"/>
        <pt x="844" y="100" on="1"/>
        <pt x="844" y="475" on="1"/>
        <pt x="844" y="497" on="0"/>
        <pt x="813" y="527" on="0"/>
        <pt x="792" y="527" on="1"/>
      </contour>
    </TTGlyph>
    <TTGlyph name="briefcase_2" xMin="0" yMin="-16" xMax="906" yMax="756">
      <contour>
        <pt x="417" y="756" on="1"/>
        <pt x="386" y="756" on="0"/>
        <pt x="333" y="725" on="0"/>
        <pt x="302" y="673" on="0"/>
        <pt x="302" y="642" on="1"/>
        <pt x="302" y="590" on="1"/>
        <pt x="208" y="590" on="1"/>
        <pt x="177" y="590" on="0"/>
        <pt x="125" y="559" on="0"/>
        <pt x="94" y="506" on="0"/>
        <pt x="94" y="475" on="1"/>
        <pt x="94" y="100" on="1"/>
        <pt x="94" y="69" on="0"/>
        <pt x="125" y="16" on="0"/>
        <pt x="177" y="-15" on="0"/>
        <pt x="208" y="-15" on="1"/>
        <pt x="792" y="-15" on="1"/>
        <pt x="823" y="-15" on="0"/>
        <pt x="875" y="16" on="0"/>
        <pt x="906" y="69" on="0"/>
        <pt x="906" y="100" on="1"/>
        <pt x="906" y="475" on="1"/>
        <pt x="906" y="506" on="0"/>
        <pt x="875" y="559" on="0"/>
        <pt x="823" y="590" on="0"/>
        <pt x="792" y="590" on="1"/>
        <pt x="698" y="590" on="1"/>
        <pt x="698" y="642" on="1"/>
        <pt x="698" y="673" on="0"/>
        <pt x="667" y="725" on="0"/>
        <pt x="614" y="756" on="0"/>
        <pt x="583" y="756" on="1"/>
      </contour>
      <contour>
        <pt x="635" y="590" on="1"/>
        <pt x="635" y="642" on="1"/>
        <pt x="635" y="663" on="0"/>
        <pt x="605" y="694" on="0"/>
        <pt x="583" y="694" on="1"/>
        <pt x="417" y="694" on="1"/>
        <pt x="395" y="694" on="0"/>
        <pt x="365" y="663" on="0"/>
        <pt x="365" y="642" on="1"/>
        <pt x="365" y="590" on="1"/>
      </contour>
      <contour>
        <pt x="302" y="527" on="1"/>
        <pt x="208" y="527" on="1"/>
        <pt x="187" y="527" on="0"/>
        <pt x="156" y="497" on="0"/>
        <pt x="156" y="475" on="1"/>
        <pt x="156" y="322" on="1"/>
        <pt x="226" y="284" on="0"/>
        <pt x="318" y="261" on="1"/>
        <pt x="415" y="235" on="0"/>
        <pt x="585" y="235" on="0"/>
        <pt x="682" y="261" on="1"/>
        <pt x="774" y="284" on="0"/>
        <pt x="844" y="322" on="1"/>
        <pt x="844" y="475" on="1"/>
        <pt x="844" y="497" on="0"/>
        <pt x="813" y="527" on="0"/>
        <pt x="792" y="527" on="1"/>
      </contour>
      <contour>
        <pt x="156" y="100" on="1"/>
        <pt x="156" y="252" on="1"/>
        <pt x="232" y="217" on="0"/>
        <pt x="321" y="196" on="1"/>
        <pt x="417" y="173" on="0"/>
        <pt x="584" y="173" on="0"/>
        <pt x="679" y="196" on="1"/>
        <pt x="768" y="217" on="0"/>
        <pt x="844" y="252" on="1"/>
        <pt x="844" y="100" on="1"/>
        <pt x="844" y="78" on="0"/>
        <pt x="813" y="48" on="0"/>
        <pt x="792" y="48" on="1"/>
        <pt x="208" y="48" on="1"/>
        <pt x="187" y="48" on="0"/>
        <pt x="156" y="78" on="0"/>
      </contour>
      <contour>
        <pt x="500" y="308" on="1"/>
        <pt x="517" y="308" on="0"/>
        <pt x="542" y="333" on="0"/>
        <pt x="542" y="367" on="0"/>
        <pt x="517" y="392" on="0"/>
        <pt x="483" y="392" on="0"/>
        <pt x="458" y="367" on="0"/>
        <pt x="458" y="333" on="0"/>
        <pt x="483" y="308" on="0"/>
      </contour>
    </TTGlyph>
    <TTGlyph name="briefcase_3" xMin="0" yMin="-16" xMax="906" yMax="756">
      <contour>
        <pt x="417" y="756" on="1"/>
        <pt x="386" y="756" on="0"/>
        <pt x="333" y="725" on="0"/>
        <pt x="302" y="673" on="0"/>
        <pt x="302" y="642" on="1"/>
        <pt x="302" y="590" on="1"/>
        <pt x="208" y="590" on="1"/>
        <pt x="177" y="590" on="0"/>
        <pt x="125" y="559" on="0"/>
        <pt x="94" y="506" on="0"/>
        <pt x="94" y="475" on="1"/>
        <pt x="94" y="100" on="1"/>
        <pt x="94" y="69" on="0"/>
        <pt x="125" y="16" on="0"/>
        <pt x="177" y="-15" on="0"/>
        <pt x="208" y="-15" on="1"/>
        <pt x="792" y="-15" on="1"/>
        <pt x="823" y="-15" on="0"/>
        <pt x="875" y="16" on="0"/>
        <pt x="906" y="69" on="0"/>
        <pt x="906" y="100" on="1"/>
        <pt x="906" y="475" on="1"/>
        <pt x="906" y="506" on="0"/>
        <pt x="875" y="559" on="0"/>
        <pt x="823" y="590" on="0"/>
        <pt x="792" y="590" on="1"/>
        <pt x="698" y="590" on="1"/>
        <pt x="698" y="642" on="1"/>
        <pt x="698" y="673" on="0"/>
        <pt x="667" y="725" on="0"/>
        <pt x="614" y="756" on="0"/>
        <pt x="583" y="756" on="1"/>
      </contour>
      <contour>
        <pt x="635" y="590" on="1"/>
        <pt x="635" y="642" on="1"/>
        <pt x="635" y="663" on="0"/>
        <pt x="605" y="694" on="0"/>
        <pt x="583" y="694" on="1"/>
        <pt x="417" y="694" on="1"/>
        <pt x="395" y="694" on="0"/>
        <pt x="365" y="663" on="0"/>
        <pt x="365" y="642" on="1"/>
        <pt x="365" y="590" on="1"/>
      </contour>
      <contour>
        <pt x="302" y="527" on="1"/>
        <pt x="208" y="527" on="1"/>
        <pt x="187" y="527" on="0"/>
        <pt x="156" y="497" on="0"/>
        <pt x="156" y="475" on="1"/>
        <pt x="156" y="385" on="1"/>
        <pt x="208" y="357" on="0"/>
        <pt x="272" y="336" on="1"/>
        <pt x="340" y="315" on="0"/>
        <pt x="407" y="305" on="1"/>
        <pt x="409" y="328" on="0"/>
        <pt x="445" y="360" on="0"/>
        <pt x="469" y="360" on="1"/>
        <pt x="531" y="360" on="1"/>
        <pt x="555" y="360" on="0"/>
        <pt x="591" y="328" on="0"/>
        <pt x="593" y="305" on="1"/>
        <pt x="660" y="315" on="0"/>
        <pt x="728" y="336" on="1"/>
        <pt x="792" y="357" on="0"/>
        <pt x="844" y="385" on="1"/>
        <pt x="844" y="475" on="1"/>
        <pt x="844" y="497" on="0"/>
        <pt x="813" y="527" on="0"/>
        <pt x="792" y="527" on="1"/>
      </contour>
      <contour>
        <pt x="594" y="242" on="1"/>
        <pt x="594" y="235" on="1"/>
        <pt x="594" y="209" on="0"/>
        <pt x="557" y="173" on="0"/>
        <pt x="531" y="173" on="1"/>
        <pt x="469" y="173" on="1"/>
        <pt x="443" y="173" on="0"/>
        <pt x="406" y="209" on="0"/>
        <pt x="406" y="235" on="1"/>
        <pt x="406" y="242" on="1"/>
        <pt x="341" y="251" on="0"/>
        <pt x="211" y="289" on="0"/>
        <pt x="156" y="315" on="1"/>
        <pt x="156" y="100" on="1"/>
        <pt x="156" y="78" on="0"/>
        <pt x="187" y="48" on="0"/>
        <pt x="208" y="48" on="1"/>
        <pt x="792" y="48" on="1"/>
        <pt x="813" y="48" on="0"/>
        <pt x="844" y="78" on="0"/>
        <pt x="844" y="100" on="1"/>
        <pt x="844" y="315" on="1"/>
        <pt x="790" y="289" on="0"/>
        <pt x="660" y="251" on="0"/>
      </contour>
      <contour>
        <pt x="469" y="298" on="1"/>
        <pt x="531" y="298" on="1"/>
        <pt x="531" y="235" on="1"/>
        <pt x="469" y="235" on="1"/>
      </contour>
    </TTGlyph>
    <TTGlyph name="brush_1" xMin="0" yMin="-56" xMax="906" yMax="756">
      <contour>
        <pt x="443" y="439" on="1"/>
        <pt x="402" y="383" on="0"/>
        <pt x="373" y="322" on="1"/>
        <pt x="406" y="307" on="0"/>
        <pt x="457" y="256" on="0"/>
        <pt x="472" y="223" on="1"/>
        <pt x="533" y="253" on="0"/>
        <pt x="589" y="294" on="1"/>
        <pt x="563" y="351" on="0"/>
        <pt x="501" y="414" on="0"/>
      </contour>
      <contour>
        <pt x="483" y="489" on="1"/>
        <pt x="538" y="464" on="0"/>
        <pt x="614" y="388" on="0"/>
        <pt x="639" y="333" on="1"/>
        <pt x="669" y="360" on="1"/>
        <pt x="741" y="428" on="0"/>
        <pt x="784" y="504" on="1"/>
        <pt x="835" y="595" on="0"/>
        <pt x="843" y="693" on="1"/>
        <pt x="745" y="685" on="0"/>
        <pt x="654" y="634" on="1"/>
        <pt x="578" y="591" on="0"/>
        <pt x="510" y="519" on="1"/>
      </contour>
      <contour>
        <pt x="464" y="562" on="1"/>
        <pt x="410" y="505" on="0"/>
        <pt x="366" y="436" on="1"/>
        <pt x="332" y="384" on="0"/>
        <pt x="312" y="339" on="1"/>
        <pt x="292" y="340" on="1"/>
        <pt x="238" y="340" on="0"/>
        <pt x="147" y="287" on="0"/>
        <pt x="94" y="196" on="0"/>
        <pt x="94" y="142" on="1"/>
        <pt x="94" y="-25" on="1"/>
        <pt x="94" y="-38" on="0"/>
        <pt x="112" y="-56" on="0"/>
        <pt x="125" y="-56" on="1"/>
        <pt x="292" y="-56" on="1"/>
        <pt x="346" y="-56" on="0"/>
        <pt x="437" y="-3" on="0"/>
        <pt x="490" y="88" on="0"/>
        <pt x="490" y="142" on="1"/>
        <pt x="489" y="162" on="1"/>
        <pt x="534" y="182" on="0"/>
        <pt x="586" y="216" on="1"/>
        <pt x="655" y="260" on="0"/>
        <pt x="712" y="314" on="1"/>
        <pt x="798" y="396" on="0"/>
        <pt x="846" y="488" on="1"/>
        <pt x="906" y="602" on="0"/>
        <pt x="906" y="725" on="1"/>
        <pt x="906" y="738" on="0"/>
        <pt x="888" y="756" on="0"/>
        <pt x="875" y="756" on="1"/>
        <pt x="752" y="756" on="0"/>
        <pt x="638" y="696" on="1"/>
        <pt x="546" y="648" on="0"/>
      </contour>
      <contour>
        <pt x="292" y="277" on="1"/>
        <pt x="255" y="277" on="0"/>
        <pt x="193" y="241" on="0"/>
        <pt x="156" y="179" on="0"/>
        <pt x="156" y="142" on="1"/>
        <pt x="156" y="6" on="1"/>
        <pt x="292" y="6" on="1"/>
        <pt x="329" y="6" on="0"/>
        <pt x="391" y="43" on="0"/>
        <pt x="427" y="105" on="0"/>
        <pt x="427" y="179" on="0"/>
        <pt x="391" y="241" on="0"/>
        <pt x="329" y="277" on="0"/>
      </contour>
    </TTGlyph>
    <TTGlyph name="brush_2" xMin="0" yMin="-56" xMax="802" yMax="756">
      <contour>
        <pt x="292" y="756" on="1"/>
        <pt x="270" y="756" on="0"/>
        <pt x="240" y="726" on="0"/>
        <pt x="240" y="704" on="1"/>
        <pt x="240" y="380" on="1"/>
        <pt x="222" y="376" on="0"/>
        <pt x="198" y="348" on="0"/>
        <pt x="198" y="329" on="1"/>
        <pt x="198" y="204" on="1"/>
        <pt x="198" y="182" on="0"/>
        <pt x="228" y="152" on="0"/>
        <pt x="250" y="152" on="1"/>
        <pt x="385" y="152" on="1"/>
        <pt x="385" y="58" on="1"/>
        <pt x="385" y="27" on="0"/>
        <pt x="416" y="-25" on="0"/>
        <pt x="469" y="-56" on="0"/>
        <pt x="531" y="-56" on="0"/>
        <pt x="584" y="-25" on="0"/>
        <pt x="615" y="27" on="0"/>
        <pt x="615" y="58" on="1"/>
        <pt x="615" y="152" on="1"/>
        <pt x="750" y="152" on="1"/>
        <pt x="772" y="152" on="0"/>
        <pt x="802" y="182" on="0"/>
        <pt x="802" y="204" on="1"/>
        <pt x="802" y="329" on="1"/>
        <pt x="802" y="348" on="0"/>
        <pt x="778" y="376" on="0"/>
        <pt x="760" y="380" on="1"/>
        <pt x="760" y="704" on="1"/>
        <pt x="760" y="726" on="0"/>
        <pt x="730" y="756" on="0"/>
        <pt x="708" y="756" on="1"/>
      </contour>
      <contour>
        <pt x="552" y="694" on="1"/>
        <pt x="552" y="538" on="1"/>
        <pt x="552" y="525" on="0"/>
        <pt x="570" y="506" on="0"/>
        <pt x="597" y="506" on="0"/>
        <pt x="615" y="525" on="0"/>
        <pt x="615" y="538" on="1"/>
        <pt x="615" y="694" on="1"/>
        <pt x="698" y="694" on="1"/>
        <pt x="698" y="381" on="1"/>
        <pt x="302" y="381" on="1"/>
        <pt x="302" y="694" on="1"/>
        <pt x="385" y="694" on="1"/>
        <pt x="385" y="621" on="1"/>
        <pt x="385" y="608" on="0"/>
        <pt x="404" y="590" on="0"/>
        <pt x="430" y="590" on="0"/>
        <pt x="448" y="608" on="0"/>
        <pt x="448" y="621" on="1"/>
        <pt x="448" y="694" on="1"/>
      </contour>
      <contour>
        <pt x="292" y="319" on="1"/>
        <pt x="260" y="319" on="1"/>
        <pt x="260" y="215" on="1"/>
        <pt x="404" y="215" on="1"/>
        <pt x="422" y="215" on="0"/>
        <pt x="448" y="189" on="0"/>
        <pt x="448" y="171" on="1"/>
        <pt x="448" y="58" on="1"/>
        <pt x="448" y="37" on="0"/>
        <pt x="478" y="6" on="0"/>
        <pt x="522" y="6" on="0"/>
        <pt x="552" y="37" on="0"/>
        <pt x="552" y="58" on="1"/>
        <pt x="552" y="171" on="1"/>
        <pt x="552" y="189" on="0"/>
        <pt x="578" y="215" on="0"/>
        <pt x="596" y="215" on="1"/>
        <pt x="740" y="215" on="1"/>
        <pt x="740" y="319" on="1"/>
      </contour>
    </TTGlyph>
    <TTGlyph name="bug" xMin="0" yMin="-56" xMax="865" yMax="759">
      <contour>
        <pt x="631" y="698" on="1"/>
        <pt x="642" y="705" on="0"/>
        <pt x="649" y="730" on="0"/>
        <pt x="636" y="752" on="0"/>
        <pt x="611" y="759" on="0"/>
        <pt x="600" y="752" on="1"/>
        <pt x="567" y="734" on="0"/>
        <pt x="553" y="716" on="1"/>
        <pt x="538" y="696" on="0"/>
        <pt x="532" y="673" on="1"/>
        <pt x="477" y="673" on="1"/>
        <pt x="473" y="695" on="0"/>
        <pt x="457" y="716" on="1"/>
        <pt x="443" y="734" on="0"/>
        <pt x="410" y="752" on="1"/>
        <pt x="399" y="759" on="0"/>
        <pt x="374" y="752" on="0"/>
        <pt x="361" y="730" on="0"/>
        <pt x="368" y="705" on="0"/>
        <pt x="379" y="698" on="1"/>
        <pt x="402" y="684" on="0"/>
        <pt x="409" y="676" on="1"/>
        <pt x="412" y="672" on="0"/>
        <pt x="415" y="664" on="1"/>
        <pt x="383" y="651" on="0"/>
        <pt x="344" y="594" on="0"/>
        <pt x="344" y="558" on="1"/>
        <pt x="344" y="518" on="1"/>
        <pt x="338" y="515" on="1"/>
        <pt x="300" y="493" on="0"/>
        <pt x="281" y="461" on="1"/>
        <pt x="272" y="445" on="0"/>
        <pt x="266" y="425" on="1"/>
        <pt x="258" y="433" on="0"/>
        <pt x="250" y="451" on="1"/>
        <pt x="246" y="463" on="0"/>
        <pt x="244" y="480" on="1"/>
        <pt x="243" y="493" on="0"/>
        <pt x="243" y="517" on="1"/>
        <pt x="243" y="530" on="0"/>
        <pt x="225" y="548" on="0"/>
        <pt x="199" y="548" on="0"/>
        <pt x="180" y="530" on="0"/>
        <pt x="180" y="517" on="1"/>
        <pt x="180" y="464" on="0"/>
        <pt x="191" y="430" on="1"/>
        <pt x="208" y="384" on="0"/>
        <pt x="252" y="356" on="1"/>
        <pt x="260" y="352" on="1"/>
        <pt x="260" y="295" on="1"/>
        <pt x="167" y="295" on="1"/>
        <pt x="154" y="295" on="0"/>
        <pt x="135" y="277" on="0"/>
        <pt x="135" y="251" on="0"/>
        <pt x="154" y="233" on="0"/>
        <pt x="167" y="233" on="1"/>
        <pt x="260" y="233" on="1"/>
        <pt x="260" y="223" on="1"/>
        <pt x="260" y="190" on="0"/>
        <pt x="271" y="157" on="1"/>
        <pt x="227" y="126" on="0"/>
        <pt x="208" y="100" on="1"/>
        <pt x="180" y="61" on="0"/>
        <pt x="180" y="11" on="1"/>
        <pt x="180" y="-2" on="0"/>
        <pt x="199" y="-20" on="0"/>
        <pt x="225" y="-20" on="0"/>
        <pt x="243" y="-2" on="0"/>
        <pt x="243" y="11" on="1"/>
        <pt x="243" y="41" on="0"/>
        <pt x="259" y="63" on="1"/>
        <pt x="269" y="78" on="0"/>
        <pt x="296" y="98" on="1"/>
        <pt x="312" y="69" on="0"/>
        <pt x="341" y="35" on="1"/>
        <pt x="376" y="-4" on="0"/>
        <pt x="416" y="-29" on="1"/>
        <pt x="460" y="-56" on="0"/>
        <pt x="540" y="-56" on="0"/>
        <pt x="584" y="-29" on="1"/>
        <pt x="623" y="-6" on="0"/>
        <pt x="659" y="35" on="1"/>
        <pt x="688" y="69" on="0"/>
        <pt x="704" y="98" on="1"/>
        <pt x="730" y="80" on="0"/>
        <pt x="741" y="63" on="1"/>
        <pt x="757" y="41" on="0"/>
        <pt x="757" y="11" on="1"/>
        <pt x="757" y="-2" on="0"/>
        <pt x="776" y="-20" on="0"/>
        <pt x="802" y="-20" on="0"/>
        <pt x="820" y="-2" on="0"/>
        <pt x="820" y="11" on="1"/>
        <pt x="820" y="61" on="0"/>
        <pt x="792" y="100" on="1"/>
        <pt x="772" y="128" on="0"/>
        <pt x="729" y="157" on="1"/>
        <pt x="740" y="190" on="0"/>
        <pt x="740" y="223" on="1"/>
        <pt x="740" y="233" on="1"/>
        <pt x="833" y="233" on="1"/>
        <pt x="846" y="233" on="0"/>
        <pt x="865" y="251" on="0"/>
        <pt x="865" y="277" on="0"/>
        <pt x="846" y="295" on="0"/>
        <pt x="833" y="295" on="1"/>
        <pt x="740" y="295" on="1"/>
        <pt x="740" y="349" on="1"/>
        <pt x="748" y="353" on="1"/>
        <pt x="793" y="381" on="0"/>
        <pt x="809" y="429" on="1"/>
        <pt x="820" y="463" on="0"/>
        <pt x="820" y="517" on="1"/>
        <pt x="820" y="530" on="0"/>
        <pt x="802" y="548" on="0"/>
        <pt x="776" y="548" on="0"/>
        <pt x="757" y="530" on="0"/>
        <pt x="757" y="517" on="1"/>
        <pt x="757" y="470" on="0"/>
        <pt x="750" y="449" on="1"/>
        <pt x="742" y="431" on="0"/>
        <pt x="735" y="423" on="1"/>
        <pt x="731" y="443" on="0"/>
        <pt x="719" y="465" on="1"/>
        <pt x="699" y="498" on="0"/>
        <pt x="662" y="518" on="1"/>
        <pt x="656" y="521" on="1"/>
        <pt x="656" y="558" on="1"/>
        <pt x="656" y="591" on="0"/>
        <pt x="622" y="647" on="0"/>
        <pt x="594" y="661" on="1"/>
        <pt x="595" y="668" on="0"/>
        <pt x="608" y="684" on="0"/>
      </contour>
      <contour>
        <pt x="594" y="558" on="1"/>
        <pt x="594" y="541" on="1"/>
        <pt x="552" y="548" on="0"/>
        <pt x="500" y="548" on="1"/>
        <pt x="445" y="548" on="0"/>
        <pt x="406" y="539" on="1"/>
        <pt x="406" y="558" on="1"/>
        <pt x="406" y="580" on="0"/>
        <pt x="437" y="610" on="0"/>
        <pt x="458" y="610" on="1"/>
        <pt x="542" y="610" on="1"/>
        <pt x="563" y="610" on="0"/>
        <pt x="594" y="580" on="0"/>
      </contour>
      <contour>
        <pt x="323" y="379" on="1"/>
        <pt x="323" y="408" on="0"/>
        <pt x="335" y="429" on="1"/>
        <pt x="345" y="448" on="0"/>
        <pt x="368" y="460" on="1"/>
        <pt x="411" y="485" on="0"/>
        <pt x="500" y="485" on="1"/>
        <pt x="546" y="485" on="0"/>
        <pt x="576" y="480" on="1"/>
        <pt x="611" y="475" on="0"/>
        <pt x="655" y="452" on="0"/>
        <pt x="677" y="412" on="0"/>
        <pt x="677" y="379" on="1"/>
        <pt x="677" y="223" on="1"/>
        <pt x="677" y="188" on="0"/>
        <pt x="642" y="110" on="0"/>
        <pt x="612" y="76" on="1"/>
        <pt x="583" y="44" on="0"/>
        <pt x="552" y="24" on="1"/>
        <pt x="538" y="17" on="0"/>
        <pt x="531" y="14" on="1"/>
        <pt x="531" y="402" on="1"/>
        <pt x="531" y="415" on="0"/>
        <pt x="513" y="433" on="0"/>
        <pt x="487" y="433" on="0"/>
        <pt x="469" y="415" on="0"/>
        <pt x="469" y="402" on="1"/>
        <pt x="469" y="14" on="1"/>
        <pt x="459" y="18" on="0"/>
        <pt x="449" y="24" on="1"/>
        <pt x="417" y="44" on="0"/>
        <pt x="388" y="76" on="1"/>
        <pt x="358" y="110" on="0"/>
        <pt x="323" y="188" on="0"/>
        <pt x="323" y="223" on="1"/>
      </contour>
    </TTGlyph>
    <TTGlyph name="cake" xMin="0" yMin="-56" xMax="938" yMax="715">
      <contour>
        <pt x="500" y="610" on="1"/>
        <pt x="518" y="610" on="0"/>
        <pt x="529" y="619" on="1"/>
        <pt x="542" y="630" on="0"/>
        <pt x="542" y="652" on="1"/>
        <pt x="542" y="687" on="0"/>
        <pt x="500" y="715" on="1"/>
        <pt x="458" y="687" on="0"/>
        <pt x="458" y="652" on="1"/>
        <pt x="458" y="630" on="0"/>
        <pt x="471" y="619" on="1"/>
        <pt x="482" y="610" on="0"/>
      </contour>
      <contour>
        <pt x="333" y="548" on="1"/>
        <pt x="346" y="548" on="0"/>
        <pt x="365" y="530" on="0"/>
        <pt x="365" y="517" on="1"/>
        <pt x="365" y="423" on="1"/>
        <pt x="469" y="423" on="1"/>
        <pt x="469" y="517" on="1"/>
        <pt x="469" y="530" on="0"/>
        <pt x="487" y="548" on="0"/>
        <pt x="513" y="548" on="0"/>
        <pt x="531" y="530" on="0"/>
        <pt x="531" y="517" on="1"/>
        <pt x="531" y="423" on="1"/>
        <pt x="635" y="423" on="1"/>
        <pt x="635" y="517" on="1"/>
        <pt x="635" y="530" on="0"/>
        <pt x="654" y="548" on="0"/>
        <pt x="680" y="548" on="0"/>
        <pt x="698" y="530" on="0"/>
        <pt x="698" y="517" on="1"/>
        <pt x="698" y="423" on="1"/>
        <pt x="771" y="423" on="1"/>
        <pt x="810" y="423" on="0"/>
        <pt x="865" y="368" on="0"/>
        <pt x="865" y="329" on="1"/>
        <pt x="865" y="6" on="1"/>
        <pt x="906" y="6" on="1"/>
        <pt x="919" y="6" on="0"/>
        <pt x="938" y="-12" on="0"/>
        <pt x="938" y="-38" on="0"/>
        <pt x="919" y="-56" on="0"/>
        <pt x="906" y="-56" on="1"/>
        <pt x="94" y="-56" on="1"/>
        <pt x="81" y="-56" on="0"/>
        <pt x="63" y="-38" on="0"/>
        <pt x="63" y="-12" on="0"/>
        <pt x="81" y="6" on="0"/>
        <pt x="94" y="6" on="1"/>
        <pt x="135" y="6" on="1"/>
        <pt x="135" y="329" on="1"/>
        <pt x="135" y="368" on="0"/>
        <pt x="190" y="423" on="0"/>
        <pt x="229" y="423" on="1"/>
        <pt x="302" y="423" on="1"/>
        <pt x="302" y="517" on="1"/>
        <pt x="302" y="530" on="0"/>
        <pt x="320" y="548" on="0"/>
      </contour>
      <contour>
        <pt x="802" y="329" on="1"/>
        <pt x="802" y="199" on="1"/>
        <pt x="781" y="183" on="1"/>
        <pt x="768" y="173" on="0"/>
        <pt x="733" y="173" on="0"/>
        <pt x="719" y="183" on="1"/>
        <pt x="652" y="233" on="1"/>
        <pt x="621" y="256" on="0"/>
        <pt x="545" y="256" on="0"/>
        <pt x="515" y="233" on="1"/>
        <pt x="448" y="183" on="1"/>
        <pt x="434" y="173" on="0"/>
        <pt x="399" y="173" on="0"/>
        <pt x="385" y="183" on="1"/>
        <pt x="319" y="233" on="1"/>
        <pt x="292" y="253" on="0"/>
        <pt x="227" y="258" on="0"/>
        <pt x="198" y="244" on="1"/>
        <pt x="198" y="329" on="1"/>
        <pt x="198" y="342" on="0"/>
        <pt x="216" y="360" on="0"/>
        <pt x="229" y="360" on="1"/>
        <pt x="771" y="360" on="1"/>
        <pt x="784" y="360" on="0"/>
        <pt x="802" y="342" on="0"/>
      </contour>
      <contour>
        <pt x="198" y="6" on="1"/>
        <pt x="198" y="168" on="1"/>
        <pt x="219" y="183" on="1"/>
        <pt x="233" y="194" on="0"/>
        <pt x="268" y="194" on="0"/>
        <pt x="281" y="183" on="1"/>
        <pt x="348" y="133" on="1"/>
        <pt x="379" y="111" on="0"/>
        <pt x="455" y="111" on="0"/>
        <pt x="485" y="133" on="1"/>
        <pt x="552" y="183" on="1"/>
        <pt x="566" y="194" on="0"/>
        <pt x="601" y="194" on="0"/>
        <pt x="615" y="183" on="1"/>
        <pt x="681" y="133" on="1"/>
        <pt x="708" y="113" on="0"/>
        <pt x="774" y="108" on="0"/>
        <pt x="802" y="123" on="1"/>
        <pt x="802" y="6" on="1"/>
      </contour>
      <contour>
        <pt x="708" y="652" on="1"/>
        <pt x="708" y="630" on="0"/>
        <pt x="695" y="619" on="1"/>
        <pt x="685" y="610" on="0"/>
        <pt x="649" y="610" on="0"/>
        <pt x="638" y="619" on="1"/>
        <pt x="625" y="630" on="0"/>
        <pt x="625" y="652" on="1"/>
        <pt x="625" y="687" on="0"/>
        <pt x="667" y="715" on="1"/>
        <pt x="708" y="687" on="0"/>
      </contour>
      <contour>
        <pt x="333" y="610" on="1"/>
        <pt x="351" y="610" on="0"/>
        <pt x="362" y="619" on="1"/>
        <pt x="375" y="630" on="0"/>
        <pt x="375" y="652" on="1"/>
        <pt x="375" y="687" on="0"/>
        <pt x="333" y="715" on="1"/>
        <pt x="292" y="687" on="0"/>
        <pt x="292" y="652" on="1"/>
        <pt x="292" y="630" on="0"/>
        <pt x="305" y="619" on="1"/>
        <pt x="316" y="610" on="0"/>
      </contour>
    </TTGlyph>
</ttFont>
